<?xml version="1.0" standalone="no"?>
<!DOCTYPE svg PUBLIC "-//W3C//DTD SVG 1.1//EN" "http://www.w3.org/Graphics/SVG/1.1/DTD/svg11.dtd" >
<svg xmlns="http://www.w3.org/2000/svg" xmlns:xlink="http://www.w3.org/1999/xlink" version="1.1">
<metadata>
Created by FontForge 20170731 at Thu Nov 26 15:40:42 2020
 By Aleksey,,,
Copyright 2020 The Newsreader Project Authors (http://github.com/productiontype/Newsreader)
</metadata>
<defs>
<font id="Newsreader-Medium" horiz-adv-x="0" >
  <font-face 
    font-family="Newsreader Medium"
    font-weight="500"
    font-stretch="normal"
    units-per-em="2000"
    panose-1="2 0 0 0 0 0 0 0 0 0"
    ascent="1470"
    descent="-530"
    x-height="913"
    cap-height="1365"
    bbox="-615 -508 2807 2170"
    underline-thickness="96"
    underline-position="-399"
    unicode-range="U+0020-FB04"
  />
<missing-glyph horiz-adv-x="1000" 
d="M100 -508v2000h800v-2000h-800zM200 -408h600v1800h-600v-1800z" />
    <glyph glyph-name="f_f" unicode="ff" horiz-adv-x="1392" 
d="M589 0h-515v59l148 46v827q0 123 41 213.5t112.5 150.5t166.5 90t203 30q70 0 127 -12.5t103.5 -37t84.5 -61.5l-128 -138q-51 68 -114 103t-139 35q-75 0 -131 -29.5t-86.5 -87.5t-30.5 -144v-938l158 -47v-59zM1353 786h-1076l-55 -26l-180 47v46l195 72l87 -12h1042z
M1056 106l168 -47v-59h-525v59l148 46v837q0 131 41 225.5t114 155.5t169 90.5t203 29.5q94 0 149 -16.5t79 -45.5t24 -66q0 -32 -15 -56.5t-40.5 -38.5t-57.5 -14q-28 0 -51.5 18t-48.5 41.5t-57 41.5t-77 18q-63 0 -114 -25.5t-80 -82.5t-29 -152v-959z" />
    <glyph glyph-name="fi" unicode="fi" horiz-adv-x="1245" 
d="M855 786h-578l-55 -26l-180 47v46l195 72l80 -12h481l226 20h42l-10 -200v-628l147 -46v-59h-504v59l148 46v713zM431 105l158 -46v-59h-515v59l148 46v837q0 131 41.5 225.5t115 155.5t170 90.5t205.5 29.5q99 0 158.5 -18t86 -48t26.5 -67q0 -33 -16 -58.5t-43 -40
t-62 -14.5q-30 0 -54.5 19.5t-50 44.5t-58.5 44.5t-80 19.5q-66 0 -118 -25.5t-82 -83t-30 -153.5v-958z" />
    <glyph glyph-name="fl" unicode="fl" horiz-adv-x="1247" 
d="M431 105l158 -46v-59h-515v59l148 46v837q0 129 41.5 222t111.5 153t159 89.5t185 29.5q84 0 148 -13t114 -42l-81 -1l138 63h36l-16 -193v-1145l147 -46v-59h-503v59l147 46v1130q-16 41 -61.5 65.5t-114.5 24.5q-70 0 -125 -26t-86 -84t-31 -155v-955zM709 913
l-16 -127h-416l-55 -26l-180 47v46l195 72l87 -12h385z" />
    <glyph glyph-name="f_f_i" unicode="ffi" horiz-adv-x="1869" 
d="M1530 786h-1253l-55 -26l-180 47v46l195 72l78 -12h1108l225 20h43l-11 -200v-628l147 -46v-59h-504v59l148 46v733zM589 0h-515v59l148 46v827q0 123 41 213.5t112.5 150.5t166.5 90t203 30q70 0 127 -12.5t103.5 -37t84.5 -61.5l-128 -138q-51 68 -114 103t-139 35
q-75 0 -131 -29.5t-86.5 -87.5t-30.5 -144v-938l158 -47v-59zM1056 105l158 -46v-59h-515v59l148 46v837q0 131 41.5 225.5t115 155.5t169.5 90.5t205 29.5q100 0 159 -18t85.5 -48t26.5 -67q0 -33 -15.5 -58.5t-43 -40t-61.5 -14.5q-31 0 -55 19.5t-49.5 44.5t-58.5 44.5
t-80 19.5q-66 0 -118 -25.5t-82 -83t-30 -153.5v-958z" />
    <glyph glyph-name="f_f_l" unicode="ffl" horiz-adv-x="1871" 
d="M1056 105l158 -46v-59h-515v59l148 46v837q0 129 41 222t111.5 153t159 89.5t184.5 29.5q84 0 148.5 -13t113.5 -42l-80 -1l138 63h35l-15 -193v-1145l147 -46v-59h-504v59l148 46v1130q-16 41 -61.5 65.5t-115.5 24.5t-124.5 -26t-85.5 -84t-31 -155v-955zM589 0h-515
v59l148 46v827q0 123 41 213.5t112.5 150.5t166.5 90t203 30q70 0 127 -12.5t103.5 -37t84.5 -61.5l-128 -138q-51 68 -114 103t-139 35q-75 0 -131 -29.5t-86.5 -87.5t-30.5 -144v-938l158 -47v-59zM1345 913l-16 -127h-1052l-55 -26l-180 47v46l195 72l87 -12h1021z" />
    <glyph glyph-name=".notdef" horiz-adv-x="1000" 
d="M100 -508v2000h800v-2000h-800zM200 -408h600v1800h-600v-1800z" />
    <glyph glyph-name=".null" 
 />
    <glyph glyph-name="nonmarkingreturn" horiz-adv-x="666" 
 />
    <glyph glyph-name="space" unicode=" " horiz-adv-x="463" 
 />
    <glyph glyph-name="exclam" unicode="!" horiz-adv-x="577" 
d="M414 1323l-2 -115q-1 -26 -4.5 -71.5t-9.5 -107t-14 -134t-16 -151t-16 -158t-16 -155.5h-94q-7 76 -15 155.5t-16.5 158t-16 151t-13.5 134t-10 107t-4 71.5l-3 115q0 21 14.5 35t42.5 21t68 7t68 -7t43 -21t14 -35zM288 272q67 0 108 -40t41 -104t-41 -104t-108 -40
q-66 0 -107.5 40t-41.5 104t41.5 104t107.5 40z" />
    <glyph glyph-name="quotedbl" unicode="&#x22;" horiz-adv-x="771" 
d="M157 857l-56 458v50h227v-50l-58 -458h-113zM501 857l-56 458v50h227v-50l-58 -458h-113z" />
    <glyph glyph-name="numbersign" unicode="#" horiz-adv-x="1210" 
d="M679 0h-98l304 1368h98zM342 0h-98l304 1368h98zM1070 564v-95h-1005v95h1005zM1143 904v-95h-1002v95h1002z" />
    <glyph glyph-name="dollar" unicode="$" horiz-adv-x="1210" 
d="M443 -201v1767h97v-1767h-97zM686 -201v1767h97v-1767h-97zM528 -22q-95 0 -169 13t-125 36.5t-77 56.5t-26 72q0 46 30.5 76.5t72.5 30.5q32 0 61.5 -26.5t64 -61.5t82 -61.5t116.5 -26.5q93 0 164 27t111 82t40 138q0 71 -30 121.5t-105 89.5t-211 73q-135 35 -213 89
t-110.5 127t-32.5 166q0 121 60.5 207.5t174 133t269.5 46.5q127 0 210 -23.5t124 -64t41 -90.5q0 -45 -30 -75t-72 -30q-33 0 -60.5 26.5t-60 61t-77.5 61t-113 26.5q-138 0 -214 -56.5t-76 -160.5q0 -56 23.5 -102.5t94.5 -86t212 -74.5t224 -90.5t119 -130.5t36 -173
q0 -139 -63.5 -234t-182 -144t-282.5 -49z" />
    <glyph glyph-name="percent" unicode="%" horiz-adv-x="1653" 
d="M286 0l947 1365h133l-947 -1365h-133zM395 702q72 0 109 71.5t37 201.5q0 99 -17 166.5t-50.5 102.5t-83.5 35q-73 0 -110.5 -71t-37.5 -201q0 -99 17.5 -167t51.5 -103t84 -35zM391 603q-97 0 -170 47t-112.5 134t-39.5 205q0 120 39.5 207t112.5 134.5t173 47.5
q98 0 170 -47t112 -133.5t40 -205.5t-39.5 -206.5t-112.5 -135t-173 -47.5zM1263 87q72 0 109 71.5t37 201.5q0 99 -17 166.5t-50.5 102.5t-83.5 35q-73 0 -110.5 -71t-37.5 -201q0 -99 17.5 -167t51.5 -103t84 -35zM1259 -12q-97 0 -170 47t-112.5 134t-39.5 205
q0 120 39.5 207t112.5 134.5t173 47.5q98 0 170 -47t112 -133.5t40 -205.5t-39.5 -206.5t-112.5 -135t-173 -47.5z" />
    <glyph glyph-name="ampersand" unicode="&#x26;" horiz-adv-x="1503" 
d="M635 753l-116 -53q-73 -40 -116 -86t-62 -99.5t-19 -117.5q0 -90 33 -151.5t98.5 -93t163.5 -31.5q94 0 175.5 36.5t151.5 121.5l39 45q47 68 85 166.5t68 234.5l-148 43v62h465v-62l-153 -43q-62 -163 -123.5 -282t-126.5 -204l-36 -38q-69 -82 -144 -130.5
t-157.5 -70.5t-176.5 -22q-147 0 -241.5 45.5t-140 126.5t-45.5 187q0 91 37 169t120 144t221 120l108 52q117 66 165.5 135t48.5 154q0 81 -41.5 126.5t-127.5 45.5q-81 0 -129.5 -40.5t-48.5 -118.5q0 -41 12 -78t41.5 -79.5t81.5 -100.5l675 -749l190 -55v-62h-369
l-661 741q-66 74 -102.5 130.5t-50.5 106.5t-14 102q0 90 43 159.5t128.5 108.5t211.5 39q116 0 192 -35t113.5 -94t37.5 -134q0 -53 -17.5 -101.5t-58 -94t-109.5 -89t-171 -86.5z" />
    <glyph glyph-name="quotesingle" unicode="'" horiz-adv-x="428" 
d="M157 857l-56 458v50h227v-50l-58 -458h-113z" />
    <glyph glyph-name="parenleft" unicode="(" horiz-adv-x="610" 
d="M282 589q0 -102 12.5 -198.5t42.5 -192t83 -195.5t134 -211l-64 -57q-118 127 -196 234t-124 206t-65 199.5t-19 214.5q0 113 19 213.5t65 199.5t124 206t196 235l64 -58q-81 -111 -134 -211t-83 -195.5t-42.5 -191.5t-12.5 -198z" />
    <glyph glyph-name="parenright" unicode=")" horiz-adv-x="610" 
d="M328 589q0 102 -12.5 198.5t-42.5 191.5t-83 195.5t-134 210.5l65 58q118 -127 196 -234.5t123.5 -206.5t64.5 -199.5t19 -213.5t-19 -213.5t-64.5 -199.5t-123.5 -206.5t-196 -234.5l-65 58q81 110 134 210.5t83 195.5t42.5 191.5t12.5 198.5z" />
    <glyph glyph-name="asterisk" unicode="*" horiz-adv-x="882" 
d="M611 735l-76 -33l-118 228l-211 -146l-53 64l180 182l-205 156l44 70l230 -115l84 242l80 -20l-39 -253l257 -5l6 -83l-252 -42z" />
    <glyph glyph-name="plus" unicode="+" horiz-adv-x="1047" 
d="M461 851h125v-776h-125v776zM912 525v-124h-777v124h777z" />
    <glyph glyph-name="comma" unicode="," horiz-adv-x="509" 
d="M59 -295q96 77 136.5 138.5t40.5 115.5q0 34 -20.5 57t-47.5 40.5t-48 33.5t-21 36q0 65 40 106t109 41q71 0 113 -44.5t42 -130.5q0 -57 -14 -110.5t-47 -108.5t-88.5 -113.5t-138.5 -124.5z" />
    <glyph glyph-name="hyphen" unicode="-" horiz-adv-x="740" 
d="M127 547h486v-162h-486v162z" />
    <glyph glyph-name="period" unicode="." horiz-adv-x="497" 
d="M248 275q66 0 107.5 -40.5t41.5 -105.5q0 -64 -41.5 -104.5t-107.5 -40.5q-65 0 -106.5 40.5t-41.5 104.5q0 65 41.5 105.5t106.5 40.5z" />
    <glyph glyph-name="slash" unicode="/" horiz-adv-x="828" 
d="M54 0l571 1365h149l-571 -1365h-149z" />
    <glyph glyph-name="zero" unicode="0" horiz-adv-x="1210" 
d="M609 100q93 0 157 62t97 184.5t33 301.5q0 153 -19 269t-56.5 193t-92.5 115.5t-127 38.5q-93 0 -157 -62t-97 -183.5t-33 -301.5q0 -153 19 -269t56.5 -193t92.5 -116t127 -39zM609 1387q161 0 278 -84.5t180 -240t63 -369.5q0 -220 -62.5 -380.5t-181 -247.5
t-284.5 -87q-161 0 -278 84.5t-180.5 240.5t-63.5 369q0 220 63 380t181.5 247.5t284.5 87.5z" />
    <glyph glyph-name="one" unicode="1" horiz-adv-x="1210" 
d="M573 124v1133l59 -85l-439 -136l-30 85l522 260h110v-1257l284 -58v-66h-806v66z" />
    <glyph glyph-name="two" unicode="2" horiz-adv-x="1210" 
d="M851 145l177 274h74l-75 -461h-58l-96 42h-744v69l388 427q97 106 151.5 186.5t77 145.5t22.5 123q0 116 -64.5 183t-180.5 67q-78 0 -141.5 -27t-110.5 -89.5t-77 -170.5l-96 19q49 228 179 341t328 113q117 0 206.5 -45.5t139.5 -129t50 -197.5q0 -65 -16 -124
t-55.5 -122.5t-111 -140t-182.5 -177.5l-370 -347l31 99h678z" />
    <glyph glyph-name="three" unicode="3" horiz-adv-x="1210" 
d="M423 635l-22 101q140 35 218 78t109.5 97t31.5 119q0 84 -51.5 140t-157.5 56q-110 0 -185.5 -58.5t-111.5 -190.5l-93 24q27 124 87 210t152 131t212 45q116 0 194 -37t117 -101.5t39 -147.5q0 -80 -39.5 -147t-115 -115t-183.5 -74l20 11q132 10 225 -27.5
t142.5 -115.5t49.5 -189q0 -132 -77.5 -237.5t-219.5 -167t-336 -61.5q-108 0 -173.5 20t-94.5 54t-29 75q0 47 30.5 77t72.5 30q22 0 46.5 -14.5t51.5 -36t57.5 -43.5t65 -36.5t72.5 -14.5q90 0 161 37t113 109t42 175q0 97 -40.5 158.5t-117 83.5t-185.5 -1z" />
    <glyph glyph-name="four" unicode="4" horiz-adv-x="1210" 
d="M855 1375v-1261l188 -53v-61h-612v61l202 53v1114l92 30l-560 -738l-30 54h847l197 28l-56 -197h-1093l-1 106l628 864h198z" />
    <glyph glyph-name="five" unicode="5" horiz-adv-x="1210" 
d="M406 -22q-107 0 -171 20.5t-92.5 54.5t-28.5 74q0 50 31.5 80t69.5 30q21 0 45.5 -14.5t51 -35.5t57 -42.5t64 -36t70.5 -14.5q94 0 168 35.5t117.5 104t43.5 167.5q0 62 -24.5 116.5t-89 96.5t-183.5 69.5t-308 36.5l178 645h407l273 38l-76 -237h-592l82 78l-136 -421
l-33 99q165 -13 283 -41t196.5 -69.5t123 -95t63.5 -117t19 -135.5q0 -106 -43.5 -195t-124 -154.5t-192.5 -101t-249 -35.5z" />
    <glyph glyph-name="six" unicode="6" horiz-adv-x="1210" 
d="M953 1413l44 -85q-145 -46 -252 -101t-181.5 -122t-120 -150t-66 -184t-20.5 -224q0 -143 30.5 -244t92 -155t153.5 -54q84 0 141 34.5t86.5 99.5t29.5 155q0 144 -62.5 215.5t-180.5 71.5q-46 0 -90.5 -9.5t-86 -29t-77 -48t-63.5 -65.5l-51 17q62 77 118.5 131
t111 86.5t110 47.5t114.5 15q108 0 191.5 -42.5t131 -126t47.5 -207.5q0 -138 -60 -241.5t-168 -161.5t-252 -58q-162 0 -271 73t-164.5 199t-55.5 285q0 117 24 223.5t80.5 200.5t151 176t234 152t331.5 126z" />
    <glyph glyph-name="seven" unicode="7" horiz-adv-x="1210" 
d="M231 1164l127 67l-144 -290h-75l28 467h47l110 -43h795v-23l-495 -1342h-243l602 1242l12 -78h-764z" />
    <glyph glyph-name="eight" unicode="8" horiz-adv-x="1210" 
d="M627 1387q137 0 228.5 -40.5t137.5 -112t46 -165.5q0 -126 -96.5 -211.5t-282.5 -115.5l-55 28q128 43 189 109.5t61 170.5q0 66 -26.5 115.5t-80 78.5t-136.5 29q-121 0 -186.5 -59t-65.5 -147q0 -78 40 -125.5t105 -77.5t143.5 -54.5t156.5 -53.5t143.5 -74.5
t105 -118.5t39.5 -186q0 -125 -63.5 -214.5t-174.5 -137t-254 -47.5q-148 0 -258 41t-170 119.5t-60 188.5q0 81 31.5 143t89 108t136 77.5t173.5 49.5l37 -35q-99 -32 -159 -75.5t-86 -103t-26 -142.5q0 -81 35.5 -138.5t102 -88t159.5 -30.5q97 0 161.5 30.5t97 84.5
t32.5 125q0 78 -39.5 127t-104.5 80.5t-142 56.5t-155 54.5t-143 73.5t-104.5 114t-39.5 178t55 191.5t158 131.5t245 48z" />
    <glyph glyph-name="nine" unicode="9" horiz-adv-x="1210" 
d="M281 -48l-44 85q139 57 242 116.5t174.5 126t115 146t63 176t19.5 216.5q0 144 -31 246t-92.5 155.5t-153.5 53.5q-81 0 -138 -34t-86.5 -96.5t-29.5 -148.5q0 -98 31.5 -160t87 -91t127.5 -29q43 0 86 8.5t83.5 26t77 44.5t66.5 63l51 -16q-63 -77 -121 -129.5
t-112.5 -84t-108 -45t-109.5 -13.5q-111 0 -195.5 44.5t-131.5 129.5t-47 207q0 134 60.5 232t170 152t254.5 54q163 0 271 -73t162 -199.5t54 -285.5q0 -112 -24.5 -213t-80 -192.5t-147 -173.5t-226 -156.5t-318.5 -141.5z" />
    <glyph glyph-name="colon" unicode=":" horiz-adv-x="543" 
d="M272 274q65 0 106.5 -40.5t41.5 -104.5t-41.5 -104.5t-106.5 -40.5q-66 0 -107.5 40.5t-41.5 104.5t41.5 104.5t107.5 40.5zM272 928q65 0 106.5 -40.5t41.5 -104.5q0 -63 -41.5 -104t-106.5 -41q-66 0 -107.5 41t-41.5 104q0 64 41.5 104.5t107.5 40.5z" />
    <glyph glyph-name="semicolon" unicode=";" horiz-adv-x="566" 
d="M95 -295q96 77 137 138.5t41 115.5q0 34 -21 57t-48 40.5t-47.5 33.5t-20.5 36q0 65 39.5 106t108.5 41q72 0 114 -44.5t42 -130.5q0 -57 -14.5 -110.5t-47.5 -108.5t-88.5 -113.5t-138.5 -124.5zM276 928q66 0 107.5 -40.5t41.5 -104.5q0 -63 -41.5 -104t-107.5 -41
q-65 0 -106.5 41t-41.5 104q0 64 41.5 104.5t106.5 40.5z" />
    <glyph glyph-name="less" unicode="&#x3c;" horiz-adv-x="1047" 
d="M166 435v58l799 -358v-138l-899 410v112l899 411v-138z" />
    <glyph glyph-name="equal" unicode="=" horiz-adv-x="1047" 
d="M135 704h777v-124h-777v124zM135 346h777v-124h-777v124z" />
    <glyph glyph-name="greater" unicode="&#x3e;" horiz-adv-x="1047" 
d="M881 435l-799 357v138l899 -411v-112l-899 -410v138l799 358v-58z" />
    <glyph glyph-name="question" unicode="?" horiz-adv-x="988" 
d="M385 1387q118 0 213 -29t163.5 -83.5t105 -131t36.5 -171.5q0 -105 -44.5 -183t-148.5 -120t-285 -40l67 113l-15 -313h-88l-65 363q145 -5 233.5 19t128.5 76t40 129q0 73 -29.5 127t-86.5 83.5t-141 29.5q-60 0 -101 -19t-72 -44t-59 -43.5t-63 -18.5q-34 0 -60 13.5
t-41 38t-15 55.5q0 42 32.5 75.5t104.5 53.5t190 20zM437 273q67 0 108 -40t41 -104q0 -63 -41 -103.5t-108 -40.5q-66 0 -107.5 40.5t-41.5 103.5q0 64 41.5 104t107.5 40z" />
    <glyph glyph-name="at" unicode="@" horiz-adv-x="1813" 
d="M1269 190q-110 0 -174 46.5t-64 140.5q0 24 4 51t13 56l21 69h15q-63 -107 -117 -176.5t-101.5 -109.5t-91 -56t-87.5 -16q-94 0 -146 51.5t-53 148.5q0 74 25.5 157.5t72.5 165t111 147.5t141.5 106t162.5 40q66 0 110 -32t79 -93l-34 -49q-15 34 -39 54.5t-65 20.5
q-51 0 -101 -33.5t-94 -89t-77.5 -121t-53 -131t-19.5 -119.5q0 -42 20.5 -62.5t57.5 -20.5q31 0 72 26t83 72.5t79.5 109.5t62.5 136l73 214l54 107h176l-147 -475q-15 -49 -20.5 -80t-5.5 -55q0 -58 27.5 -82t73.5 -24q77 0 146 55t112.5 157.5t43.5 247.5
q0 133 -40.5 239.5t-118 182.5t-188.5 116t-252 40q-181 0 -325 -58.5t-245 -167t-154.5 -258.5t-53.5 -332q0 -156 45 -278.5t134.5 -207t221.5 -128.5t304 -44q94 0 190.5 17t192.5 54t187 96l47 -81q-91 -60 -192 -102t-213.5 -64.5t-241.5 -22.5q-195 0 -348.5 49.5
t-260.5 144.5t-163 234.5t-56 321.5q0 198 66.5 366t190 293t296.5 194.5t384 69.5q173 0 309 -45.5t231.5 -130t145.5 -203.5t50 -266q0 -131 -37 -238t-103.5 -184t-155.5 -119t-193 -42z" />
    <glyph glyph-name="A" unicode="A" horiz-adv-x="1513" 
d="M380 472v126h686v-126h-686zM1362 117l161 -53v-64h-584v64l174 51l-449 1100h55l-418 -1100l167 -51v-64h-472v64l158 51l506 1266h174z" />
    <glyph glyph-name="B" unicode="B" horiz-adv-x="1370" 
d="M384 1237l3 128h386q155 0 249.5 -41.5t138 -114t43.5 -166.5q0 -130 -82 -215t-229 -98l2 16q181 -10 282.5 -102.5t101.5 -237.5q0 -120 -52 -211.5t-164 -143t-293 -51.5h-382l-4 127h349q98 0 166 28t103.5 89t35.5 160q0 77 -30.5 135t-96 90t-170.5 32h-359l3 125
h348q113 0 177 57t64 177q0 67 -28 115.5t-86 75t-150 26.5h-326zM91 0v64l163 52v1133l-163 51v65h395v-1365h-395z" />
    <glyph glyph-name="C" unicode="C" horiz-adv-x="1450" 
d="M902 107q79 0 155.5 14t151.5 43l-88 -70l152 307h84l-39 -343q-78 -36 -195 -58t-249 -22q-182 0 -326 45.5t-245 134t-153.5 217.5t-52.5 296q1 219 95.5 380t273 248.5t431.5 87.5q77 0 148 -10.5t157 -33.5l-68 -10l116 98h58l41 -495l-88 -7l-149 317l64 -74
q-84 48 -155 65.5t-155 17.5q-132 0 -231 -34t-164 -100t-98 -162.5t-35 -222.5q-1 -155 39.5 -272.5t115.5 -197t179.5 -119.5t229.5 -40z" />
    <glyph glyph-name="D" unicode="D" horiz-adv-x="1580" 
d="M1238 700q0 274 -150 404.5t-431 130.5h-296l-8 130h359q257 0 428 -72t256.5 -215.5t85.5 -358.5q0 -230 -99.5 -390.5t-273.5 -244.5t-399 -84h-357l8 130h326q171 0 294 58.5t190 184t67 327.5zM89 0v64l166 52v1133l-166 51v65h397v-1365h-397z" />
    <glyph glyph-name="E" unicode="E" horiz-adv-x="1354" 
d="M962 973v-259v-260h-101l-21 198h-483v125h483l21 196h101zM1243 980l-85 -7l-152 317l73 -53h-722v128h680l107 61h52zM1016 72l187 343l79 -8l-77 -475h-59l-99 68h-690v127h720zM89 0v64l166 52v1133l-166 51v65h397v-1365h-397z" />
    <glyph glyph-name="F" unicode="F" horiz-adv-x="1256" 
d="M960 929v-263v-264h-101l-21 202h-478v125h478l21 200h101zM1113 1426h50l47 -455l-84 -7l-153 326l116 -53h-748v128h666zM486 1365v-1249l166 -52v-64h-563v64l166 52v1133l-166 51v65h397z" />
    <glyph glyph-name="G" unicode="G" horiz-adv-x="1558" 
d="M1365 193l59 -64v-37q-74 -35 -164.5 -61t-189 -39.5t-198.5 -13.5q-181 0 -325 46t-244.5 134.5t-153.5 217.5t-52 295q1 219 95 380t272 248.5t431 87.5q82 0 154.5 -11t155.5 -34l-73 -10l118 99h58l41 -490l-89 -7l-155 324l96 -103q-82 53 -160 76.5t-176 23.5
q-133 0 -231 -33.5t-163.5 -100.5t-98 -164t-34.5 -224q-2 -204 67.5 -344t193.5 -210.5t287 -70.5q64 0 127 10.5t117.5 31.5t92.5 52l-89 -154v459l-191 55v63h558v-63l-136 -53v-316z" />
    <glyph glyph-name="H" unicode="H" horiz-adv-x="1677" 
d="M486 116l166 -52v-64h-563v64l166 52v1133l-166 51v65h563v-65l-166 -51v-1133zM1422 116l166 -52v-64h-564v64l166 52v1133l-166 51v65h564v-65l-166 -51v-1133zM353 631v130h971v-130h-971z" />
    <glyph glyph-name="I" unicode="I" horiz-adv-x="741" 
d="M652 64v-64h-563v64l166 52v1133l-166 51v65h563v-65l-166 -51v-1133z" />
    <glyph glyph-name="J" unicode="J" horiz-adv-x="972" 
d="M748 430q0 -105 -35 -188t-100 -141.5t-156 -90t-204 -31.5q-81 0 -133.5 18t-78 50t-25.5 74q0 43 25.5 72.5t72.5 29.5q18 0 40 -17t49 -38.5t59.5 -38t72.5 -16.5q83 0 131.5 54.5t48.5 187.5v894l-168 51v65h565v-65l-165 -51z" />
    <glyph glyph-name="K" unicode="K" horiz-adv-x="1545" 
d="M1397 115l152 -51v-64h-537v52l98 46l-481 543h-221v128h239l474 486l-156 45v65h481v-65l-156 -50l-556 -548l47 102zM486 1249v-1133l165 -52v-64h-562v64l166 52v1133l-166 51v65h563v-65z" />
    <glyph glyph-name="L" unicode="L" horiz-adv-x="1277" 
d="M1150 -70h-63l-102 70h-628l1 130h709l-115 -55l204 376l81 -7zM486 1249v-1249h-397v64l166 52v1133l-166 51v65h563v-65z" />
    <glyph glyph-name="M" unicode="M" horiz-adv-x="2053" 
d="M1831 117l165 -53v-64h-560v64l163 50l-76 1086l13 -2l-481 -1208h-161l-484 1198l13 3l-67 -1075l162 -52v-64h-457v64l161 53l81 1122l-175 61v65h462l450 -1138h-21l451 1138h444v-65l-166 -55z" />
    <glyph glyph-name="N" unicode="N" horiz-adv-x="1597" 
d="M256 115v1122l-171 64v64h434l768 -1133l-60 -72v1089l-178 51v65h474v-65l-164 -51v-1259h-176l-839 1236l45 27v-1138l178 -51v-64h-475v64z" />
    <glyph glyph-name="O" unicode="O" horiz-adv-x="1595" 
d="M801 1387q157 0 285 -51t220.5 -144t142.5 -222t50 -286q0 -156 -51 -285.5t-144.5 -224t-223 -145.5t-286.5 -51t-285 51t-220.5 144t-142 222t-49.5 285q0 157 50.5 286.5t144 224t223 145.5t286.5 51zM806 112q141 0 241.5 63t154.5 182t54 287q0 196 -57 331.5
t-162 206t-248 70.5q-140 0 -241 -62.5t-154.5 -181.5t-53.5 -287q0 -195 57 -331t161.5 -207t247.5 -71z" />
    <glyph glyph-name="P" unicode="P" horiz-adv-x="1299" 
d="M1010 965q0 88 -34.5 148t-115 91t-219.5 31h-317l-4 130h405q188 0 302.5 -50.5t166.5 -139t52 -202.5t-52.5 -206.5t-164.5 -147t-293 -54.5h-418l6 129h402q85 0 148.5 30t99.5 90.5t36 150.5zM486 1365v-1249l166 -52v-64h-563v64l166 52v1133l-166 51v65h397z" />
    <glyph glyph-name="Q" unicode="Q" horiz-adv-x="1595" 
d="M797 -244l-412 333q-101 80 -165 169t-93.5 193.5t-29.5 228.5q0 157 50.5 286.5t144 224t223 145.5t286.5 51t285 -51t220.5 -144t142.5 -222t50 -286q0 -165 -61 -300t-170.5 -227t-257 -128t-320.5 -2l-16 45l380 -246q69 -44 120 -72t96.5 -42.5t97.5 -18t122 1.5
v-77q-36 -9 -76 -17.5t-88 -13.5t-110 -5q-65 0 -115 7.5t-94.5 26.5t-94.5 53t-115 87zM806 114q141 0 241.5 62.5t154.5 181t54 286.5q0 196 -57 331.5t-162 206t-248 70.5q-140 0 -241 -62.5t-154.5 -181.5t-53.5 -287q0 -195 57 -330.5t161.5 -206t247.5 -70.5z" />
    <glyph glyph-name="R" unicode="R" horiz-adv-x="1394" 
d="M718 747q120 0 194 60.5t74 183.5q0 79 -32.5 133.5t-108.5 82.5t-206 28h-315l13 130h412q171 0 274.5 -45t150.5 -122.5t47 -175.5q0 -91 -39 -162.5t-116 -117.5t-193 -63v7q82 -5 131 -28t79 -69t51 -119l76 -244q19 -65 39 -95t49 -38t76 -8v-86
q-114 -7 -183.5 -3.5t-110 23t-63 59t-40.5 105.5l-70 242q-22 78 -44.5 120.5t-59.5 59.5t-102 17h-366l-13 125h396zM486 1365v-1249l164 -52v-64h-561v64l166 52v1133l-166 51v65h397z" />
    <glyph glyph-name="S" unicode="S" horiz-adv-x="1183" 
d="M968 1304l-149 28l114 99h57l45 -467l-88 -6l-154 302l55 -64q-56 39 -115.5 55.5t-130.5 16.5q-133 0 -204.5 -51.5t-71.5 -149.5q0 -64 28.5 -105.5t78 -69.5t113 -48t133.5 -41q71 -20 141.5 -47t130 -70t95.5 -112.5t36 -173.5q0 -141 -68 -234.5t-189.5 -140.5
t-284.5 -47q-108 0 -193.5 12t-175.5 45l-77 377h93l233 -373l-203 140q82 -41 150 -59.5t152 -18.5q117 0 195.5 25.5t117.5 78.5t39 135q0 73 -34.5 119.5t-92 75.5t-127 49.5t-138.5 42.5q-70 21 -133 49t-112.5 70t-78 105t-28.5 155q0 121 59 205.5t169.5 130
t262.5 45.5q98 0 181 -19.5t169 -63.5z" />
    <glyph glyph-name="T" unicode="T" horiz-adv-x="1412" 
d="M589 1302h232v-1186l171 -52v-64h-574v64l171 52v1186zM1220 1235h-1035l92 36l-144 -316l-87 6l52 481h56l129 -99l-108 22h1055l-101 -22l129 99h56l52 -481l-87 -6l-144 316z" />
    <glyph glyph-name="U" unicode="U" horiz-adv-x="1588" 
d="M1234 510v739l-169 51v65h468v-65l-166 -51v-728q0 -177 -65 -298t-189.5 -183t-302.5 -62q-193 0 -324 61.5t-198 186t-67 311.5v712l-166 51v65h563v-65l-166 -51v-714q0 -132 43.5 -218.5t131 -129t218.5 -42.5q127 0 213.5 41t131 122t44.5 202z" />
    <glyph glyph-name="V" unicode="V" horiz-adv-x="1471" 
d="M147 1247l-161 53v65h586v-65l-175 -50l442 -1100h-56l391 1100l-168 50v65h466v-65l-157 -50l-473 -1266h-174z" />
    <glyph glyph-name="W" unicode="W" horiz-adv-x="2057" 
d="M1065 1158l-417 -1169h-184l-305 1259l-160 52v65h577v-65l-172 -50l245 -1055l-50 -2l403 1182h168l436 -1211l-80 -22l236 1108l-170 50v65h460v-65l-152 -50l-296 -1261h-178l-418 1151z" />
    <glyph glyph-name="X" unicode="X" horiz-adv-x="1529" 
d="M757 647l-423 -532l161 -51v-64h-473v64l156 52l506 615l81 40l372 479l-160 50v65h469v-65l-155 -51l-458 -566zM1081 116l-390 506l-29 32l-459 593l-154 53v65h618v-65l-172 -51l337 -443l29 -32l511 -656l154 -54v-64h-618v64z" />
    <glyph glyph-name="Y" unicode="Y" horiz-adv-x="1447" 
d="M145 1248l-152 52v65h605v-65l-169 -50l416 -587l-66 1l352 586l-168 50v65h468v-65l-148 -50l-421 -659v-475l166 -52v-64h-564v64l166 52v468z" />
    <glyph glyph-name="Z" unicode="Z" horiz-adv-x="1317" 
d="M1199 1365v-74l-830 -1201l-67 40h728l148 269l77 -6l-70 -455h-57l-98 62h-924v74l825 1200l77 -39h-696l-147 -279l-78 8l52 467h55l113 -66h892z" />
    <glyph glyph-name="bracketleft" unicode="[" horiz-adv-x="686" 
d="M191 -245v1666h454v-99h-272v-1468h272v-99h-454z" />
    <glyph glyph-name="backslash" unicode="\" horiz-adv-x="828" 
d="M773 0h-148l-571 1365h149z" />
    <glyph glyph-name="bracketright" unicode="]" horiz-adv-x="687" 
d="M495 1421v-1665h-453v99h272v1467h-272v99h453z" />
    <glyph glyph-name="asciicircum" unicode="^" horiz-adv-x="1047" 
d="M499 1262h48l-284 -651h-134l333 754h121l335 -754h-134z" />
    <glyph glyph-name="underscore" unicode="_" horiz-adv-x="821" 
d="M0 -184h821v-118h-821v118z" />
    <glyph glyph-name="grave" unicode="`" horiz-adv-x="1000" 
d="M566 1052h-94l-319 296v33h254z" />
    <glyph glyph-name="a" unicode="a" horiz-adv-x="1004" 
d="M689 581l-4 -96q-123 -23 -199 -46.5t-116.5 -50t-55.5 -57.5t-15 -70q0 -68 37.5 -102t102.5 -34q49 0 89 21.5t63.5 57.5t23.5 80v366q0 82 -39 125.5t-133 43.5q-41 0 -81 -7t-75 -21l54 60q-6 -38 -13 -69t-15.5 -54.5t-19.5 -41.5q-16 -25 -43.5 -34.5t-61.5 -9.5
q-45 0 -69 18t-24 46q0 35 34.5 74t94 73.5t136.5 56t162 21.5q111 0 177.5 -32.5t95.5 -93.5t29 -145v-455q0 -32 9.5 -52.5t28 -30t46.5 -9.5q22 0 46.5 6.5t50.5 18.5v-68q-47 -44 -100.5 -67t-101.5 -23q-59 0 -99.5 25.5t-61.5 75.5t-23 122l8 6q-15 -72 -53.5 -124
t-95.5 -79.5t-128 -27.5q-120 0 -192 61.5t-72 179.5q0 62 25 113t90 93.5t183 80.5t305 75z" />
    <glyph glyph-name="b" unicode="b" horiz-adv-x="1161" 
d="M271 118h87l-158 -131l-84 10l39 238v977q-14 13 -39.5 29t-60 33t-73.5 33v48l361 88h36l-16 -193v-943q0 -66 27 -114.5t78.5 -74t124.5 -25.5q83 0 141.5 41.5t89.5 123t31 199.5q0 109 -33 183t-95 111t-149 37q-52 0 -102 -8.5t-95.5 -25.5t-86.5 -43l-10 81
q67 38 122.5 65.5t102 44.5t86.5 25t76 8q133 0 224.5 -54t138.5 -152t47 -230q0 -122 -37 -219t-104 -164.5t-156 -103t-194 -35.5q-61 0 -116 14.5t-105 45t-98 81.5z" />
    <glyph glyph-name="c" unicode="c" horiz-adv-x="942" 
d="M609 935q102 0 162 -22t85.5 -55t25.5 -67t-15 -60.5t-41.5 -42t-58.5 -15.5q-24 0 -49 15.5t-50 38t-51 45t-51.5 37.5t-50.5 15q-64 0 -117.5 -32t-85 -99t-31.5 -172q0 -123 38.5 -208t112 -128.5t177.5 -43.5q65 0 127.5 20t125.5 59l18 -61q-60 -62 -120.5 -102
t-122 -59.5t-125.5 -19.5q-130 0 -227.5 57.5t-152 160.5t-54.5 240q0 108 35.5 199t103.5 158.5t166.5 104.5t225.5 37z" />
    <glyph glyph-name="d" unicode="d" horiz-adv-x="1184" 
d="M797 621q0 91 -52.5 146.5t-164.5 55.5q-88 0 -149.5 -42t-93.5 -122t-32 -195q0 -113 33.5 -188.5t96 -112.5t148.5 -37q72 0 141.5 20.5t136.5 64.5v-66q-82 -53 -138.5 -86.5t-97 -51t-73 -23.5t-65.5 -6q-133 0 -224 54.5t-137 152.5t-46 229q0 123 40.5 219.5
t112 163.5t164.5 102.5t197 35.5q58 0 109.5 -8.5t104.5 -27.5t114 -51l-125 -43v425q-12 12 -38 26.5t-58 29t-62 26.5v47l347 84h35l-15 -194v-1065q10 -9 27.5 -20t38.5 -22.5t42 -20.5t38 -14v-39l-285 -88h-30l-40 177v464z" />
    <glyph glyph-name="e" unicode="e" horiz-adv-x="988" 
d="M524 935q124 0 207 -51t127.5 -149.5t52.5 -241.5h-672v95l538 17l-79 -42q-4 89 -26 147t-62.5 87.5t-100.5 29.5q-69 0 -120 -34.5t-79 -106t-28 -183.5q0 -119 41 -200t119.5 -122t189.5 -41q48 0 92 9.5t86 27t81 42.5l19 -60q-60 -59 -122 -99t-126.5 -61
t-132.5 -21q-135 0 -236 58t-157.5 162.5t-56.5 244.5q0 141 53.5 252.5t153 175.5t238.5 64z" />
    <glyph glyph-name="f" unicode="f" horiz-adv-x="765" 
d="M277 786l-55 -26l-180 47v46l195 72l72 -12h430l-13 -127h-449zM431 106l168 -47v-59h-525v59l148 46v837q0 131 41.5 225.5t114.5 155.5t168.5 90.5t203.5 29.5q71 0 119 -10t77.5 -27.5t42.5 -40.5t13 -50q0 -48 -32.5 -78.5t-81.5 -30.5q-28 0 -50.5 18t-46.5 41.5
t-56.5 41.5t-79.5 18q-65 0 -115.5 -25.5t-79.5 -82.5t-29 -152v-959z" />
    <glyph glyph-name="g" unicode="g" horiz-adv-x="1056" 
d="M478 -508q-115 0 -200.5 15.5t-141 45.5t-82.5 73t-27 98q0 40 20.5 76t66 65.5t119 51.5t180.5 36h72v-21q-103 -12 -160.5 -37t-80.5 -61t-23 -81q0 -52 29 -88.5t91.5 -55t160.5 -18.5q106 0 179 23t110.5 63t37.5 91q0 35 -15.5 60t-54.5 42t-109.5 27t-179.5 14
q-110 5 -181 22.5t-110.5 45.5t-55.5 64t-16 77q1 74 67.5 124t198.5 68l21 -25q-57 -6 -83.5 -27.5t-26.5 -61.5q0 -23 9.5 -41t39.5 -30.5t91 -20.5t164 -12q106 -5 185 -20.5t131.5 -46.5t79 -79t26.5 -117q0 -95 -62 -172t-181 -122t-289 -45zM480 270q-119 0 -208 41
t-138 116t-49 175q0 102 50 177t139.5 115.5t205.5 40.5q90 0 162 -24.5t124 -70t79.5 -106t27.5 -131.5q0 -101 -50 -176.5t-138.5 -116t-204.5 -40.5zM488 368q80 0 128.5 56t48.5 169q0 122 -49.5 183.5t-141.5 61.5q-81 0 -130.5 -55t-49.5 -170q0 -121 50.5 -183
t143.5 -62zM624 845l-36 74q69 -7 130 -5.5t112 6.5t92.5 10t72.5 5q29 0 44 -18t15 -58q0 -47 -20.5 -74t-47.5 -27q-26 0 -52 12.5t-64 29t-97 30t-149 15.5z" />
    <glyph glyph-name="h" unicode="h" horiz-adv-x="1199" 
d="M674 59l139 43v487q0 55 -20.5 92t-64 56t-109.5 19q-71 0 -135.5 -21t-102.5 -52l-32 41q71 65 123.5 106.5t96 64.5t86.5 31.5t92 8.5q141 0 208 -79.5t67 -245.5v-505l150 -46v-59h-498v59zM539 0h-500v59l148 46v1107q-13 13 -39 29t-60 33t-73 33v48l361 88h35
l-15 -193v-1146l143 -45v-59z" />
    <glyph glyph-name="i" unicode="i" horiz-adv-x="611" 
d="M307 1171q-68 0 -109 37.5t-41 98.5q0 62 41 99t109 37t109 -37t41 -99q0 -61 -41 -98.5t-109 -37.5zM433 935l-11 -202v-628l147 -46v-59h-503v59l147 46v605q-11 12 -36 28t-56 32.5t-61 29.5v45l331 90h42z" />
    <glyph glyph-name="j" unicode="j" horiz-adv-x="549" 
d="M285 1171q-68 0 -109 37.5t-41 98.5q0 62 41 99t109 37t109 -37t41 -99q0 -61 -41 -98.5t-109 -37.5zM191 710q-11 12 -36.5 28t-56 32.5t-60.5 29.5v45l330 90h43l-11 -202v-766q0 -61 -6.5 -106.5t-25 -84.5t-56 -78.5t-100 -89t-155.5 -116.5l-60 71q67 70 106 116
t58 80.5t24.5 68.5t5.5 80v802z" />
    <glyph glyph-name="k" unicode="k" horiz-adv-x="1171" 
d="M603 495l52 91l397 -480l122 -48v-58h-438v58l71 36l-296 357h-171v113h203l261 250l-135 38v61h429v-61l-136 -37zM396 104l144 -45v-59h-501v59l148 46v1107q-13 13 -39 29t-60 33t-73 33v48l361 88h35l-15 -193v-1146z" />
    <glyph glyph-name="l" unicode="l" horiz-adv-x="587" 
d="M398 105l148 -46v-59h-504v59l148 46v1107q-14 13 -39.5 29t-60 33t-73.5 33v48l362 88h35l-16 -193v-1145z" />
    <glyph glyph-name="m" unicode="m" horiz-adv-x="1772" 
d="M421 736v-634l132 -43v-59h-489v59l148 46v591q-18 18 -54 39.5t-100 51.5v37l282 113h33zM1007 667v-565l132 -43v-59h-473v59l133 43v502q0 53 -20.5 86.5t-60 50t-97.5 16.5q-62 0 -122 -18.5t-95 -48.5l-31 46q67 62 116.5 101t90.5 60.5t81 29.5t87 8
q91 0 148.5 -33t84 -93.5t26.5 -141.5zM1594 632v-527l150 -46v-59h-490v59l132 43v501q0 54 -20.5 87.5t-60.5 50t-98 16.5q-62 0 -122.5 -18.5t-95.5 -48.5l-30 45q66 62 116 101.5t91 61t81 29.5t87 8q136 0 198 -77.5t62 -225.5z" />
    <glyph glyph-name="n" unicode="n" horiz-adv-x="1224" 
d="M421 736v-634l139 -43v-59h-496v59l148 46v591q-18 18 -54 39.5t-100 51.5v37l282 113h33zM699 59l139 43v487q0 55 -21 92t-64 56t-110 19q-70 0 -134.5 -21t-102.5 -52l-32 41q70 65 123 106.5t96.5 64.5t86 31.5t92.5 8.5q140 0 207.5 -79.5t67.5 -245.5v-505l149 -46
v-59h-497v59z" />
    <glyph glyph-name="o" unicode="o" horiz-adv-x="1111" 
d="M555 92q78 0 135.5 35t89 109.5t31.5 192.5q0 130 -30 217t-86.5 131t-138.5 44q-78 0 -135.5 -35t-89 -109t-31.5 -193q0 -128 29.5 -215.5t87 -132t138.5 -44.5zM549 -22q-143 0 -249 59t-163.5 165t-57.5 247q0 144 61 253.5t169.5 171t252.5 61.5t249.5 -58.5
t163 -164.5t57.5 -248q0 -144 -60.5 -253.5t-169.5 -171t-253 -61.5z" />
    <glyph glyph-name="p" unicode="p" horiz-adv-x="1196" 
d="M891 449q0 168 -75 253t-203 85q-50 0 -99 -8.5t-94 -25t-85 -41.5l-6 82q65 39 119 65.5t99.5 43.5t84.5 24.5t73 7.5q134 0 225.5 -54.5t138.5 -152t47 -227.5q0 -163 -65.5 -280.5t-175 -180t-241.5 -62.5q-65 0 -121 19t-104 52.5t-87 78.5h76v-509l169 -46v-59h-526
v59l149 45v1079q-13 13 -35.5 27.5t-52.5 30.5t-66 33v37l286 113h33l44 -145v-496q0 -62 28.5 -108.5t80 -71t121.5 -24.5q82 0 140.5 41.5t90 121t31.5 193.5z" />
    <glyph glyph-name="q" unicode="q" horiz-adv-x="1157" 
d="M305 464q0 -113 33.5 -188.5t96 -112.5t148.5 -37q77 0 148 19t135 60v-65q-72 -48 -128 -80t-99.5 -49.5t-80.5 -25t-71 -7.5q-133 0 -224 54.5t-137 152.5t-46 229q0 160 69 277t187 180.5t266 63.5q55 0 107 -10t103.5 -32t106.5 -60l-104 3l185 98l39 -18l-33 -214
v-1084l149 -45v-59h-526v59l168 46v1001q0 91 -55.5 147t-167.5 56q-85 0 -145 -42t-92 -122t-32 -195z" />
    <glyph glyph-name="r" unicode="r" horiz-adv-x="860" 
d="M722 929q56 0 83 -29t27 -77q0 -57 -29 -90t-70 -33q-36 0 -68.5 6.5t-65 12.5t-69.5 6q-24 0 -49 -5t-49.5 -15.5t-47.5 -27.5l-26 41q68 60 121 100.5t96 65t79 35t68 10.5zM421 736v-630l159 -47v-59h-516v59l148 46v591q-14 14 -36.5 28.5t-52.5 30.5t-65 32v37
l297 113h32z" />
    <glyph glyph-name="s" unicode="s" horiz-adv-x="856" 
d="M463 935q69 0 127 -11t127 -38l19 -248h-80l-111 244l100 -95q-48 26 -94 39t-90 13q-89 0 -136.5 -31t-47.5 -89q0 -50 28.5 -79.5t80.5 -49t122 -39.5q52 -15 99.5 -35.5t84.5 -52t58.5 -78.5t21.5 -115q0 -94 -47.5 -159t-134.5 -98.5t-208 -33.5q-71 0 -138.5 10.5
t-120.5 31.5l-41 262h81l136 -262l-129 90q36 -15 68 -23t62.5 -10.5t58.5 -2.5q112 0 170.5 36.5t58.5 109.5q0 44 -21.5 71.5t-58.5 45t-84 31.5t-98 30q-68 22 -118.5 54.5t-78 84t-27.5 130.5q0 86 45.5 145.5t127 90.5t188.5 31z" />
    <glyph glyph-name="t" unicode="t" horiz-adv-x="763" 
d="M388 275q0 -71 42 -104t127 -33q39 0 84.5 7.5t98.5 22.5v-67q-71 -46 -125 -72.5t-97 -37.5t-82 -11q-76 0 -134 26t-90.5 79.5t-32.5 132.5v536l-141 82v41q33 17 64.5 35t61.5 37.5t58 41t55 45t53 49.5h58v-201v-609zM305 786l2 127h405l-11 -127h-396z" />
    <glyph glyph-name="u" unicode="u" horiz-adv-x="1159" 
d="M387 312q0 -56 17 -90t56 -49t106 -15q62 0 122.5 19t95.5 48l31 -47q-66 -62 -115.5 -101.5t-90 -61t-79.5 -29.5t-86 -8q-136 0 -201 77.5t-65 231.5v495l-150 66v61l373 18l-14 -131v-484zM804 -19l-39 189v617l-134 63v61l357 16l-14 -134v-609q10 -9 27.5 -20
t38.5 -22.5t42 -20.5t38 -14v-39l-286 -87h-30z" />
    <glyph glyph-name="v" unicode="v" horiz-adv-x="1135" 
d="M993 815l-341 -831h-142l-380 819l-130 49v61h491v-61l-132 -41l296 -655l-37 -1l251 659l-129 38v61h362v-61z" />
    <glyph glyph-name="w" unicode="w" horiz-adv-x="1584" 
d="M1328 814l-128 38v61h354v-61l-107 -36l-245 -832h-142l-290 755l57 9l-295 -764h-142l-251 819l-130 49v61h475v-61l-130 -41l193 -652l-54 1l290 769h130l291 -764h-50z" />
    <glyph glyph-name="x" unicode="x" horiz-adv-x="1091" 
d="M957 107l120 -47v-60h-471v60l112 39l-229 293l-24 28l-308 386l-120 47v60h472v-60l-113 -39l207 -266l24 -27zM542 418l-269 -322l120 -35v-61h-366v61l109 37l335 383l72 34l252 303l-119 35v60h362v-60l-108 -37l-316 -364z" />
    <glyph glyph-name="y" unicode="y" horiz-adv-x="1126" 
d="M679 156l-122 -212l-416 859l-131 49v61h493v-61l-133 -41zM260 -508q-71 0 -112 34t-41 95q0 29 11.5 52t29 36t33.5 13q19 0 42 -8t50 -16t56 -8q33 0 59.5 14t50.5 46.5t49 88.5l91 216l42 99l247 661l-129 37v61h364v-61l-108 -36l-411 -1013q-48 -118 -95 -186
t-102.5 -96.5t-126.5 -28.5z" />
    <glyph glyph-name="z" unicode="z" horiz-adv-x="936" 
d="M75 0v51l556 815l77 -60l-553 -4l137 83l-146 -269h-71l41 319h54l66 -22h621v-50l-562 -818l-65 62l499 5l-86 -74l176 276h71l-74 -314h-741z" />
    <glyph glyph-name="braceleft" unicode="{" horiz-adv-x="675" 
d="M42 541v92l80 3q72 2 105 33t33 95q0 73 -13.5 136.5t-26.5 122t-13 119.5q0 68 33.5 130t101.5 104.5t169 51.5l105 10l10 -88l-68 -9q-90 -11 -123 -61t-33 -124q0 -78 14.5 -164t14.5 -182q0 -83 -52 -147.5t-168 -90.5v30q116 -26 168 -90.5t52 -147.5
q0 -95 -14.5 -181.5t-14.5 -164.5q0 -73 33 -123.5t123 -61.5l68 -9l-10 -88l-105 10q-101 9 -169 51.5t-101.5 104.5t-33.5 130q0 61 13 120t26.5 122t13.5 136q0 64 -33 95t-105 33z" />
    <glyph glyph-name="bar" unicode="|" horiz-adv-x="522" 
d="M192 -508v2000h138v-2000h-138z" />
    <glyph glyph-name="braceright" unicode="}" horiz-adv-x="675" 
d="M632 634v-93l-79 -3q-72 -2 -105 -32.5t-33 -95.5q0 -73 13.5 -136t26.5 -122t13 -119q0 -68 -34 -130.5t-101 -105t-169 -51.5l-106 -10l-9 88l68 9q89 11 122 61.5t33 124.5q0 77 -14 163.5t-14 181.5q0 84 52 148.5t167 89.5v-30q-115 26 -167 90.5t-52 147.5
q0 96 14 182t14 164q0 74 -33 124t-122 62l-68 8l9 88l106 -10q102 -9 169 -51.5t101 -104t34 -130.5q0 -60 -13 -119t-26.5 -122.5t-13.5 -136.5q0 -64 33 -94.5t105 -33.5z" />
    <glyph glyph-name="asciitilde" unicode="~" horiz-adv-x="1047" 
d="M134 339q1 95 29 151.5t77 81t112 24.5q61 0 105 -21.5t79.5 -49.5t69 -49t73.5 -21q56 0 80.5 31.5t28.5 100.5h126q-1 -95 -29 -151.5t-76.5 -81t-111.5 -24.5q-62 0 -106 21.5t-79.5 49.5t-68.5 49t-73 21q-56 0 -80.5 -31.5t-28.5 -100.5h-127z" />
    <glyph glyph-name="uni00A0" unicode="&#xa0;" horiz-adv-x="463" 
 />
    <glyph glyph-name="exclamdown" unicode="&#xa1;" horiz-adv-x="540" 
d="M145 -414l2 115q1 26 4.5 71.5t9.5 107.5t14 134t16 150.5t16.5 158t15.5 155.5h94q7 -76 15 -155.5t16.5 -158t16 -150.5t13.5 -134t10 -107.5t4 -71.5l3 -115q0 -21 -14.5 -34.5t-42.5 -20.5t-68 -7t-68 7t-43 20.5t-14 34.5zM270 638q-66 0 -107.5 40t-41.5 103
q0 64 41.5 104.5t107.5 40.5q67 0 108 -40.5t41 -104.5q0 -63 -41 -103t-108 -40z" />
    <glyph glyph-name="cent" unicode="&#xa2;" horiz-adv-x="1210" 
d="M372 0l461 1365h101l-461 -1365h-101zM733 1157q92 0 152.5 -19.5t90.5 -52.5t30 -72q0 -32 -15 -58.5t-41 -42.5t-60 -16q-23 0 -48 15t-50.5 37.5l-51 45t-51.5 37.5t-51 15q-62 0 -114 -32.5t-83 -99t-31 -170.5q0 -124 38.5 -209t112 -128.5t177.5 -43.5
q65 0 127.5 20t125.5 59l18 -61q-61 -61 -121.5 -101.5t-121.5 -60t-125 -19.5q-130 0 -227.5 57.5t-152 160.5t-54.5 240q0 108 35 199t102.5 158.5t165 104.5t223.5 37z" />
    <glyph glyph-name="sterling" unicode="&#xa3;" horiz-adv-x="1210" 
d="M971 932q-31 148 -106 220t-200 72q-133 0 -197.5 -64.5t-64.5 -166.5q0 -55 18 -102.5t44.5 -89.5t52.5 -81.5t44 -80t18 -84.5q0 -54 -32 -123t-92.5 -144.5t-147.5 -152.5l-1 68h690l-142 -70l200 286h69l-92 -461h-55l-91 42h-737v59q78 85 128.5 148t78 109t38.5 80
t11 62q0 59 -24 105.5t-58.5 90.5t-69.5 92.5t-58.5 109.5t-23.5 144q1 77 31 146.5t87.5 123.5t143.5 85.5t197 31.5q128 0 220.5 -47t148 -143.5t72.5 -245.5zM875 736v-101h-794v101h794z" />
    <glyph glyph-name="currency" unicode="&#xa4;" horiz-adv-x="970" 
d="M215 818l124 -124l-85 -85l-124 125zM130 192l125 126l85 -85l-125 -125zM485 763q89 0 157.5 -37.5t107 -105.5t38.5 -157q0 -88 -38.5 -156t-107 -106t-157.5 -38t-157.5 38t-107 106t-38.5 156q0 89 38.5 157t107 105.5t157.5 37.5zM485 271q84 0 136.5 53t52.5 139
q0 87 -52.5 140t-136.5 53q-83 0 -136 -53t-53 -140q0 -86 53 -139t136 -53zM841 734l-126 -126l-85 85l126 125zM841 192l-85 -84l-123 122l86 85z" />
    <glyph glyph-name="yen" unicode="&#xa5;" horiz-adv-x="1210" 
d="M1078 591v-100h-917v100h917zM1078 879v-100h-917v100h917zM735 861v-750l184 -50v-61h-594v61l188 50v745l-420 399l-157 48v62h588v-62l-152 -45l351 -351l-61 5l317 347l-149 44v62h437v-62l-152 -46z" />
    <glyph glyph-name="brokenbar" unicode="&#xa6;" horiz-adv-x="522" 
d="M330 704h-138v788h138v-788zM192 -508v805h138v-805h-138z" />
    <glyph glyph-name="section" unicode="&#xa7;" horiz-adv-x="1146" 
d="M521 -266q-136 0 -214.5 23t-111 59.5t-32.5 78.5q0 45 32 72.5t77 27.5q30 0 55 -23.5t54 -55t70.5 -55.5t104.5 -24q105 0 158.5 41t53.5 110q0 59 -36.5 95.5t-97.5 59.5t-133.5 42t-145.5 42t-134 58t-98 91.5t-37 142.5q0 130 90.5 214t277.5 110l65 -56
q-129 -17 -187.5 -71.5t-58.5 -131.5q0 -62 37 -99t97 -60.5t132.5 -41.5t145 -40t133 -57t97 -92t36.5 -146q0 -92 -47.5 -163t-143.5 -111t-239 -40zM872 548q0 61 -37 98t-97.5 60t-132.5 40.5t-144.5 38.5t-133 55.5t-97.5 91.5t-37 146q0 93 49.5 162t147 108t243.5 39
q137 0 215 -23t110.5 -59.5t32.5 -78.5q0 -45 -31.5 -73t-76.5 -28q-31 0 -55.5 24t-53.5 55.5t-70.5 55t-105.5 23.5q-110 0 -165.5 -40.5t-55.5 -109.5q0 -57 36.5 -91.5t97.5 -57t133.5 -40.5t145.5 -40.5t134 -57.5t97.5 -91t36.5 -143q0 -140 -96 -220t-272 -105
l-72 55q131 17 192.5 71t61.5 135z" />
    <glyph glyph-name="dieresis" unicode="&#xa8;" horiz-adv-x="1000" 
d="M299 1099q-59 0 -92 33.5t-33 85.5t33 84.5t92 32.5q57 0 90 -32.5t33 -84.5t-33 -85.5t-90 -33.5zM702 1099q-58 0 -91 33.5t-33 85.5t33 84.5t91 32.5t91 -32.5t33 -84.5t-33 -85.5t-91 -33.5z" />
    <glyph glyph-name="copyright" unicode="&#xa9;" horiz-adv-x="1654" 
d="M827 1387q159 0 289.5 -50t225 -143t145.5 -222.5t51 -289.5q0 -159 -51 -288.5t-145.5 -222.5t-225 -143t-289.5 -50q-160 0 -290.5 50t-225 143t-145.5 222.5t-51 288.5q0 160 51 289.5t145.5 222.5t225 143t290.5 50zM827 1288q-179 0 -314 -75t-210.5 -211
t-75.5 -320t75.5 -320t210.5 -210.5t314 -74.5t314 74.5t210 210.5t75 320t-75 320t-210 211t-314 75zM906 385q39 0 79.5 7t81.5 25l-74 -69l106 204h53l-36 -224q-55 -18 -116.5 -27.5t-125.5 -9.5q-137 0 -235 45.5t-151 133t-53 211.5q0 122 52.5 212.5t153.5 140.5
t243 50q47 0 89.5 -6t92.5 -20l-53 -11l72 61h33l26 -295l-54 -6l-96 205l62 -68q-44 24 -84 34t-87 10q-129 0 -196.5 -71t-67.5 -211q0 -103 36 -175t100.5 -109t148.5 -37z" />
    <glyph glyph-name="ordfeminine" unicode="&#xaa;" horiz-adv-x="931" 
d="M130 470v115h684v-115h-684zM586 1056q-84 -16 -137 -32t-81.5 -34t-39.5 -39t-11 -47q0 -46 27 -69t75 -23q53 0 85.5 34t32.5 82v251q0 56 -29 87t-96 31q-29 0 -60 -6t-62 -18l47 54q-8 -50 -16 -78.5t-22 -46.5q-15 -17 -34.5 -25t-48.5 -8q-33 0 -50.5 12.5
t-17.5 33.5q0 39 49 78.5t125 66t158 26.5q86 0 136 -23t72 -67.5t22 -111.5v-314q0 -36 12 -51t38 -15q15 0 30.5 3.5t32.5 9.5v-60q-40 -27 -73 -38.5t-68 -11.5q-67 0 -101.5 41.5t-35.5 121.5l8 1q-22 -83 -75.5 -124.5t-131.5 -41.5q-93 0 -147.5 43.5t-54.5 129.5
q0 45 18 80.5t65 66t132 58t219 55.5z" />
    <glyph glyph-name="guillemotleft" unicode="&#xab;" horiz-adv-x="1084" 
d="M269 530l286 -444l-67 -58l-418 391v86l418 391l67 -58l-286 -444v136zM713 530l286 -444l-67 -58l-418 391v86l418 391l67 -58l-286 -444v136z" />
    <glyph glyph-name="logicalnot" unicode="&#xac;" horiz-adv-x="1047" 
d="M127 703h782v-124h-782v124zM909 650v-429h-124v429h124z" />
    <glyph glyph-name="uni00AD" unicode="&#xad;" horiz-adv-x="740" 
d="M127 547h486v-162h-486v162z" />
    <glyph glyph-name="registered" unicode="&#xae;" horiz-adv-x="1119" 
d="M557 1387q135 0 236 -54t157 -150.5t56 -227.5q0 -130 -56 -227.5t-157 -151.5t-236 -54q-133 0 -233 54t-155 151.5t-55 227.5q0 131 55 227.5t155 150.5t233 54zM557 1308q-110 0 -190 -43.5t-123 -122.5t-43 -187q0 -107 43 -186.5t123 -123.5t190 -44q112 0 193 44
t124.5 123.5t43.5 186.5q0 108 -43.5 187t-124.5 122.5t-193 43.5zM447 989h130q34 0 52.5 16.5t18.5 52.5q0 33 -19 50t-68 17h-116l-6 61h162q86 0 122.5 -30t36.5 -82q0 -43 -31 -75t-100 -38l1 5q49 -1 70 -15.5t30 -49.5l23 -72q8 -29 17.5 -37t31.5 -8v-41
q-59 -4 -91 -1t-46.5 19t-22.5 48l-18 71q-9 33 -21.5 42.5t-41.5 9.5h-115zM403 1137l-54 16v33h163v-392l50 -17v-34h-213v34l54 17v343z" />
    <glyph glyph-name="macron" unicode="&#xaf;" horiz-adv-x="1000" 
d="M223 1156v123h554v-123h-554z" />
    <glyph glyph-name="degree" unicode="&#xb0;" horiz-adv-x="769" 
d="M384 1379q132 0 217 -83.5t85 -215.5t-85 -215.5t-217 -83.5t-216.5 83.5t-84.5 215.5t85 215.5t216 83.5zM384 877q87 0 143 56t56 147t-56 147t-143 56q-86 0 -142.5 -56t-56.5 -147t56.5 -147t142.5 -56z" />
    <glyph glyph-name="plusminus" unicode="&#xb1;" horiz-adv-x="1047" 
d="M461 916h125v-777h-125v777zM135 590h777v-125h-777v125zM135 124h777v-124h-777v124z" />
    <glyph glyph-name="uni00B2" unicode="&#xb2;" horiz-adv-x="736" 
d="M495 695l129 184h50l-50 -292h-34l-58 28h-447v57l195 201q59 58 92.5 101t48 79.5t14.5 74.5q0 49 -35 80.5t-97 31.5q-65 0 -109 -33.5t-69 -110.5l-63 20q32 134 108.5 199t196.5 65q113 0 181.5 -54t68.5 -151q0 -52 -22 -97t-76 -99.5t-151 -132.5l-152 -129l-4 54
h406z" />
    <glyph glyph-name="uni00B3" unicode="&#xb3;" horiz-adv-x="696" 
d="M253 601q-106 0 -148 30.5t-42 69.5q0 30 19.5 48.5t49.5 18.5q18 0 34.5 -12.5t35 -28.5t44 -28t61.5 -12q63 0 108.5 36t45.5 117q0 49 -21 80t-63.5 41t-107.5 -3l-40 -8l-14 68q115 28 153.5 63.5t38.5 86.5q0 41 -26.5 67t-79.5 26q-59 0 -99 -30t-61 -94l-61 24
q30 106 96.5 163t181.5 57q105 0 158 -43t53 -114t-54.5 -119.5t-149.5 -62.5l1 6q85 11 144.5 -7.5t91 -60.5t31.5 -104q0 -79 -44 -141.5t-129 -98t-207 -35.5z" />
    <glyph glyph-name="acute" unicode="&#xb4;" horiz-adv-x="1000" 
d="M434 1052l159 329h254v-33l-319 -296h-94z" />
    <glyph glyph-name="uni00B5" unicode="&#xb5;" horiz-adv-x="1207" 
d="M187 913h208v-601q0 -56 17 -90t56.5 -49t106.5 -15q62 0 122 19t96 48l31 -47q-64 -61 -112 -100t-86.5 -60.5t-73 -30t-72.5 -8.5q-55 0 -96.5 18.5t-69 58t-40.5 103.5l17 10l108 -648l-185 -20h-27v1412zM983 205q0 -30 9.5 -50t28.5 -29.5t46 -9.5q22 0 47 6t50 16
v-68q-47 -44 -100.5 -67t-101.5 -23q-91 0 -139.5 59.5t-48.5 164.5v709h209v-708z" />
    <glyph glyph-name="paragraph" unicode="&#xb6;" horiz-adv-x="1265" 
d="M691 1365v-689h-248q-133 0 -218.5 42t-126.5 118.5t-41 179.5q0 100 40.5 179t128 124.5t229.5 45.5h236zM733 -243h-118v1608h314v-108h-196v-1500zM1009 -243h-117v1608h291v-59l-174 -43v-1506z" />
    <glyph glyph-name="periodcentered" unicode="&#xb7;" horiz-adv-x="526" 
d="M263 612q66 0 107.5 -40.5t41.5 -105.5q0 -64 -41.5 -104.5t-107.5 -40.5q-65 0 -106.5 40.5t-41.5 104.5q0 65 41.5 105.5t106.5 40.5z" />
    <glyph glyph-name="cedilla" unicode="&#xb8;" horiz-adv-x="1000" 
d="M404 -508q-82 0 -115.5 25t-33.5 61q0 26 16.5 41.5t39.5 15.5q22 0 41 -16t41.5 -32.5t55.5 -16.5q47 0 73.5 22t26.5 62q0 30 -19 52t-68.5 38t-140.5 29v20l190 250h94l-185 -249l-4 96q102 -17 157 -45t76 -63.5t21 -78.5q0 -64 -35.5 -111.5t-96 -73.5t-134.5 -26z
" />
    <glyph glyph-name="uni00B9" unicode="&#xb9;" horiz-adv-x="582" 
d="M240 696v609l44 -73l-222 -70l-22 60l273 145h101v-671l117 -31v-50h-417v50z" />
    <glyph glyph-name="ordmasculine" unicode="&#xba;" horiz-adv-x="946" 
d="M148 468v120h650v-120h-650zM475 809q78 0 124.5 53t46.5 168q0 123 -45.5 186.5t-127.5 63.5q-79 0 -125 -53.5t-46 -167.5q0 -122 45 -186t128 -64zM469 705q-106 0 -184.5 41t-121 116t-42.5 176q0 105 44.5 183.5t125 121t188.5 42.5q106 0 183.5 -41t120 -116.5
t42.5 -177.5q0 -105 -44.5 -182.5t-124 -120t-187.5 -42.5z" />
    <glyph glyph-name="guillemotright" unicode="&#xbb;" horiz-adv-x="1117" 
d="M382 395l-286 444l68 58l417 -391v-86l-417 -392l-68 59l286 444v-136zM826 395l-286 444l68 58l417 -391v-86l-417 -392l-68 59l286 444v-136z" />
    <glyph glyph-name="onequarter" unicode="&#xbc;" horiz-adv-x="1580" 
d="M263 696v609l44 -73l-222 -70l-22 60l273 145h101v-671l117 -31v-50h-417v50zM276 0l947 1365h133l-947 -1365h-133zM1151 660l50 15l-312 -384l-11 46h518l126 21l-40 -141h-668v82l357 453h154v-671l116 -31v-50h-416v50l126 31v579z" />
    <glyph glyph-name="onehalf" unicode="&#xbd;" horiz-adv-x="1632" 
d="M273 0l947 1365h133l-947 -1365h-133zM1385 80l129 184h50l-50 -292h-34l-58 28h-447v57l195 201q59 58 92.5 101t48 79.5t14.5 74.5q0 49 -35 80.5t-97 31.5q-65 0 -109 -33.5t-69 -110.5l-63 20q32 134 108.5 199t196.5 65q113 0 181.5 -54t68.5 -151q0 -52 -22 -97
t-76 -99.5t-151 -132.5l-152 -129l-4 54h406zM260 696v609l44 -73l-222 -70l-22 60l273 145h101v-671l117 -31v-50h-417v50z" />
    <glyph glyph-name="threequarters" unicode="&#xbe;" horiz-adv-x="1569" 
d="M264 0l947 1365h133l-947 -1365h-133zM272 601q-106 0 -148 30.5t-42 69.5q0 30 19.5 48.5t49.5 18.5q18 0 34.5 -12.5t35 -28.5t44 -28t61.5 -12q63 0 108.5 36t45.5 117q0 49 -21 80t-63.5 41t-107.5 -3l-40 -8l-14 68q115 28 153.5 63.5t38.5 86.5q0 41 -26.5 67
t-79.5 26q-59 0 -99 -30t-61 -94l-61 24q30 106 96.5 163t181.5 57q105 0 158 -43t53 -114t-54.5 -119.5t-149.5 -62.5l1 6q85 11 144.5 -7.5t91 -60.5t31.5 -104q0 -79 -44 -141.5t-129 -98t-207 -35.5zM1139 660l50 15l-312 -384l-11 46h518l126 21l-40 -141h-668v82
l357 453h154v-671l116 -31v-50h-416v50l126 31v579z" />
    <glyph glyph-name="questiondown" unicode="&#xbf;" horiz-adv-x="979" 
d="M610 -476q-117 0 -212.5 29t-164 83t-105 131t-36.5 172q0 106 44.5 183t149 119t284.5 41l-67 -114l15 313h88l66 -363q-146 7 -234 -17.5t-128.5 -76.5t-40.5 -130q0 -72 29.5 -126t87 -83.5t140.5 -29.5q60 0 101 18.5t72 43.5t59 44t63 19q34 0 60 -14t41 -38t15 -56
q0 -40 -32.5 -74t-104.5 -54t-190 -20zM558 638q-66 0 -107.5 40t-41.5 103q0 64 41.5 104.5t107.5 40.5t107.5 -40.5t41.5 -104.5q0 -63 -41.5 -103t-107.5 -40z" />
    <glyph glyph-name="Agrave" unicode="&#xc0;" horiz-adv-x="1513" 
d="M380 472v126h686v-126h-686zM1362 117l161 -53v-64h-584v64l174 51l-449 1100h55l-418 -1100l167 -51v-64h-472v64l158 51l506 1266h174zM798 1499h-94l-293 237v31h257z" />
    <glyph glyph-name="Aacute" unicode="&#xc1;" horiz-adv-x="1513" 
d="M380 472v126h686v-126h-686zM1362 117l161 -53v-64h-584v64l174 51l-449 1100h55l-418 -1100l167 -51v-64h-472v64l158 51l506 1266h174zM692 1499l130 268h257v-31l-293 -237h-94z" />
    <glyph glyph-name="Acircumflex" unicode="&#xc2;" horiz-adv-x="1513" 
d="M380 472v126h686v-126h-686zM1362 117l161 -53v-64h-584v64l174 51l-449 1100h55l-418 -1100l167 -51v-64h-472v64l158 51l506 1266h174zM724 1653h42l-219 -154h-123l227 268h188l227 -268h-123z" />
    <glyph glyph-name="Atilde" unicode="&#xc3;" horiz-adv-x="1513" 
d="M380 472v126h686v-126h-686zM1362 117l161 -53v-64h-584v64l174 51l-449 1100h55l-418 -1100l167 -51v-64h-472v64l158 51l506 1266h174zM1048 1764q-18 -110 -40.5 -168t-55.5 -79.5t-83 -21.5q-39 0 -74 18.5t-67 43.5t-60 43.5t-53 18.5q-18 0 -31.5 -8.5t-25 -33.5
t-23.5 -75h-96q19 110 41.5 168t55.5 79.5t82 21.5q39 0 74 -18.5t67 -43.5t60 -43.5t52 -18.5q19 0 32.5 8.5t25.5 34t23 74.5h96z" />
    <glyph glyph-name="Adieresis" unicode="&#xc4;" horiz-adv-x="1513" 
d="M380 472v126h686v-126h-686zM1362 117l161 -53v-64h-584v64l174 51l-449 1100h55l-418 -1100l167 -51v-64h-472v64l158 51l506 1266h174zM539 1515q-58 0 -91 33.5t-33 85.5t33 84.5t91 32.5t91 -32.5t33 -84.5t-33 -85.5t-91 -33.5zM951 1515q-58 0 -91 33.5t-33 85.5
t33 84.5t91 32.5t91 -32.5t33 -84.5t-33 -85.5t-91 -33.5z" />
    <glyph glyph-name="Aring" unicode="&#xc5;" horiz-adv-x="1513" 
d="M380 472v126h686v-126h-686zM1362 117l161 -53v-64h-584v64l174 51l-449 1100h55l-418 -1100l167 -51v-64h-472v64l158 51l506 1266h174zM744 1815q81 0 132 -50.5t51 -130.5q0 -79 -51 -129.5t-132 -50.5q-80 0 -131.5 50.5t-51.5 129.5q0 80 51.5 130.5t131.5 50.5z
M744 1519q51 0 82.5 32t31.5 83q0 53 -31.5 85t-82.5 32t-82 -32t-31 -85q0 -51 31 -83t82 -32z" />
    <glyph glyph-name="AE" unicode="&#xc6;" horiz-adv-x="2103" 
d="M481 479v125h608v-125h-608zM935 1365h108v-70l-746 -1180l167 -51v-64h-481v64l160 51zM688 1300v65h279l-56 -133zM1712 973v-259v-260h-102l-20 198h-483v125h483l20 196h102zM1992 980l-84 -7l-153 317l74 -53h-722v128h680l106 61h53zM1766 72l186 343l80 -8
l-78 -475h-59l-99 68h-689v127h720zM838 0v64l166 52v1249h232v-1365h-398z" />
    <glyph glyph-name="Ccedilla" unicode="&#xc7;" horiz-adv-x="1450" 
d="M902 107q79 0 155.5 14t151.5 43l-88 -70l152 307h84l-39 -343q-78 -36 -195 -58t-249 -22q-182 0 -326 45.5t-245 134t-153.5 217.5t-52.5 296q1 219 95.5 380t273 248.5t431.5 87.5q77 0 148 -10.5t157 -33.5l-68 -10l116 98h58l41 -495l-88 -7l-149 317l64 -74
q-84 48 -155 65.5t-155 17.5q-132 0 -231 -34t-164 -100t-98 -162.5t-35 -222.5q-1 -155 39.5 -272.5t115.5 -197t179.5 -119.5t229.5 -40zM710 -508q-82 0 -115.5 25t-33.5 61q0 26 16.5 41.5t39.5 15.5q22 0 40.5 -16t41 -32.5t56.5 -16.5q47 0 73 22t26 62q0 30 -19 52
t-68 38t-141 29v20l191 250h94l-185 -249l-4 96q101 -17 156 -45t76.5 -63.5t21.5 -78.5q0 -64 -35.5 -111.5t-96 -73.5t-134.5 -26z" />
    <glyph glyph-name="Egrave" unicode="&#xc8;" horiz-adv-x="1354" 
d="M962 973v-259v-260h-101l-21 198h-483v125h483l21 196h101zM1243 980l-85 -7l-152 317l73 -53h-722v128h680l107 61h52zM1016 72l187 343l79 -8l-77 -475h-59l-99 68h-690v127h720zM89 0v64l166 52v1133l-166 51v65h397v-1365h-397zM742 1499h-94l-293 237v31h257z" />
    <glyph glyph-name="Eacute" unicode="&#xc9;" horiz-adv-x="1354" 
d="M962 973v-259v-260h-101l-21 198h-483v125h483l21 196h101zM1243 980l-85 -7l-152 317l73 -53h-722v128h680l107 61h52zM1016 72l187 343l79 -8l-77 -475h-59l-99 68h-690v127h720zM89 0v64l166 52v1133l-166 51v65h397v-1365h-397zM636 1499l130 268h257v-31l-293 -237
h-94z" />
    <glyph glyph-name="Ecircumflex" unicode="&#xca;" horiz-adv-x="1354" 
d="M962 973v-259v-260h-101l-21 198h-483v125h483l21 196h101zM1243 980l-85 -7l-152 317l73 -53h-722v128h680l107 61h52zM1016 72l187 343l79 -8l-77 -475h-59l-99 68h-690v127h720zM89 0v64l166 52v1133l-166 51v65h397v-1365h-397zM668 1653h42l-219 -154h-123l227 268
h188l227 -268h-123z" />
    <glyph glyph-name="Edieresis" unicode="&#xcb;" horiz-adv-x="1354" 
d="M962 973v-259v-260h-101l-21 198h-483v125h483l21 196h101zM1243 980l-85 -7l-152 317l73 -53h-722v128h680l107 61h52zM1016 72l187 343l79 -8l-77 -475h-59l-99 68h-690v127h720zM89 0v64l166 52v1133l-166 51v65h397v-1365h-397zM483 1515q-58 0 -91 33.5t-33 85.5
t33 84.5t91 32.5t91 -32.5t33 -84.5t-33 -85.5t-91 -33.5zM895 1515q-58 0 -91 33.5t-33 85.5t33 84.5t91 32.5t91 -32.5t33 -84.5t-33 -85.5t-91 -33.5z" />
    <glyph glyph-name="Igrave" unicode="&#xcc;" horiz-adv-x="741" 
d="M652 64v-64h-563v64l166 52v1133l-166 51v65h563v-65l-166 -51v-1133zM424 1499h-94l-293 237v31h257z" />
    <glyph glyph-name="Iacute" unicode="&#xcd;" horiz-adv-x="741" 
d="M652 64v-64h-563v64l166 52v1133l-166 51v65h563v-65l-166 -51v-1133zM318 1499l130 268h257v-31l-293 -237h-94z" />
    <glyph glyph-name="Icircumflex" unicode="&#xce;" horiz-adv-x="741" 
d="M652 64v-64h-563v64l166 52v1133l-166 51v65h563v-65l-166 -51v-1133zM350 1653h42l-219 -154h-123l227 268h188l227 -268h-123z" />
    <glyph glyph-name="Idieresis" unicode="&#xcf;" horiz-adv-x="741" 
d="M652 64v-64h-563v64l166 52v1133l-166 51v65h563v-65l-166 -51v-1133zM165 1515q-58 0 -91 33.5t-33 85.5t33 84.5t91 32.5t91 -32.5t33 -84.5t-33 -85.5t-91 -33.5zM577 1515q-58 0 -91 33.5t-33 85.5t33 84.5t91 32.5t91 -32.5t33 -84.5t-33 -85.5t-91 -33.5z" />
    <glyph glyph-name="Eth" unicode="&#xd0;" horiz-adv-x="1583" 
d="M92 632v117h704v-117h-704zM1241 700q0 274 -150 404.5t-431 130.5h-296l-8 130h358q258 0 429 -72t256.5 -215.5t85.5 -358.5q0 -230 -99.5 -390.5t-273.5 -244.5t-399 -84h-357l8 130h326q170 0 293.5 58.5t190.5 184t67 327.5zM92 0v64l166 52v1133l-166 51v65h397
v-1365h-397z" />
    <glyph glyph-name="Ntilde" unicode="&#xd1;" horiz-adv-x="1597" 
d="M256 115v1122l-171 64v64h434l768 -1133l-60 -72v1089l-178 51v65h474v-65l-164 -51v-1259h-176l-839 1236l45 27v-1138l178 -51v-64h-475v64zM1127 1764q-18 -110 -40.5 -168t-55.5 -79.5t-83 -21.5q-39 0 -74 18.5t-67 43.5t-60 43.5t-53 18.5q-18 0 -31.5 -8.5
t-25 -33.5t-23.5 -75h-96q19 110 41.5 168t55.5 79.5t82 21.5q39 0 74 -18.5t67 -43.5t60 -43.5t52 -18.5q19 0 32.5 8.5t25.5 34t23 74.5h96z" />
    <glyph glyph-name="Ograve" unicode="&#xd2;" horiz-adv-x="1595" 
d="M801 1387q157 0 285 -51t220.5 -144t142.5 -222t50 -286q0 -156 -51 -285.5t-144.5 -224t-223 -145.5t-286.5 -51t-285 51t-220.5 144t-142 222t-49.5 285q0 157 50.5 286.5t144 224t223 145.5t286.5 51zM806 112q141 0 241.5 63t154.5 182t54 287q0 196 -57 331.5
t-162 206t-248 70.5q-140 0 -241 -62.5t-154.5 -181.5t-53.5 -287q0 -195 57 -331t161.5 -207t247.5 -71zM850 1499h-94l-293 237v31h257z" />
    <glyph glyph-name="Oacute" unicode="&#xd3;" horiz-adv-x="1595" 
d="M801 1387q157 0 285 -51t220.5 -144t142.5 -222t50 -286q0 -156 -51 -285.5t-144.5 -224t-223 -145.5t-286.5 -51t-285 51t-220.5 144t-142 222t-49.5 285q0 157 50.5 286.5t144 224t223 145.5t286.5 51zM806 112q141 0 241.5 63t154.5 182t54 287q0 196 -57 331.5
t-162 206t-248 70.5q-140 0 -241 -62.5t-154.5 -181.5t-53.5 -287q0 -195 57 -331t161.5 -207t247.5 -71zM744 1499l130 268h257v-31l-293 -237h-94z" />
    <glyph glyph-name="Ocircumflex" unicode="&#xd4;" horiz-adv-x="1595" 
d="M801 1387q157 0 285 -51t220.5 -144t142.5 -222t50 -286q0 -156 -51 -285.5t-144.5 -224t-223 -145.5t-286.5 -51t-285 51t-220.5 144t-142 222t-49.5 285q0 157 50.5 286.5t144 224t223 145.5t286.5 51zM806 112q141 0 241.5 63t154.5 182t54 287q0 196 -57 331.5
t-162 206t-248 70.5q-140 0 -241 -62.5t-154.5 -181.5t-53.5 -287q0 -195 57 -331t161.5 -207t247.5 -71zM776 1653h42l-219 -154h-123l227 268h188l227 -268h-123z" />
    <glyph glyph-name="Otilde" unicode="&#xd5;" horiz-adv-x="1595" 
d="M801 1387q157 0 285 -51t220.5 -144t142.5 -222t50 -286q0 -156 -51 -285.5t-144.5 -224t-223 -145.5t-286.5 -51t-285 51t-220.5 144t-142 222t-49.5 285q0 157 50.5 286.5t144 224t223 145.5t286.5 51zM806 112q141 0 241.5 63t154.5 182t54 287q0 196 -57 331.5
t-162 206t-248 70.5q-140 0 -241 -62.5t-154.5 -181.5t-53.5 -287q0 -195 57 -331t161.5 -207t247.5 -71zM1100 1764q-18 -110 -40.5 -168t-55.5 -79.5t-83 -21.5q-39 0 -74 18.5t-67 43.5t-60 43.5t-53 18.5q-18 0 -31.5 -8.5t-25 -33.5t-23.5 -75h-96q19 110 41.5 168
t55.5 79.5t82 21.5q39 0 74 -18.5t67 -43.5t60 -43.5t52 -18.5q19 0 32.5 8.5t25.5 34t23 74.5h96z" />
    <glyph glyph-name="Odieresis" unicode="&#xd6;" horiz-adv-x="1595" 
d="M801 1387q157 0 285 -51t220.5 -144t142.5 -222t50 -286q0 -156 -51 -285.5t-144.5 -224t-223 -145.5t-286.5 -51t-285 51t-220.5 144t-142 222t-49.5 285q0 157 50.5 286.5t144 224t223 145.5t286.5 51zM806 112q141 0 241.5 63t154.5 182t54 287q0 196 -57 331.5
t-162 206t-248 70.5q-140 0 -241 -62.5t-154.5 -181.5t-53.5 -287q0 -195 57 -331t161.5 -207t247.5 -71zM591 1515q-58 0 -91 33.5t-33 85.5t33 84.5t91 32.5t91 -32.5t33 -84.5t-33 -85.5t-91 -33.5zM1003 1515q-58 0 -91 33.5t-33 85.5t33 84.5t91 32.5t91 -32.5
t33 -84.5t-33 -85.5t-91 -33.5z" />
    <glyph glyph-name="multiply" unicode="&#xd7;" horiz-adv-x="1047" 
d="M175 203l609 608l88 -87l-609 -609zM175 724l88 87l609 -608l-88 -88z" />
    <glyph glyph-name="Oslash" unicode="&#xd8;" horiz-adv-x="1626" 
d="M394 298l770 860l48 51l142 156h164l-221 -242l-61 -57l-770 -860l-48 -50l-142 -156h-164l221 242zM817 1387q156 0 284.5 -51t220.5 -144t142 -222t50 -286q0 -156 -51 -285.5t-144.5 -224t-222.5 -145.5t-287 -51q-157 0 -285 51t-220.5 144t-142 222t-49.5 285
q0 157 50.5 286.5t144.5 224t223 145.5t287 51zM821 112q141 0 241.5 63t154.5 182t54 287q0 196 -57 331.5t-161.5 206t-247.5 70.5q-141 0 -242 -62.5t-154.5 -181.5t-53.5 -287q0 -195 57 -331t162 -207t247 -71z" />
    <glyph glyph-name="Ugrave" unicode="&#xd9;" horiz-adv-x="1588" 
d="M1234 510v739l-169 51v65h468v-65l-166 -51v-728q0 -177 -65 -298t-189.5 -183t-302.5 -62q-193 0 -324 61.5t-198 186t-67 311.5v712l-166 51v65h563v-65l-166 -51v-714q0 -132 43.5 -218.5t131 -129t218.5 -42.5q127 0 213.5 41t131 122t44.5 202zM887 1499h-94
l-293 237v31h257z" />
    <glyph glyph-name="Uacute" unicode="&#xda;" horiz-adv-x="1588" 
d="M1234 510v739l-169 51v65h468v-65l-166 -51v-728q0 -177 -65 -298t-189.5 -183t-302.5 -62q-193 0 -324 61.5t-198 186t-67 311.5v712l-166 51v65h563v-65l-166 -51v-714q0 -132 43.5 -218.5t131 -129t218.5 -42.5q127 0 213.5 41t131 122t44.5 202zM781 1499l130 268
h257v-31l-293 -237h-94z" />
    <glyph glyph-name="Ucircumflex" unicode="&#xdb;" horiz-adv-x="1588" 
d="M1234 510v739l-169 51v65h468v-65l-166 -51v-728q0 -177 -65 -298t-189.5 -183t-302.5 -62q-193 0 -324 61.5t-198 186t-67 311.5v712l-166 51v65h563v-65l-166 -51v-714q0 -132 43.5 -218.5t131 -129t218.5 -42.5q127 0 213.5 41t131 122t44.5 202zM813 1653h42
l-219 -154h-123l227 268h188l227 -268h-123z" />
    <glyph glyph-name="Udieresis" unicode="&#xdc;" horiz-adv-x="1588" 
d="M1234 510v739l-169 51v65h468v-65l-166 -51v-728q0 -177 -65 -298t-189.5 -183t-302.5 -62q-193 0 -324 61.5t-198 186t-67 311.5v712l-166 51v65h563v-65l-166 -51v-714q0 -132 43.5 -218.5t131 -129t218.5 -42.5q127 0 213.5 41t131 122t44.5 202zM628 1515
q-58 0 -91 33.5t-33 85.5t33 84.5t91 32.5t91 -32.5t33 -84.5t-33 -85.5t-91 -33.5zM1040 1515q-58 0 -91 33.5t-33 85.5t33 84.5t91 32.5t91 -32.5t33 -84.5t-33 -85.5t-91 -33.5z" />
    <glyph glyph-name="Yacute" unicode="&#xdd;" horiz-adv-x="1447" 
d="M145 1248l-152 52v65h605v-65l-169 -50l416 -587l-66 1l352 586l-168 50v65h468v-65l-148 -50l-421 -659v-475l166 -52v-64h-564v64l166 52v468zM706 1499l130 268h257v-31l-293 -237h-94z" />
    <glyph glyph-name="Thorn" unicode="&#xde;" horiz-adv-x="1327" 
d="M1010 698q0 87 -34.5 147t-115 91t-219.5 31h-301l-4 130h389q188 0 302.5 -50.5t166.5 -139t52 -201.5q0 -114 -52.5 -206.5t-164.5 -147t-293 -54.5h-402l6 128h386q85 0 148.5 30t99.5 90.5t36 151.5zM652 64v-64h-563v64l166 52v1133l-166 51v65h563v-65l-166 -51
v-1133z" />
    <glyph glyph-name="germandbls" unicode="&#xdf;" horiz-adv-x="1345" 
d="M222 942q0 128 41 222.5t113.5 156t170 92t211.5 30.5q100 0 173.5 -18.5t121.5 -52t72 -79.5t24 -101q0 -65 -30 -111.5t-74.5 -81.5t-89.5 -66.5t-75 -68.5t-30 -88q0 -46 31 -75t79.5 -51t103 -47t103 -61.5t79.5 -95t31 -148.5q0 -100 -46 -171.5t-128.5 -109.5
t-196.5 -38q-67 0 -130.5 10t-115.5 31l-40 263h81l130 -262l-134 90q55 -24 99.5 -30t88.5 -6q104 0 158.5 42t54.5 123q0 64 -30.5 102.5t-79 63.5t-103 47t-103 52t-79 78t-30.5 125q0 67 28 115t69.5 85.5t83 73t70 77.5t28.5 99q0 50 -25.5 90t-76.5 63.5t-129 23.5
q-96 0 -160.5 -33.5t-97 -102t-32.5 -173.5v-921l120 -46v-59h-477v59l148 46v837zM237 925l-15 -165l-180 47v46z" />
    <glyph glyph-name="agrave" unicode="&#xe0;" horiz-adv-x="1004" 
d="M689 581l-4 -96q-123 -23 -199 -46.5t-116.5 -50t-55.5 -57.5t-15 -70q0 -68 37.5 -102t102.5 -34q49 0 89 21.5t63.5 57.5t23.5 80v366q0 82 -39 125.5t-133 43.5q-41 0 -81 -7t-75 -21l54 60q-6 -38 -13 -69t-15.5 -54.5t-19.5 -41.5q-16 -25 -43.5 -34.5t-61.5 -9.5
q-45 0 -69 18t-24 46q0 35 34.5 74t94 73.5t136.5 56t162 21.5q111 0 177.5 -32.5t95.5 -93.5t29 -145v-455q0 -32 9.5 -52.5t28 -30t46.5 -9.5q22 0 46.5 6.5t50.5 18.5v-68q-47 -44 -100.5 -67t-101.5 -23q-59 0 -99.5 25.5t-61.5 75.5t-23 122l8 6q-15 -72 -53.5 -124
t-95.5 -79.5t-128 -27.5q-120 0 -192 61.5t-72 179.5q0 62 25 113t90 93.5t183 80.5t305 75zM540 1052h-94l-319 296v33h254z" />
    <glyph glyph-name="aacute" unicode="&#xe1;" horiz-adv-x="1004" 
d="M689 581l-4 -96q-123 -23 -199 -46.5t-116.5 -50t-55.5 -57.5t-15 -70q0 -68 37.5 -102t102.5 -34q49 0 89 21.5t63.5 57.5t23.5 80v366q0 82 -39 125.5t-133 43.5q-41 0 -81 -7t-75 -21l54 60q-6 -38 -13 -69t-15.5 -54.5t-19.5 -41.5q-16 -25 -43.5 -34.5t-61.5 -9.5
q-45 0 -69 18t-24 46q0 35 34.5 74t94 73.5t136.5 56t162 21.5q111 0 177.5 -32.5t95.5 -93.5t29 -145v-455q0 -32 9.5 -52.5t28 -30t46.5 -9.5q22 0 46.5 6.5t50.5 18.5v-68q-47 -44 -100.5 -67t-101.5 -23q-59 0 -99.5 25.5t-61.5 75.5t-23 122l8 6q-15 -72 -53.5 -124
t-95.5 -79.5t-128 -27.5q-120 0 -192 61.5t-72 179.5q0 62 25 113t90 93.5t183 80.5t305 75zM408 1052l159 329h254v-33l-319 -296h-94z" />
    <glyph glyph-name="acircumflex" unicode="&#xe2;" horiz-adv-x="1004" 
d="M689 581l-4 -96q-123 -23 -199 -46.5t-116.5 -50t-55.5 -57.5t-15 -70q0 -68 37.5 -102t102.5 -34q49 0 89 21.5t63.5 57.5t23.5 80v366q0 82 -39 125.5t-133 43.5q-41 0 -81 -7t-75 -21l54 60q-6 -38 -13 -69t-15.5 -54.5t-19.5 -41.5q-16 -25 -43.5 -34.5t-61.5 -9.5
q-45 0 -69 18t-24 46q0 35 34.5 74t94 73.5t136.5 56t162 21.5q111 0 177.5 -32.5t95.5 -93.5t29 -145v-455q0 -32 9.5 -52.5t28 -30t46.5 -9.5q22 0 46.5 6.5t50.5 18.5v-68q-47 -44 -100.5 -67t-101.5 -23q-59 0 -99.5 25.5t-61.5 75.5t-23 122l8 6q-15 -72 -53.5 -124
t-95.5 -79.5t-128 -27.5q-120 0 -192 61.5t-72 179.5q0 62 25 113t90 93.5t183 80.5t305 75zM160 1052l220 329h188l220 -329h-113l-227 206h52l-227 -206h-113z" />
    <glyph glyph-name="atilde" unicode="&#xe3;" horiz-adv-x="1004" 
d="M689 581l-4 -96q-123 -23 -199 -46.5t-116.5 -50t-55.5 -57.5t-15 -70q0 -68 37.5 -102t102.5 -34q49 0 89 21.5t63.5 57.5t23.5 80v366q0 82 -39 125.5t-133 43.5q-41 0 -81 -7t-75 -21l54 60q-6 -38 -13 -69t-15.5 -54.5t-19.5 -41.5q-16 -25 -43.5 -34.5t-61.5 -9.5
q-45 0 -69 18t-24 46q0 35 34.5 74t94 73.5t136.5 56t162 21.5q111 0 177.5 -32.5t95.5 -93.5t29 -145v-455q0 -32 9.5 -52.5t28 -30t46.5 -9.5q22 0 46.5 6.5t50.5 18.5v-68q-47 -44 -100.5 -67t-101.5 -23q-59 0 -99.5 25.5t-61.5 75.5t-23 122l8 6q-15 -72 -53.5 -124
t-95.5 -79.5t-128 -27.5q-120 0 -192 61.5t-72 179.5q0 62 25 113t90 93.5t183 80.5t305 75zM773 1369q-17 -120 -38.5 -188t-54 -96t-85.5 -28q-43 0 -77.5 24t-63 55.5t-55.5 56t-54 24.5q-17 0 -30.5 -12t-25 -44.5t-24.5 -95.5h-93q17 120 38.5 187.5t54.5 96t84 28.5
q44 0 78 -24.5t63 -56t56 -55.5t54 -24q18 0 31 11.5t24.5 44.5t23.5 96h94z" />
    <glyph glyph-name="adieresis" unicode="&#xe4;" horiz-adv-x="1004" 
d="M689 581l-4 -96q-123 -23 -199 -46.5t-116.5 -50t-55.5 -57.5t-15 -70q0 -68 37.5 -102t102.5 -34q49 0 89 21.5t63.5 57.5t23.5 80v366q0 82 -39 125.5t-133 43.5q-41 0 -81 -7t-75 -21l54 60q-6 -38 -13 -69t-15.5 -54.5t-19.5 -41.5q-16 -25 -43.5 -34.5t-61.5 -9.5
q-45 0 -69 18t-24 46q0 35 34.5 74t94 73.5t136.5 56t162 21.5q111 0 177.5 -32.5t95.5 -93.5t29 -145v-455q0 -32 9.5 -52.5t28 -30t46.5 -9.5q22 0 46.5 6.5t50.5 18.5v-68q-47 -44 -100.5 -67t-101.5 -23q-59 0 -99.5 25.5t-61.5 75.5t-23 122l8 6q-15 -72 -53.5 -124
t-95.5 -79.5t-128 -27.5q-120 0 -192 61.5t-72 179.5q0 62 25 113t90 93.5t183 80.5t305 75zM273 1099q-59 0 -92 33.5t-33 85.5t33 84.5t92 32.5q57 0 90 -32.5t33 -84.5t-33 -85.5t-90 -33.5zM676 1099q-58 0 -91 33.5t-33 85.5t33 84.5t91 32.5t91 -32.5t33 -84.5
t-33 -85.5t-91 -33.5z" />
    <glyph glyph-name="aring" unicode="&#xe5;" horiz-adv-x="1004" 
d="M689 581l-4 -96q-123 -23 -199 -46.5t-116.5 -50t-55.5 -57.5t-15 -70q0 -68 37.5 -102t102.5 -34q49 0 89 21.5t63.5 57.5t23.5 80v366q0 82 -39 125.5t-133 43.5q-41 0 -81 -7t-75 -21l54 60q-6 -38 -13 -69t-15.5 -54.5t-19.5 -41.5q-16 -25 -43.5 -34.5t-61.5 -9.5
q-45 0 -69 18t-24 46q0 35 34.5 74t94 73.5t136.5 56t162 21.5q111 0 177.5 -32.5t95.5 -93.5t29 -145v-455q0 -32 9.5 -52.5t28 -30t46.5 -9.5q22 0 46.5 6.5t50.5 18.5v-68q-47 -44 -100.5 -67t-101.5 -23q-59 0 -99.5 25.5t-61.5 75.5t-23 122l8 6q-15 -72 -53.5 -124
t-95.5 -79.5t-128 -27.5q-120 0 -192 61.5t-72 179.5q0 62 25 113t90 93.5t183 80.5t305 75zM473 1398q81 0 132 -50t51 -130q0 -79 -51 -129.5t-132 -50.5q-80 0 -131.5 50.5t-51.5 129.5q0 80 51.5 130t131.5 50zM473 1103q51 0 82.5 32t31.5 83q0 53 -31.5 85t-82.5 32
t-82 -32t-31 -85q0 -51 31 -83t82 -32z" />
    <glyph glyph-name="ae" unicode="&#xe6;" horiz-adv-x="1525" 
d="M458 819q-44 0 -89 -6.5t-84 -21.5l55 60q-6 -38 -13 -69t-15.5 -54.5t-19.5 -41.5q-16 -25 -43.5 -34.5t-61.5 -9.5q-45 0 -69 18t-24 46q0 35 35.5 74t97.5 73.5t142 56t168 21.5q90 0 148 -23t90.5 -65t44.5 -100h-101q48 88 137.5 140t204.5 52q126 0 209 -52.5
t127 -154.5t51 -250h-656l-1 95l530 17l-86 -27q-5 89 -27 147t-62 87.5t-100 29.5q-65 0 -112.5 -34.5t-73.5 -106t-26 -183.5q0 -119 39.5 -200t114 -122t180.5 -41q49 0 93 9.5t85.5 27t81.5 42.5l18 -60q-60 -60 -123.5 -100.5t-129 -60.5t-135.5 -20
q-107 0 -192.5 36.5t-144 105.5t-87.5 165l32 2q-10 -106 -53 -175t-109 -101.5t-150 -32.5q-122 0 -195.5 62t-73.5 179q0 59 23.5 108.5t88.5 92t187 81t320 77.5l-4 -93q-134 -25 -214.5 -50.5t-121 -52t-53.5 -56.5t-13 -65q0 -68 37.5 -102t102.5 -34q55 0 98.5 21.5
t68.5 63t25 102.5v338q0 82 -39 125.5t-133 43.5z" />
    <glyph glyph-name="ccedilla" unicode="&#xe7;" horiz-adv-x="942" 
d="M609 935q102 0 162 -22t85.5 -55t25.5 -67t-15 -60.5t-41.5 -42t-58.5 -15.5q-24 0 -49 15.5t-50 38t-51 45t-51.5 37.5t-50.5 15q-63 0 -116 -32t-85.5 -99t-32.5 -172q0 -123 38.5 -208t112 -128.5t177.5 -43.5q65 0 127.5 20t125.5 59l18 -61q-60 -62 -120.5 -102
t-122 -59.5t-125.5 -19.5q-130 0 -227.5 57.5t-152 160.5t-54.5 240q0 108 36 199t104 158.5t167 104.5t224 37zM411 -508q-82 0 -115.5 25t-33.5 61q0 26 17 41.5t39 15.5t41 -16t41.5 -32.5t55.5 -16.5q47 0 73.5 22t26.5 62q0 30 -19 52t-68.5 38t-140.5 29v20l191 250
h93l-185 -249l-3 96q101 -17 156 -45t76 -63.5t21 -78.5q0 -64 -35.5 -111.5t-95.5 -73.5t-135 -26z" />
    <glyph glyph-name="egrave" unicode="&#xe8;" horiz-adv-x="988" 
d="M524 935q124 0 207 -51t127.5 -149.5t52.5 -241.5h-672v95l538 17l-79 -42q-4 89 -26 147t-62.5 87.5t-100.5 29.5q-69 0 -120 -34.5t-79 -106t-28 -183.5q0 -119 41 -200t119.5 -122t189.5 -41q48 0 92 9.5t86 27t81 42.5l19 -60q-60 -59 -122 -99t-126.5 -61
t-132.5 -21q-135 0 -236 58t-157.5 162.5t-56.5 244.5q0 141 53.5 252.5t153 175.5t238.5 64zM579 1052h-94l-319 296v33h254z" />
    <glyph glyph-name="eacute" unicode="&#xe9;" horiz-adv-x="988" 
d="M524 935q124 0 207 -51t127.5 -149.5t52.5 -241.5h-672v95l538 17l-79 -42q-4 89 -26 147t-62.5 87.5t-100.5 29.5q-69 0 -120 -34.5t-79 -106t-28 -183.5q0 -119 41 -200t119.5 -122t189.5 -41q48 0 92 9.5t86 27t81 42.5l19 -60q-60 -59 -122 -99t-126.5 -61
t-132.5 -21q-135 0 -236 58t-157.5 162.5t-56.5 244.5q0 141 53.5 252.5t153 175.5t238.5 64zM447 1052l159 329h254v-33l-319 -296h-94z" />
    <glyph glyph-name="ecircumflex" unicode="&#xea;" horiz-adv-x="988" 
d="M524 935q124 0 207 -51t127.5 -149.5t52.5 -241.5h-672v95l538 17l-79 -42q-4 89 -26 147t-62.5 87.5t-100.5 29.5q-69 0 -120 -34.5t-79 -106t-28 -183.5q0 -119 41 -200t119.5 -122t189.5 -41q48 0 92 9.5t86 27t81 42.5l19 -60q-60 -59 -122 -99t-126.5 -61
t-132.5 -21q-135 0 -236 58t-157.5 162.5t-56.5 244.5q0 141 53.5 252.5t153 175.5t238.5 64zM199 1052l220 329h188l220 -329h-113l-227 206h52l-227 -206h-113z" />
    <glyph glyph-name="edieresis" unicode="&#xeb;" horiz-adv-x="988" 
d="M524 935q124 0 207 -51t127.5 -149.5t52.5 -241.5h-672v95l538 17l-79 -42q-4 89 -26 147t-62.5 87.5t-100.5 29.5q-69 0 -120 -34.5t-79 -106t-28 -183.5q0 -119 41 -200t119.5 -122t189.5 -41q48 0 92 9.5t86 27t81 42.5l19 -60q-60 -59 -122 -99t-126.5 -61
t-132.5 -21q-135 0 -236 58t-157.5 162.5t-56.5 244.5q0 141 53.5 252.5t153 175.5t238.5 64zM312 1099q-59 0 -92 33.5t-33 85.5t33 84.5t92 32.5q57 0 90 -32.5t33 -84.5t-33 -85.5t-90 -33.5zM715 1099q-58 0 -91 33.5t-33 85.5t33 84.5t91 32.5t91 -32.5t33 -84.5
t-33 -85.5t-91 -33.5z" />
    <glyph glyph-name="igrave" unicode="&#xec;" horiz-adv-x="611" 
d="M433 935l-11 -202v-628l147 -46v-59h-503v59l147 46v605q-11 12 -36 28t-56 32.5t-61 29.5v45l331 90h42zM369 1052h-94l-319 296v33h254z" />
    <glyph glyph-name="iacute" unicode="&#xed;" horiz-adv-x="611" 
d="M433 935l-11 -202v-628l147 -46v-59h-503v59l147 46v605q-11 12 -36 28t-56 32.5t-61 29.5v45l331 90h42zM237 1052l159 329h254v-33l-319 -296h-94z" />
    <glyph glyph-name="icircumflex" unicode="&#xee;" horiz-adv-x="611" 
d="M433 935l-11 -202v-628l147 -46v-59h-503v59l147 46v605q-11 12 -36 28t-56 32.5t-61 29.5v45l331 90h42zM-11 1052l220 329h188l220 -329h-113l-227 206h52l-227 -206h-113z" />
    <glyph glyph-name="idieresis" unicode="&#xef;" horiz-adv-x="611" 
d="M433 935l-11 -202v-628l147 -46v-59h-503v59l147 46v605q-11 12 -36 28t-56 32.5t-61 29.5v45l331 90h42zM102 1099q-59 0 -92 33.5t-33 85.5t33 84.5t92 32.5q57 0 90 -32.5t33 -84.5t-33 -85.5t-90 -33.5zM505 1099q-58 0 -91 33.5t-33 85.5t33 84.5t91 32.5t91 -32.5
t33 -84.5t-33 -85.5t-91 -33.5z" />
    <glyph glyph-name="eth" unicode="&#xf0;" horiz-adv-x="1132" 
d="M549 -22q-143 0 -249 58t-163.5 163t-57.5 244q0 142 59 249.5t161 167.5t232 60q59 0 109 -15.5t91 -45.5t70.5 -71.5t45.5 -93.5l-27 -19q-6 146 -43.5 253.5t-111.5 186t-191 135t-282 100.5l30 92q193 -40 332 -99t231.5 -139t147 -180.5t77.5 -222t23 -265.5
q0 -188 -60.5 -312t-169 -185t-254.5 -61zM555 91q79 0 136.5 34.5t88.5 108t31 189.5q0 128 -29.5 214t-86.5 129.5t-139 43.5q-78 0 -135.5 -34.5t-89 -108t-31.5 -189.5q0 -127 30 -213.5t87 -130t138 -43.5zM385 988l-56 80l534 375l56 -79z" />
    <glyph glyph-name="ntilde" unicode="&#xf1;" horiz-adv-x="1224" 
d="M421 736v-634l139 -43v-59h-496v59l148 46v591q-18 18 -54 39.5t-100 51.5v37l282 113h33zM699 59l139 43v487q0 55 -21 92t-64 56t-110 19q-70 0 -134.5 -21t-102.5 -52l-32 41q70 65 123 106.5t96.5 64.5t86 31.5t92.5 8.5q140 0 207.5 -79.5t67.5 -245.5v-505l149 -46
v-59h-497v59zM932 1369q-17 -120 -38.5 -188t-54 -96t-85.5 -28q-43 0 -77.5 24t-63 55.5t-55.5 56t-54 24.5q-17 0 -30.5 -12t-25 -44.5t-24.5 -95.5h-93q17 120 38.5 187.5t54.5 96t84 28.5q44 0 78 -24.5t63 -56t56 -55.5t54 -24q18 0 31 11.5t24.5 44.5t23.5 96h94z" />
    <glyph glyph-name="ograve" unicode="&#xf2;" horiz-adv-x="1111" 
d="M555 92q78 0 135.5 35t89 109.5t31.5 192.5q0 130 -30 217t-86.5 131t-138.5 44q-78 0 -135.5 -35t-89 -109t-31.5 -193q0 -128 29.5 -215.5t87 -132t138.5 -44.5zM549 -22q-143 0 -249 59t-163.5 165t-57.5 247q0 144 61 253.5t169.5 171t252.5 61.5t249.5 -58.5
t163 -164.5t57.5 -248q0 -144 -60.5 -253.5t-169.5 -171t-253 -61.5zM622 1052h-94l-319 296v33h254z" />
    <glyph glyph-name="oacute" unicode="&#xf3;" horiz-adv-x="1111" 
d="M555 92q78 0 135.5 35t89 109.5t31.5 192.5q0 130 -30 217t-86.5 131t-138.5 44q-78 0 -135.5 -35t-89 -109t-31.5 -193q0 -128 29.5 -215.5t87 -132t138.5 -44.5zM549 -22q-143 0 -249 59t-163.5 165t-57.5 247q0 144 61 253.5t169.5 171t252.5 61.5t249.5 -58.5
t163 -164.5t57.5 -248q0 -144 -60.5 -253.5t-169.5 -171t-253 -61.5zM490 1052l159 329h254v-33l-319 -296h-94z" />
    <glyph glyph-name="ocircumflex" unicode="&#xf4;" horiz-adv-x="1111" 
d="M555 92q78 0 135.5 35t89 109.5t31.5 192.5q0 130 -30 217t-86.5 131t-138.5 44q-78 0 -135.5 -35t-89 -109t-31.5 -193q0 -128 29.5 -215.5t87 -132t138.5 -44.5zM549 -22q-143 0 -249 59t-163.5 165t-57.5 247q0 144 61 253.5t169.5 171t252.5 61.5t249.5 -58.5
t163 -164.5t57.5 -248q0 -144 -60.5 -253.5t-169.5 -171t-253 -61.5zM242 1052l220 329h188l220 -329h-113l-227 206h52l-227 -206h-113z" />
    <glyph glyph-name="otilde" unicode="&#xf5;" horiz-adv-x="1111" 
d="M555 92q78 0 135.5 35t89 109.5t31.5 192.5q0 130 -30 217t-86.5 131t-138.5 44q-78 0 -135.5 -35t-89 -109t-31.5 -193q0 -128 29.5 -215.5t87 -132t138.5 -44.5zM549 -22q-143 0 -249 59t-163.5 165t-57.5 247q0 144 61 253.5t169.5 171t252.5 61.5t249.5 -58.5
t163 -164.5t57.5 -248q0 -144 -60.5 -253.5t-169.5 -171t-253 -61.5zM855 1369q-17 -120 -38.5 -188t-54 -96t-85.5 -28q-43 0 -77.5 24t-63 55.5t-55.5 56t-54 24.5q-17 0 -30.5 -12t-25 -44.5t-24.5 -95.5h-93q17 120 38.5 187.5t54.5 96t84 28.5q44 0 78 -24.5t63 -56
t56 -55.5t54 -24q18 0 31 11.5t24.5 44.5t23.5 96h94z" />
    <glyph glyph-name="odieresis" unicode="&#xf6;" horiz-adv-x="1111" 
d="M555 92q78 0 135.5 35t89 109.5t31.5 192.5q0 130 -30 217t-86.5 131t-138.5 44q-78 0 -135.5 -35t-89 -109t-31.5 -193q0 -128 29.5 -215.5t87 -132t138.5 -44.5zM549 -22q-143 0 -249 59t-163.5 165t-57.5 247q0 144 61 253.5t169.5 171t252.5 61.5t249.5 -58.5
t163 -164.5t57.5 -248q0 -144 -60.5 -253.5t-169.5 -171t-253 -61.5zM355 1099q-59 0 -92 33.5t-33 85.5t33 84.5t92 32.5q57 0 90 -32.5t33 -84.5t-33 -85.5t-90 -33.5zM758 1099q-58 0 -91 33.5t-33 85.5t33 84.5t91 32.5t91 -32.5t33 -84.5t-33 -85.5t-91 -33.5z" />
    <glyph glyph-name="divide" unicode="&#xf7;" horiz-adv-x="1047" 
d="M524 257q56 0 91 -35t35 -89t-35 -89t-91 -35q-57 0 -92 35t-35 89t35 89t92 35zM524 917q56 0 91 -34.5t35 -88.5t-35 -89t-91 -35q-57 0 -92 35t-35 89t35 88.5t92 34.5zM135 525h777v-124h-777v124z" />
    <glyph glyph-name="oslash" unicode="&#xf8;" horiz-adv-x="1149" 
d="M70 0l176 185l39 26l510 559l38 35l102 108h145l-173 -182l-39 -26l-512 -561l-37 -34l-104 -110h-145zM575 92q78 0 135.5 35t88.5 109.5t31 192.5q0 130 -29.5 217t-86 131t-138.5 44q-79 0 -136 -35t-88.5 -109t-31.5 -193q0 -128 29.5 -215.5t86.5 -132t139 -44.5z
M569 -22q-144 0 -249.5 59t-163.5 165t-58 247q0 144 61 253.5t170 171t253 61.5t249.5 -58.5t163 -164.5t57.5 -248q0 -144 -61 -253.5t-169.5 -171t-252.5 -61.5z" />
    <glyph glyph-name="ugrave" unicode="&#xf9;" horiz-adv-x="1159" 
d="M387 312q0 -56 17 -90t56 -49t106 -15q62 0 122.5 19t95.5 48l31 -47q-66 -62 -115.5 -101.5t-90 -61t-79.5 -29.5t-86 -8q-136 0 -201 77.5t-65 231.5v495l-150 66v61l373 18l-14 -131v-484zM804 -19l-39 189v617l-134 63v61l357 16l-14 -134v-609q10 -9 27.5 -20
t38.5 -22.5t42 -20.5t38 -14v-39l-286 -87h-30zM619 1052h-94l-319 296v33h254z" />
    <glyph glyph-name="uacute" unicode="&#xfa;" horiz-adv-x="1159" 
d="M387 312q0 -56 17 -90t56 -49t106 -15q62 0 122.5 19t95.5 48l31 -47q-66 -62 -115.5 -101.5t-90 -61t-79.5 -29.5t-86 -8q-136 0 -201 77.5t-65 231.5v495l-150 66v61l373 18l-14 -131v-484zM804 -19l-39 189v617l-134 63v61l357 16l-14 -134v-609q10 -9 27.5 -20
t38.5 -22.5t42 -20.5t38 -14v-39l-286 -87h-30zM487 1052l159 329h254v-33l-319 -296h-94z" />
    <glyph glyph-name="ucircumflex" unicode="&#xfb;" horiz-adv-x="1159" 
d="M387 312q0 -56 17 -90t56 -49t106 -15q62 0 122.5 19t95.5 48l31 -47q-66 -62 -115.5 -101.5t-90 -61t-79.5 -29.5t-86 -8q-136 0 -201 77.5t-65 231.5v495l-150 66v61l373 18l-14 -131v-484zM804 -19l-39 189v617l-134 63v61l357 16l-14 -134v-609q10 -9 27.5 -20
t38.5 -22.5t42 -20.5t38 -14v-39l-286 -87h-30zM239 1052l220 329h188l220 -329h-113l-227 206h52l-227 -206h-113z" />
    <glyph glyph-name="udieresis" unicode="&#xfc;" horiz-adv-x="1159" 
d="M387 312q0 -56 17 -90t56 -49t106 -15q62 0 122.5 19t95.5 48l31 -47q-66 -62 -115.5 -101.5t-90 -61t-79.5 -29.5t-86 -8q-136 0 -201 77.5t-65 231.5v495l-150 66v61l373 18l-14 -131v-484zM804 -19l-39 189v617l-134 63v61l357 16l-14 -134v-609q10 -9 27.5 -20
t38.5 -22.5t42 -20.5t38 -14v-39l-286 -87h-30zM352 1099q-59 0 -92 33.5t-33 85.5t33 84.5t92 32.5q57 0 90 -32.5t33 -84.5t-33 -85.5t-90 -33.5zM755 1099q-58 0 -91 33.5t-33 85.5t33 84.5t91 32.5t91 -32.5t33 -84.5t-33 -85.5t-91 -33.5z" />
    <glyph glyph-name="yacute" unicode="&#xfd;" horiz-adv-x="1126" 
d="M679 156l-122 -212l-416 859l-131 49v61h493v-61l-133 -41zM260 -508q-71 0 -112 34t-41 95q0 29 11.5 52t29 36t33.5 13q19 0 42 -8t50 -16t56 -8q33 0 59.5 14t50.5 46.5t49 88.5l91 216l42 99l247 661l-129 37v61h364v-61l-108 -36l-411 -1013q-48 -118 -95 -186
t-102.5 -96.5t-126.5 -28.5zM532 1052l159 329h254v-33l-319 -296h-94z" />
    <glyph glyph-name="thorn" unicode="&#xfe;" horiz-adv-x="1154" 
d="M148 1212q-14 13 -39.5 29t-60 33t-73.5 33v48l361 88h36l-16 -193v-953q0 -62 28.5 -108.5t80.5 -71t121 -24.5q83 0 141.5 41.5t89.5 121t31 193.5q0 168 -74.5 253t-202.5 85q-51 0 -99.5 -8.5t-93.5 -25t-86 -41.5l-5 82q64 39 118 65.5t99.5 43.5t85 24.5t73.5 7.5
q134 0 225.5 -54.5t138.5 -152t47 -227.5q0 -163 -65.5 -280.5t-175 -180t-242.5 -62.5q-65 0 -121 19t-103.5 52.5t-87.5 78.5h77v-509l168 -46v-59h-526v59l150 45v1594z" />
    <glyph glyph-name="ydieresis" unicode="&#xff;" horiz-adv-x="1126" 
d="M679 156l-122 -212l-416 859l-131 49v61h493v-61l-133 -41zM260 -508q-71 0 -112 34t-41 95q0 29 11.5 52t29 36t33.5 13q19 0 42 -8t50 -16t56 -8q33 0 59.5 14t50.5 46.5t49 88.5l91 216l42 99l247 661l-129 37v61h364v-61l-108 -36l-411 -1013q-48 -118 -95 -186
t-102.5 -96.5t-126.5 -28.5zM397 1099q-59 0 -92 33.5t-33 85.5t33 84.5t92 32.5q57 0 90 -32.5t33 -84.5t-33 -85.5t-90 -33.5zM800 1099q-58 0 -91 33.5t-33 85.5t33 84.5t91 32.5t91 -32.5t33 -84.5t-33 -85.5t-91 -33.5z" />
    <glyph glyph-name="Amacron" unicode="&#x100;" horiz-adv-x="1513" 
d="M380 472v126h686v-126h-686zM1362 117l161 -53v-64h-584v64l174 51l-449 1100h55l-418 -1100l167 -51v-64h-472v64l158 51l506 1266h174zM464 1571v124h562v-124h-562z" />
    <glyph glyph-name="amacron" unicode="&#x101;" horiz-adv-x="1004" 
d="M689 581l-4 -96q-123 -23 -199 -46.5t-116.5 -50t-55.5 -57.5t-15 -70q0 -68 37.5 -102t102.5 -34q49 0 89 21.5t63.5 57.5t23.5 80v366q0 82 -39 125.5t-133 43.5q-41 0 -81 -7t-75 -21l54 60q-6 -38 -13 -69t-15.5 -54.5t-19.5 -41.5q-16 -25 -43.5 -34.5t-61.5 -9.5
q-45 0 -69 18t-24 46q0 35 34.5 74t94 73.5t136.5 56t162 21.5q111 0 177.5 -32.5t95.5 -93.5t29 -145v-455q0 -32 9.5 -52.5t28 -30t46.5 -9.5q22 0 46.5 6.5t50.5 18.5v-68q-47 -44 -100.5 -67t-101.5 -23q-59 0 -99.5 25.5t-61.5 75.5t-23 122l8 6q-15 -72 -53.5 -124
t-95.5 -79.5t-128 -27.5q-120 0 -192 61.5t-72 179.5q0 62 25 113t90 93.5t183 80.5t305 75zM197 1156v123h554v-123h-554z" />
    <glyph glyph-name="Abreve" unicode="&#x102;" horiz-adv-x="1513" 
d="M380 472v126h686v-126h-686zM1362 117l161 -53v-64h-584v64l174 51l-449 1100h55l-418 -1100l167 -51v-64h-472v64l158 51l506 1266h174zM745 1634q83 0 132.5 30t68.5 103h94q-21 -105 -57 -165t-94 -84.5t-144 -24.5t-144 24.5t-93.5 84.5t-57.5 165h94
q19 -73 68.5 -103t132.5 -30z" />
    <glyph glyph-name="abreve" unicode="&#x103;" horiz-adv-x="1004" 
d="M689 581l-4 -96q-123 -23 -199 -46.5t-116.5 -50t-55.5 -57.5t-15 -70q0 -68 37.5 -102t102.5 -34q49 0 89 21.5t63.5 57.5t23.5 80v366q0 82 -39 125.5t-133 43.5q-41 0 -81 -7t-75 -21l54 60q-6 -38 -13 -69t-15.5 -54.5t-19.5 -41.5q-16 -25 -43.5 -34.5t-61.5 -9.5
q-45 0 -69 18t-24 46q0 35 34.5 74t94 73.5t136.5 56t162 21.5q111 0 177.5 -32.5t95.5 -93.5t29 -145v-455q0 -32 9.5 -52.5t28 -30t46.5 -9.5q22 0 46.5 6.5t50.5 18.5v-68q-47 -44 -100.5 -67t-101.5 -23q-59 0 -99.5 25.5t-61.5 75.5t-23 122l8 6q-15 -72 -53.5 -124
t-95.5 -79.5t-128 -27.5q-120 0 -192 61.5t-72 179.5q0 62 25 113t90 93.5t183 80.5t305 75zM474 1193q58 0 99.5 19t69 61t41.5 108h88q-22 -129 -58.5 -202.5t-94.5 -104t-145 -30.5t-145 30.5t-94.5 104t-58.5 202.5h88q14 -66 41.5 -108t69.5 -61t99 -19z" />
    <glyph glyph-name="Aogonek" unicode="&#x104;" horiz-adv-x="1513" 
d="M380 472v126h686v-126h-686zM1362 117l161 -53v-64h-584v64l174 51l-449 1100h55l-418 -1100l167 -51v-64h-472v64l158 51l506 1266h174zM1225 -101q-37 -70 -49.5 -113.5t-12.5 -80.5q0 -48 28.5 -74t73.5 -26q32 0 63 13t76 52l21 -49q-40 -47 -76 -75.5t-72 -41
t-79 -12.5q-83 0 -129 44.5t-46 119.5q0 33 8.5 67t31.5 77.5t68 103.5l104 145h68z" />
    <glyph glyph-name="aogonek" unicode="&#x105;" horiz-adv-x="1005" 
d="M1005 70l-135 -166q-39 -48 -61 -83.5t-30.5 -64t-8.5 -53.5q0 -47 27.5 -72.5t71.5 -25.5q31 0 62 13t76 52l21 -49q-39 -47 -75 -75.5t-72.5 -41t-79.5 -12.5q-81 0 -126.5 44.5t-45.5 119.5q0 37 12.5 72.5t44.5 79t91 102.5l101 102l10 -15q-22 -8 -43.5 -12.5
t-41.5 -4.5q-59 0 -99.5 25.5t-61.5 75.5t-23 122l8 6q-15 -72 -53.5 -124t-95.5 -79.5t-128 -27.5q-120 0 -192 61.5t-72 179.5q0 62 25 113t90 93.5t183 80.5t305 75l-4 -96q-123 -23 -199 -46.5t-116.5 -50t-55.5 -57.5t-15 -70q0 -68 37.5 -102t102.5 -34q49 0 89 21.5
t63.5 57.5t23.5 80v366q0 82 -39 125.5t-133 43.5q-41 0 -81 -7t-75 -21l54 60q-9 -57 -20 -98t-28 -67q-16 -25 -43.5 -34.5t-61.5 -9.5q-45 0 -69 18t-24 46q0 35 34.5 74t94 73.5t136.5 56t162 21.5q111 0 177.5 -32.5t95.5 -93.5t29 -145v-455q0 -32 9.5 -52.5t28 -30
t46.5 -9.5q22 0 46.5 6.5t50.5 18.5v-68z" />
    <glyph glyph-name="Cacute" unicode="&#x106;" horiz-adv-x="1450" 
d="M902 107q79 0 155.5 14t151.5 43l-88 -70l152 307h84l-39 -343q-78 -36 -195 -58t-249 -22q-182 0 -326 45.5t-245 134t-153.5 217.5t-52.5 296q1 219 95.5 380t273 248.5t431.5 87.5q77 0 148 -10.5t157 -33.5l-68 -10l116 98h58l41 -495l-88 -7l-149 317l64 -74
q-84 48 -155 65.5t-155 17.5q-132 0 -231 -34t-164 -100t-98 -162.5t-35 -222.5q-1 -155 39.5 -272.5t115.5 -197t179.5 -119.5t229.5 -40zM752 1499l130 268h257v-31l-293 -237h-94z" />
    <glyph glyph-name="cacute" unicode="&#x107;" horiz-adv-x="942" 
d="M609 935q102 0 162 -22t85.5 -55t25.5 -67t-15 -60.5t-41.5 -42t-58.5 -15.5q-24 0 -49 15.5t-50 38t-51 45t-51.5 37.5t-50.5 15q-64 0 -117.5 -32t-85 -99t-31.5 -172q0 -123 38.5 -208t112 -128.5t177.5 -43.5q65 0 127.5 20t125.5 59l18 -61q-60 -62 -120.5 -102
t-122 -59.5t-125.5 -19.5q-130 0 -227.5 57.5t-152 160.5t-54.5 240q0 108 35.5 199t103.5 158.5t166.5 104.5t225.5 37zM456 1052l159 329h254v-33l-319 -296h-94z" />
    <glyph glyph-name="Ccircumflex" unicode="&#x108;" horiz-adv-x="1450" 
d="M902 107q79 0 155.5 14t151.5 43l-88 -70l152 307h84l-39 -343q-78 -36 -195 -58t-249 -22q-182 0 -326 45.5t-245 134t-153.5 217.5t-52.5 296q1 219 95.5 380t273 248.5t431.5 87.5q77 0 148 -10.5t157 -33.5l-68 -10l116 98h58l41 -495l-88 -7l-149 317l64 -74
q-84 48 -155 65.5t-155 17.5q-132 0 -231 -34t-164 -100t-98 -162.5t-35 -222.5q-1 -155 39.5 -272.5t115.5 -197t179.5 -119.5t229.5 -40zM784 1653h42l-219 -154h-123l227 268h188l227 -268h-123z" />
    <glyph glyph-name="ccircumflex" unicode="&#x109;" horiz-adv-x="942" 
d="M609 935q102 0 162 -22t85.5 -55t25.5 -67t-15 -60.5t-41.5 -42t-58.5 -15.5q-24 0 -49 15.5t-50 38t-51 45t-51.5 37.5t-50.5 15q-64 0 -117.5 -32t-85 -99t-31.5 -172q0 -123 38.5 -208t112 -128.5t177.5 -43.5q65 0 127.5 20t125.5 59l18 -61q-60 -62 -120.5 -102
t-122 -59.5t-125.5 -19.5q-130 0 -227.5 57.5t-152 160.5t-54.5 240q0 108 35.5 199t103.5 158.5t166.5 104.5t225.5 37zM208 1052l220 329h188l220 -329h-113l-227 206h52l-227 -206h-113z" />
    <glyph glyph-name="Cdotaccent" unicode="&#x10a;" horiz-adv-x="1450" 
d="M902 107q79 0 155.5 14t151.5 43l-88 -70l152 307h84l-39 -343q-78 -36 -195 -58t-249 -22q-182 0 -326 45.5t-245 134t-153.5 217.5t-52.5 296q1 219 95.5 380t273 248.5t431.5 87.5q77 0 148 -10.5t157 -33.5l-68 -10l116 98h58l41 -495l-88 -7l-149 317l64 -74
q-84 48 -155 65.5t-155 17.5q-132 0 -231 -34t-164 -100t-98 -162.5t-35 -222.5q-1 -155 39.5 -272.5t115.5 -197t179.5 -119.5t229.5 -40zM805 1508q-65 0 -101.5 35t-36.5 91t36.5 90t101.5 34t101.5 -34t36.5 -90t-36.5 -91t-101.5 -35z" />
    <glyph glyph-name="cdotaccent" unicode="&#x10b;" horiz-adv-x="942" 
d="M609 935q102 0 162 -22t85.5 -55t25.5 -67t-15 -60.5t-41.5 -42t-58.5 -15.5q-24 0 -49 15.5t-50 38t-51 45t-51.5 37.5t-50.5 15q-64 0 -117.5 -32t-85 -99t-31.5 -172q0 -123 38.5 -208t112 -128.5t177.5 -43.5q65 0 127.5 20t125.5 59l18 -61q-60 -62 -120.5 -102
t-122 -59.5t-125.5 -19.5q-130 0 -227.5 57.5t-152 160.5t-54.5 240q0 108 35.5 199t103.5 158.5t166.5 104.5t225.5 37zM522 1092q-65 0 -101.5 35t-36.5 91t36.5 90t101.5 34t101.5 -34t36.5 -90t-36.5 -91t-101.5 -35z" />
    <glyph glyph-name="Ccaron" unicode="&#x10c;" horiz-adv-x="1450" 
d="M902 107q79 0 155.5 14t151.5 43l-88 -70l152 307h84l-39 -343q-78 -36 -195 -58t-249 -22q-182 0 -326 45.5t-245 134t-153.5 217.5t-52.5 296q1 219 95.5 380t273 248.5t431.5 87.5q77 0 148 -10.5t157 -33.5l-68 -10l116 98h58l41 -495l-88 -7l-149 317l64 -74
q-84 48 -155 65.5t-155 17.5q-132 0 -231 -34t-164 -100t-98 -162.5t-35 -222.5q-1 -155 39.5 -272.5t115.5 -197t179.5 -119.5t229.5 -40zM826 1613h-42l219 154h123l-227 -268h-188l-227 268h123z" />
    <glyph glyph-name="ccaron" unicode="&#x10d;" horiz-adv-x="942" 
d="M609 935q102 0 162 -22t85.5 -55t25.5 -67t-15 -60.5t-41.5 -42t-58.5 -15.5q-24 0 -49 15.5t-50 38t-51 45t-51.5 37.5t-50.5 15q-64 0 -117.5 -32t-85 -99t-31.5 -172q0 -123 38.5 -208t112 -128.5t177.5 -43.5q65 0 127.5 20t125.5 59l18 -61q-60 -62 -120.5 -102
t-122 -59.5t-125.5 -19.5q-130 0 -227.5 57.5t-152 160.5t-54.5 240q0 108 35.5 199t103.5 158.5t166.5 104.5t225.5 37zM548 1175h-52l227 206h113l-220 -329h-188l-220 329h113z" />
    <glyph glyph-name="Dcaron" unicode="&#x10e;" horiz-adv-x="1580" 
d="M1238 700q0 274 -150 404.5t-431 130.5h-296l-8 130h359q257 0 428 -72t256.5 -215.5t85.5 -358.5q0 -230 -99.5 -390.5t-273.5 -244.5t-399 -84h-357l8 130h326q171 0 294 58.5t190 184t67 327.5zM89 0v64l166 52v1133l-166 51v65h397v-1365h-397zM815 1613h-42l219 154
h123l-227 -268h-188l-227 268h123z" />
    <glyph glyph-name="dcaron" unicode="&#x10f;" horiz-adv-x="1194" 
d="M797 621q0 91 -52.5 146.5t-164.5 55.5q-88 0 -149.5 -42t-93.5 -122t-32 -195q0 -113 33.5 -188.5t96 -112.5t148.5 -37q72 0 141.5 20.5t136.5 64.5v-66q-82 -53 -138.5 -86.5t-97 -51t-73 -23.5t-65.5 -6q-133 0 -224 54.5t-137 152.5t-46 229q0 123 40.5 219.5
t112 163.5t164.5 102.5t197 35.5q58 0 109.5 -8.5t104.5 -27.5t114 -51l-125 -43v425q-12 12 -38 26.5t-58 29t-62 26.5v47l347 84h35l-15 -194v-1065q10 -9 27.5 -20t38.5 -22.5t42 -20.5t38 -14v-39l-285 -88h-30l-40 177v464zM1133 1034l51 384h217v-29l-176 -355h-92z
" />
    <glyph glyph-name="Dcroat" unicode="&#x110;" horiz-adv-x="1583" 
d="M92 632v117h704v-117h-704zM1241 700q0 274 -150 404.5t-431 130.5h-296l-8 130h358q258 0 429 -72t256.5 -215.5t85.5 -358.5q0 -230 -99.5 -390.5t-273.5 -244.5t-399 -84h-357l8 130h326q170 0 293.5 58.5t190.5 184t67 327.5zM92 0v64l166 52v1133l-166 51v65h397
v-1365h-397z" />
    <glyph glyph-name="dcroat" unicode="&#x111;" horiz-adv-x="1184" 
d="M797 621q0 91 -52.5 146.5t-164.5 55.5q-88 0 -149.5 -42t-93.5 -122t-32 -195q0 -113 33.5 -188.5t96 -112.5t148.5 -37q72 0 141.5 20.5t136.5 64.5v-66q-82 -53 -138.5 -86.5t-97 -51t-73 -23.5t-65.5 -6q-133 0 -224 54.5t-137 152.5t-46 229q0 123 40.5 219.5
t112 163.5t164.5 102.5t197 35.5q58 0 109.5 -8.5t104.5 -27.5t114 -51l-125 -43v440q-11 12 -34 24.5t-50.5 24.5t-55.5 23v47l329 79h35l-15 -194v-1065q10 -9 27.5 -20t38.5 -22.5t42 -20.5t38 -14v-39l-285 -88h-30l-40 177v464zM520 1055v107h669v-107h-669z" />
    <glyph glyph-name="Emacron" unicode="&#x112;" horiz-adv-x="1354" 
d="M962 973v-259v-260h-101l-21 198h-483v125h483l21 196h101zM1243 980l-85 -7l-152 317l73 -53h-722v128h680l107 61h52zM1016 72l187 343l79 -8l-77 -475h-59l-99 68h-690v127h720zM89 0v64l166 52v1133l-166 51v65h397v-1365h-397zM408 1571v124h562v-124h-562z" />
    <glyph glyph-name="emacron" unicode="&#x113;" horiz-adv-x="988" 
d="M524 935q124 0 207 -51t127.5 -149.5t52.5 -241.5h-672v95l538 17l-79 -42q-4 89 -26 147t-62.5 87.5t-100.5 29.5q-69 0 -120 -34.5t-79 -106t-28 -183.5q0 -119 41 -200t119.5 -122t189.5 -41q48 0 92 9.5t86 27t81 42.5l19 -60q-60 -59 -122 -99t-126.5 -61
t-132.5 -21q-135 0 -236 58t-157.5 162.5t-56.5 244.5q0 141 53.5 252.5t153 175.5t238.5 64zM236 1156v123h554v-123h-554z" />
    <glyph glyph-name="Ebreve" unicode="&#x114;" horiz-adv-x="1354" 
d="M962 973v-259v-260h-101l-21 198h-483v125h483l21 196h101zM1243 980l-85 -7l-152 317l73 -53h-722v128h680l107 61h52zM1016 72l187 343l79 -8l-77 -475h-59l-99 68h-690v127h720zM89 0v64l166 52v1133l-166 51v65h397v-1365h-397zM689 1634q83 0 132.5 30t68.5 103h94
q-21 -105 -57 -165t-94 -84.5t-144 -24.5t-144 24.5t-93.5 84.5t-57.5 165h94q19 -73 68.5 -103t132.5 -30z" />
    <glyph glyph-name="ebreve" unicode="&#x115;" horiz-adv-x="988" 
d="M524 935q124 0 207 -51t127.5 -149.5t52.5 -241.5h-672v95l538 17l-79 -42q-4 89 -26 147t-62.5 87.5t-100.5 29.5q-69 0 -120 -34.5t-79 -106t-28 -183.5q0 -119 41 -200t119.5 -122t189.5 -41q48 0 92 9.5t86 27t81 42.5l19 -60q-60 -59 -122 -99t-126.5 -61
t-132.5 -21q-135 0 -236 58t-157.5 162.5t-56.5 244.5q0 141 53.5 252.5t153 175.5t238.5 64zM513 1193q58 0 99.5 19t69 61t41.5 108h88q-22 -129 -58.5 -202.5t-94.5 -104t-145 -30.5t-145 30.5t-94.5 104t-58.5 202.5h88q14 -66 41.5 -108t69.5 -61t99 -19z" />
    <glyph glyph-name="Edotaccent" unicode="&#x116;" horiz-adv-x="1354" 
d="M962 973v-259v-260h-101l-21 198h-483v125h483l21 196h101zM1243 980l-85 -7l-152 317l73 -53h-722v128h680l107 61h52zM1016 72l187 343l79 -8l-77 -475h-59l-99 68h-690v127h720zM89 0v64l166 52v1133l-166 51v65h397v-1365h-397zM689 1508q-65 0 -101.5 35t-36.5 91
t36.5 90t101.5 34t101.5 -34t36.5 -90t-36.5 -91t-101.5 -35z" />
    <glyph glyph-name="edotaccent" unicode="&#x117;" horiz-adv-x="988" 
d="M524 935q124 0 207 -51t127.5 -149.5t52.5 -241.5h-672v95l538 17l-79 -42q-4 89 -26 147t-62.5 87.5t-100.5 29.5q-69 0 -120 -34.5t-79 -106t-28 -183.5q0 -119 41 -200t119.5 -122t189.5 -41q48 0 92 9.5t86 27t81 42.5l19 -60q-60 -59 -122 -99t-126.5 -61
t-132.5 -21q-135 0 -236 58t-157.5 162.5t-56.5 244.5q0 141 53.5 252.5t153 175.5t238.5 64zM513 1092q-65 0 -101.5 35t-36.5 91t36.5 90t101.5 34t101.5 -34t36.5 -90t-36.5 -91t-101.5 -35z" />
    <glyph glyph-name="Eogonek" unicode="&#x118;" horiz-adv-x="1354" 
d="M962 973v-259v-260h-101l-21 198h-483v125h483l21 196h101zM1243 980l-85 -7l-152 317l73 -53h-722v128h680l107 61h52zM1016 72l187 343l79 -8l-77 -475h-59l-99 68h-690v127h720zM89 0v64l166 52v1133l-166 51v65h397v-1365h-397zM999 -101q-26 -46 -41 -80t-21 -61
t-6 -52q0 -48 28 -74.5t74 -26.5q31 0 62 13t76 52l21 -49q-39 -47 -75 -75.5t-72.5 -41t-78.5 -12.5q-84 0 -129.5 44.5t-45.5 119.5q0 33 8.5 67t33 77.5t71.5 103.5l108 145h69z" />
    <glyph glyph-name="eogonek" unicode="&#x119;" horiz-adv-x="989" 
d="M910 159l-141 -210q-41 -60 -62.5 -104t-29.5 -77t-8 -61q0 -51 29.5 -76.5t75.5 -25.5q31 0 62 13t76 52l21 -49q-39 -47 -74.5 -75.5t-71 -41t-78.5 -12.5q-85 0 -132 45t-47 123q0 39 11.5 78.5t40.5 87.5t80 109l107 132l12 -14q-61 -37 -124 -56t-128 -19
q-135 0 -236 58t-157.5 162.5t-56.5 244.5q0 141 53.5 252.5t153 175.5t238.5 64q124 0 207 -51t127.5 -149.5t52.5 -241.5h-672v95l538 17l-79 -42q-4 89 -26 147t-62.5 87.5t-100.5 29.5q-69 0 -120 -34.5t-79 -106t-28 -183.5q0 -119 41 -200t119.5 -122t189.5 -41
q48 0 92 9.5t86 27t81 42.5z" />
    <glyph glyph-name="Ecaron" unicode="&#x11a;" horiz-adv-x="1354" 
d="M962 973v-259v-260h-101l-21 198h-483v125h483l21 196h101zM1243 980l-85 -7l-152 317l73 -53h-722v128h680l107 61h52zM1016 72l187 343l79 -8l-77 -475h-59l-99 68h-690v127h720zM89 0v64l166 52v1133l-166 51v65h397v-1365h-397zM710 1613h-42l219 154h123l-227 -268
h-188l-227 268h123z" />
    <glyph glyph-name="ecaron" unicode="&#x11b;" horiz-adv-x="988" 
d="M524 935q124 0 207 -51t127.5 -149.5t52.5 -241.5h-672v95l538 17l-79 -42q-4 89 -26 147t-62.5 87.5t-100.5 29.5q-69 0 -120 -34.5t-79 -106t-28 -183.5q0 -119 41 -200t119.5 -122t189.5 -41q48 0 92 9.5t86 27t81 42.5l19 -60q-60 -59 -122 -99t-126.5 -61
t-132.5 -21q-135 0 -236 58t-157.5 162.5t-56.5 244.5q0 141 53.5 252.5t153 175.5t238.5 64zM539 1175h-52l227 206h113l-220 -329h-188l-220 329h113z" />
    <glyph glyph-name="Gcircumflex" unicode="&#x11c;" horiz-adv-x="1558" 
d="M1365 193l59 -64v-37q-74 -35 -164.5 -61t-189 -39.5t-198.5 -13.5q-181 0 -325 46t-244.5 134.5t-153.5 217.5t-52 295q1 219 95 380t272 248.5t431 87.5q82 0 154.5 -11t155.5 -34l-73 -10l118 99h58l41 -490l-89 -7l-155 324l96 -103q-82 53 -160 76.5t-176 23.5
q-133 0 -231 -33.5t-163.5 -100.5t-98 -164t-34.5 -224q-2 -204 67.5 -344t193.5 -210.5t287 -70.5q64 0 127 10.5t117.5 31.5t92.5 52l-89 -154v459l-191 55v63h558v-63l-136 -53v-316zM795 1653h42l-219 -154h-123l227 268h188l227 -268h-123z" />
    <glyph glyph-name="gcircumflex" unicode="&#x11d;" horiz-adv-x="1056" 
d="M478 -508q-115 0 -200.5 15.5t-141 45.5t-82.5 73t-27 98q0 40 20.5 76t66 65.5t119 51.5t180.5 36h72v-21q-103 -12 -160.5 -37t-80.5 -61t-23 -81q0 -52 29 -88.5t91.5 -55t160.5 -18.5q106 0 179 23t110.5 63t37.5 91q0 35 -15.5 60t-54.5 42t-109.5 27t-179.5 14
q-110 5 -181 22.5t-110.5 45.5t-55.5 64t-16 77q1 74 67.5 124t198.5 68l21 -25q-57 -6 -83.5 -27.5t-26.5 -61.5q0 -23 9.5 -41t39.5 -30.5t91 -20.5t164 -12q106 -5 185 -20.5t131.5 -46.5t79 -79t26.5 -117q0 -95 -62 -172t-181 -122t-289 -45zM480 270q-119 0 -208 41
t-138 116t-49 175q0 102 50 177t139.5 115.5t205.5 40.5q90 0 162 -24.5t124 -70t79.5 -106t27.5 -131.5q0 -101 -50 -176.5t-138.5 -116t-204.5 -40.5zM488 368q80 0 128.5 56t48.5 169q0 122 -49.5 183.5t-141.5 61.5q-81 0 -130.5 -55t-49.5 -170q0 -121 50.5 -183
t143.5 -62zM624 845l-36 74q69 -7 130 -5.5t112 6.5t92.5 10t72.5 5q29 0 44 -18t15 -58q0 -47 -20.5 -74t-47.5 -27q-26 0 -52 12.5t-64 29t-97 30t-149 15.5zM173 1052l220 329h188l220 -329h-113l-227 206h52l-227 -206h-113z" />
    <glyph glyph-name="Gbreve" unicode="&#x11e;" horiz-adv-x="1558" 
d="M1365 193l59 -64v-37q-74 -35 -164.5 -61t-189 -39.5t-198.5 -13.5q-181 0 -325 46t-244.5 134.5t-153.5 217.5t-52 295q1 219 95 380t272 248.5t431 87.5q82 0 154.5 -11t155.5 -34l-73 -10l118 99h58l41 -490l-89 -7l-155 324l96 -103q-82 53 -160 76.5t-176 23.5
q-133 0 -231 -33.5t-163.5 -100.5t-98 -164t-34.5 -224q-2 -204 67.5 -344t193.5 -210.5t287 -70.5q64 0 127 10.5t117.5 31.5t92.5 52l-89 -154v459l-191 55v63h558v-63l-136 -53v-316zM816 1634q83 0 132.5 30t68.5 103h94q-21 -105 -57 -165t-94 -84.5t-144 -24.5
t-144 24.5t-93.5 84.5t-57.5 165h94q19 -73 68.5 -103t132.5 -30z" />
    <glyph glyph-name="gbreve" unicode="&#x11f;" horiz-adv-x="1056" 
d="M478 -508q-115 0 -200.5 15.5t-141 45.5t-82.5 73t-27 98q0 40 20.5 76t66 65.5t119 51.5t180.5 36h72v-21q-103 -12 -160.5 -37t-80.5 -61t-23 -81q0 -52 29 -88.5t91.5 -55t160.5 -18.5q106 0 179 23t110.5 63t37.5 91q0 35 -15.5 60t-54.5 42t-109.5 27t-179.5 14
q-110 5 -181 22.5t-110.5 45.5t-55.5 64t-16 77q1 74 67.5 124t198.5 68l21 -25q-57 -6 -83.5 -27.5t-26.5 -61.5q0 -23 9.5 -41t39.5 -30.5t91 -20.5t164 -12q106 -5 185 -20.5t131.5 -46.5t79 -79t26.5 -117q0 -95 -62 -172t-181 -122t-289 -45zM480 270q-119 0 -208 41
t-138 116t-49 175q0 102 50 177t139.5 115.5t205.5 40.5q90 0 162 -24.5t124 -70t79.5 -106t27.5 -131.5q0 -101 -50 -176.5t-138.5 -116t-204.5 -40.5zM488 368q80 0 128.5 56t48.5 169q0 122 -49.5 183.5t-141.5 61.5q-81 0 -130.5 -55t-49.5 -170q0 -121 50.5 -183
t143.5 -62zM624 845l-36 74q69 -7 130 -5.5t112 6.5t92.5 10t72.5 5q29 0 44 -18t15 -58q0 -47 -20.5 -74t-47.5 -27q-26 0 -52 12.5t-64 29t-97 30t-149 15.5zM487 1193q58 0 99.5 19t69 61t41.5 108h88q-22 -129 -58.5 -202.5t-94.5 -104t-145 -30.5t-145 30.5t-94.5 104
t-58.5 202.5h88q14 -66 41.5 -108t69.5 -61t99 -19z" />
    <glyph glyph-name="Gdotaccent" unicode="&#x120;" horiz-adv-x="1558" 
d="M1365 193l59 -64v-37q-74 -35 -164.5 -61t-189 -39.5t-198.5 -13.5q-181 0 -325 46t-244.5 134.5t-153.5 217.5t-52 295q1 219 95 380t272 248.5t431 87.5q82 0 154.5 -11t155.5 -34l-73 -10l118 99h58l41 -490l-89 -7l-155 324l96 -103q-82 53 -160 76.5t-176 23.5
q-133 0 -231 -33.5t-163.5 -100.5t-98 -164t-34.5 -224q-2 -204 67.5 -344t193.5 -210.5t287 -70.5q64 0 127 10.5t117.5 31.5t92.5 52l-89 -154v459l-191 55v63h558v-63l-136 -53v-316zM816 1508q-65 0 -101.5 35t-36.5 91t36.5 90t101.5 34t101.5 -34t36.5 -90t-36.5 -91
t-101.5 -35z" />
    <glyph glyph-name="gdotaccent" unicode="&#x121;" horiz-adv-x="1056" 
d="M478 -508q-115 0 -200.5 15.5t-141 45.5t-82.5 73t-27 98q0 40 20.5 76t66 65.5t119 51.5t180.5 36h72v-21q-103 -12 -160.5 -37t-80.5 -61t-23 -81q0 -52 29 -88.5t91.5 -55t160.5 -18.5q106 0 179 23t110.5 63t37.5 91q0 35 -15.5 60t-54.5 42t-109.5 27t-179.5 14
q-110 5 -181 22.5t-110.5 45.5t-55.5 64t-16 77q1 74 67.5 124t198.5 68l21 -25q-57 -6 -83.5 -27.5t-26.5 -61.5q0 -23 9.5 -41t39.5 -30.5t91 -20.5t164 -12q106 -5 185 -20.5t131.5 -46.5t79 -79t26.5 -117q0 -95 -62 -172t-181 -122t-289 -45zM480 270q-119 0 -208 41
t-138 116t-49 175q0 102 50 177t139.5 115.5t205.5 40.5q90 0 162 -24.5t124 -70t79.5 -106t27.5 -131.5q0 -101 -50 -176.5t-138.5 -116t-204.5 -40.5zM488 368q80 0 128.5 56t48.5 169q0 122 -49.5 183.5t-141.5 61.5q-81 0 -130.5 -55t-49.5 -170q0 -121 50.5 -183
t143.5 -62zM624 845l-36 74q69 -7 130 -5.5t112 6.5t92.5 10t72.5 5q29 0 44 -18t15 -58q0 -47 -20.5 -74t-47.5 -27q-26 0 -52 12.5t-64 29t-97 30t-149 15.5zM487 1092q-65 0 -101.5 35t-36.5 91t36.5 90t101.5 34t101.5 -34t36.5 -90t-36.5 -91t-101.5 -35z" />
    <glyph glyph-name="uni0122" unicode="&#x122;" horiz-adv-x="1558" 
d="M1365 193l59 -64v-37q-74 -35 -164.5 -61t-189 -39.5t-198.5 -13.5q-181 0 -325 46t-244.5 134.5t-153.5 217.5t-52 295q1 219 95 380t272 248.5t431 87.5q82 0 154.5 -11t155.5 -34l-73 -10l118 99h58l41 -490l-89 -7l-155 324l96 -103q-82 53 -160 76.5t-176 23.5
q-133 0 -231 -33.5t-163.5 -100.5t-98 -164t-34.5 -224q-2 -204 67.5 -344t193.5 -210.5t287 -70.5q64 0 127 10.5t117.5 31.5t92.5 52l-89 -154v459l-191 55v63h558v-63l-136 -53v-316zM943 1595q0 -47 -29 -81t-94 -34q-55 0 -91.5 31.5t-36.5 100.5q0 41 21 81t73 69
t143 37l11 -63q-64 -5 -88.5 -21t-24.5 -42q0 -19 17.5 -31t40.5 -19.5t40.5 -13.5t17.5 -14z" />
    <glyph glyph-name="uni0123" unicode="&#x123;" horiz-adv-x="1056" 
d="M478 -508q-115 0 -200.5 15.5t-141 45.5t-82.5 73t-27 98q0 40 20.5 76t66 65.5t119 51.5t180.5 36h72v-21q-103 -12 -160.5 -37t-80.5 -61t-23 -81q0 -52 29 -88.5t91.5 -55t160.5 -18.5q106 0 179 23t110.5 63t37.5 91q0 35 -15.5 60t-54.5 42t-109.5 27t-179.5 14
q-110 5 -181 22.5t-110.5 45.5t-55.5 64t-16 77q1 74 67.5 124t198.5 68l21 -25q-57 -6 -83.5 -27.5t-26.5 -61.5q0 -23 9.5 -41t39.5 -30.5t91 -20.5t164 -12q106 -5 185 -20.5t131.5 -46.5t79 -79t26.5 -117q0 -95 -62 -172t-181 -122t-289 -45zM480 270q-119 0 -208 41
t-138 116t-49 175q0 102 50 177t139.5 115.5t205.5 40.5q90 0 162 -24.5t124 -70t79.5 -106t27.5 -131.5q0 -101 -50 -176.5t-138.5 -116t-204.5 -40.5zM488 368q80 0 128.5 56t48.5 169q0 122 -49.5 183.5t-141.5 61.5q-81 0 -130.5 -55t-49.5 -170q0 -121 50.5 -183
t143.5 -62zM624 845l-36 74q69 -7 130 -5.5t112 6.5t92.5 10t72.5 5q29 0 44 -18t15 -58q0 -47 -20.5 -74t-47.5 -27q-26 0 -52 12.5t-64 29t-97 30t-149 15.5zM617 1164q0 -54 -35.5 -88t-95.5 -34t-97.5 35.5t-37.5 106.5q0 50 24 95.5t81.5 80.5t157.5 52l15 -67
q-82 -17 -108 -39.5t-26 -48.5q0 -20 18.5 -34t42.5 -23.5t42.5 -18t18.5 -17.5z" />
    <glyph glyph-name="Hcircumflex" unicode="&#x124;" horiz-adv-x="1677" 
d="M486 116l166 -52v-64h-563v64l166 52v1133l-166 51v65h563v-65l-166 -51v-1133zM1422 116l166 -52v-64h-564v64l166 52v1133l-166 51v65h564v-65l-166 -51v-1133zM353 631v130h971v-130h-971zM817 1653h42l-219 -154h-123l227 268h188l227 -268h-123z" />
    <glyph glyph-name="hcircumflex" unicode="&#x125;" horiz-adv-x="1199" 
d="M674 59l139 43v487q0 55 -20.5 92t-64 56t-109.5 19q-71 0 -135.5 -21t-102.5 -52l-32 41q71 65 123.5 106.5t96 64.5t86.5 31.5t92 8.5q141 0 208 -79.5t67 -245.5v-505l150 -46v-59h-498v59zM539 0h-500v59l148 46v1107q-13 13 -39 29t-60 33t-73 33v48l361 88h35
l-15 -193v-1146l143 -45v-59zM599 1700h42l-219 -154h-123l227 268h188l227 -268h-123z" />
    <glyph glyph-name="Hbar" unicode="&#x126;" horiz-adv-x="1680" 
d="M488 116l166 -52v-64h-563v64l166 52v1133l-166 51v65h563v-65l-166 -51v-1133zM1424 116l166 -52v-64h-564v64l166 52v1133l-166 51v65h564v-65l-166 -51v-1133zM91 965v117h1499v-117h-1499zM355 631v130h971v-130h-971z" />
    <glyph glyph-name="hbar" unicode="&#x127;" horiz-adv-x="1199" 
d="M674 59l139 43v487q0 55 -20.5 92t-64 56t-109.5 19q-71 0 -135.5 -21t-102.5 -52l-32 41q71 65 123.5 106.5t96 64.5t86.5 31.5t92 8.5q141 0 208 -79.5t67 -245.5v-505l150 -46v-59h-498v59zM539 0h-500v59l148 46v1116q-12 16 -36 32t-54.5 32t-63.5 31v44l343 83h35
l-15 -193v-1146l143 -45v-59zM5 1055v107h669v-107h-669z" />
    <glyph glyph-name="Itilde" unicode="&#x128;" horiz-adv-x="741" 
d="M652 64v-64h-563v64l166 52v1133l-166 51v65h563v-65l-166 -51v-1133zM674 1764q-18 -110 -40.5 -168t-55.5 -79.5t-83 -21.5q-39 0 -74 18.5t-67 43.5t-60 43.5t-53 18.5q-18 0 -31.5 -8.5t-25 -33.5t-23.5 -75h-96q19 110 41.5 168t55.5 79.5t82 21.5q39 0 74 -18.5
t67 -43.5t60 -43.5t52 -18.5q19 0 32.5 8.5t25.5 34t23 74.5h96z" />
    <glyph glyph-name="itilde" unicode="&#x129;" horiz-adv-x="611" 
d="M433 935l-11 -202v-628l147 -46v-59h-503v59l147 46v605q-11 12 -36 28t-56 32.5t-61 29.5v45l331 90h42zM602 1369q-17 -120 -38.5 -188t-54 -96t-85.5 -28q-43 0 -77.5 24t-63 55.5t-55.5 56t-54 24.5q-17 0 -30.5 -12t-25 -44.5t-24.5 -95.5h-93q17 120 38.5 187.5
t54.5 96t84 28.5q44 0 78 -24.5t63 -56t56 -55.5t54 -24q18 0 31 11.5t24.5 44.5t23.5 96h94z" />
    <glyph glyph-name="Imacron" unicode="&#x12a;" horiz-adv-x="741" 
d="M652 64v-64h-563v64l166 52v1133l-166 51v65h563v-65l-166 -51v-1133zM90 1571v124h562v-124h-562z" />
    <glyph glyph-name="imacron" unicode="&#x12b;" horiz-adv-x="611" 
d="M433 935l-11 -202v-628l147 -46v-59h-503v59l147 46v605q-11 12 -36 28t-56 32.5t-61 29.5v45l331 90h42zM26 1156v123h554v-123h-554z" />
    <glyph glyph-name="Ibreve" unicode="&#x12c;" horiz-adv-x="741" 
d="M652 64v-64h-563v64l166 52v1133l-166 51v65h563v-65l-166 -51v-1133zM371 1634q83 0 132.5 30t68.5 103h94q-21 -105 -57 -165t-94 -84.5t-144 -24.5t-144 24.5t-93.5 84.5t-57.5 165h94q19 -73 68.5 -103t132.5 -30z" />
    <glyph glyph-name="ibreve" unicode="&#x12d;" horiz-adv-x="611" 
d="M433 935l-11 -202v-628l147 -46v-59h-503v59l147 46v605q-11 12 -36 28t-56 32.5t-61 29.5v45l331 90h42zM303 1193q58 0 99.5 19t69 61t41.5 108h88q-22 -129 -58.5 -202.5t-94.5 -104t-145 -30.5t-145 30.5t-94.5 104t-58.5 202.5h88q14 -66 41.5 -108t69.5 -61t99 -19
z" />
    <glyph glyph-name="Iogonek" unicode="&#x12e;" horiz-adv-x="741" 
d="M652 64v-64h-563v64l166 52v1133l-166 51v65h563v-65l-166 -51v-1133zM365 -99q-24 -46 -37 -81t-18 -62.5t-5 -52.5q0 -48 28 -74t74 -26q31 0 62 13t76 52l21 -49q-39 -47 -75 -75.5t-72.5 -41t-79.5 -12.5q-83 0 -128.5 44.5t-45.5 119.5q0 33 8 67t30.5 77.5
t66.5 104.5l101 144h69z" />
    <glyph glyph-name="iogonek" unicode="&#x12f;" horiz-adv-x="611" 
d="M307 1171q-68 0 -109 37.5t-41 98.5q0 62 41 99t109 37t109 -37t41 -99q0 -61 -41 -98.5t-109 -37.5zM433 935l-11 -202v-628l147 -46v-59h-503v59l147 46v605q-11 12 -36 28t-56 32.5t-61 29.5v45l331 90h42zM313 -101q-24 -46 -37.5 -80.5t-19 -61t-5.5 -51.5
q0 -49 28 -75t74 -26q32 0 63 13t76 52l21 -49q-60 -70 -111.5 -99.5t-115.5 -29.5q-83 0 -129 44.5t-46 119.5q0 33 8.5 67t31.5 77.5t67 103.5l104 145h68z" />
    <glyph glyph-name="Idotaccent" unicode="&#x130;" horiz-adv-x="741" 
d="M652 64v-64h-563v64l166 52v1133l-166 51v65h563v-65l-166 -51v-1133zM371 1508q-65 0 -101.5 35t-36.5 91t36.5 90t101.5 34t101.5 -34t36.5 -90t-36.5 -91t-101.5 -35z" />
    <glyph glyph-name="dotlessi" unicode="&#x131;" horiz-adv-x="611" 
d="M433 935l-11 -202v-628l147 -46v-59h-503v59l147 46v605q-11 12 -36 28t-56 32.5t-61 29.5v45l331 90h42z" />
    <glyph glyph-name="Jcircumflex" unicode="&#x134;" horiz-adv-x="972" 
d="M748 430q0 -105 -35 -188t-100 -141.5t-156 -90t-204 -31.5q-81 0 -133.5 18t-78 50t-25.5 74q0 43 25.5 72.5t72.5 29.5q18 0 40 -17t49 -38.5t59.5 -38t72.5 -16.5q83 0 131.5 54.5t48.5 187.5v894l-168 51v65h565v-65l-165 -51zM610 1653h42l-219 -154h-123l227 268
h188l227 -268h-123z" />
    <glyph glyph-name="jcircumflex" unicode="&#x135;" horiz-adv-x="549" 
d="M191 710q-11 12 -36.5 28t-56 32.5t-60.5 29.5v45l330 90h43l-11 -202v-766q0 -61 -6.5 -106.5t-25 -84.5t-56 -78.5t-100 -89t-155.5 -116.5l-60 71q67 70 106 116t58 80.5t24.5 68.5t5.5 80v802zM-39 1052l220 329h188l220 -329h-113l-227 206h52l-227 -206h-113z" />
    <glyph glyph-name="uni0136" unicode="&#x136;" horiz-adv-x="1545" 
d="M1397 115l152 -51v-64h-537v52l98 46l-481 543h-221v128h239l474 486l-156 45v65h481v-65l-156 -50l-556 -548l47 102zM486 1249v-1133l165 -52v-64h-562v64l166 52v1133l-166 51v65h563v-65zM682 -433q78 21 104.5 42.5t26.5 56.5q0 27 -18.5 44t-43.5 28.5t-43.5 21.5
t-18.5 23q0 54 33.5 86t94.5 32q59 0 96.5 -37.5t37.5 -113.5q0 -56 -20.5 -105.5t-74.5 -87.5t-154 -61z" />
    <glyph glyph-name="uni0137" unicode="&#x137;" horiz-adv-x="1171" 
d="M603 495l52 91l397 -480l122 -48v-58h-438v58l71 36l-296 357h-171v113h203l261 250l-135 38v61h429v-61l-136 -37zM396 104l144 -45v-59h-501v59l148 46v1107q-13 13 -39 29t-60 33t-73 33v48l361 88h35l-15 -193v-1146zM488 -433q78 21 104.5 42.5t26.5 56.5
q0 27 -18.5 44t-43.5 28.5t-43.5 21.5t-18.5 23q0 54 33.5 86t94.5 32q59 0 96.5 -37.5t37.5 -113.5q0 -56 -20.5 -105.5t-74.5 -87.5t-154 -61z" />
    <glyph glyph-name="kgreenlandic" unicode="&#x138;" horiz-adv-x="1195" 
d="M536 425h-171v113h203l261 276l-135 38v61h428v-61l-135 -37l-359 -346l54 90l394 -453l123 -48v-58h-441v58l71 36zM431 935l-10 -202v-629l144 -45v-59h-501v59l148 46v605q-12 12 -37 28t-55.5 32.5t-61.5 29.5v45l331 90h42z" />
    <glyph glyph-name="Lacute" unicode="&#x139;" horiz-adv-x="1277" 
d="M1150 -70h-63l-102 70h-628l1 130h709l-115 -55l204 376l81 -7zM486 1249v-1249h-397v64l166 52v1133l-166 51v65h563v-65zM318 1499l130 268h257v-31l-293 -237h-94z" />
    <glyph glyph-name="lacute" unicode="&#x13a;" horiz-adv-x="587" 
d="M398 105l148 -46v-59h-504v59l148 46v1107q-14 13 -39.5 29t-60 33t-73.5 33v48l362 88h35l-16 -193v-1145zM226 1546l130 268h257v-31l-293 -237h-94z" />
    <glyph glyph-name="uni013B" unicode="&#x13b;" horiz-adv-x="1277" 
d="M1150 -70h-63l-102 70h-628l1 130h709l-115 -55l204 376l81 -7zM486 1249v-1249h-397v64l166 52v1133l-166 51v65h563v-65zM520 -433q78 21 104.5 42.5t26.5 56.5q0 27 -18.5 44t-43.5 28.5t-43.5 21.5t-18.5 23q0 54 33.5 86t94.5 32q59 0 96.5 -37.5t37.5 -113.5
q0 -56 -20.5 -105.5t-74.5 -87.5t-154 -61z" />
    <glyph glyph-name="uni013C" unicode="&#x13c;" horiz-adv-x="587" 
d="M398 105l148 -46v-59h-504v59l148 46v1107q-14 13 -39.5 29t-60 33t-73.5 33v48l362 88h35l-16 -193v-1145zM166 -433q78 21 104.5 42.5t26.5 56.5q0 27 -18.5 44t-43.5 28.5t-43.5 21.5t-18.5 23q0 54 33.5 86t94.5 32q59 0 96.5 -37.5t37.5 -113.5q0 -56 -20.5 -105.5
t-74.5 -87.5t-154 -61z" />
    <glyph glyph-name="Lcaron" unicode="&#x13d;" horiz-adv-x="1281" 
d="M1150 -70h-63l-102 70h-628l1 130h709l-115 -55l204 376l81 -7zM486 1249v-1249h-397v64l166 52v1133l-166 51v65h563v-65zM846 980l51 384h217v-29l-176 -355h-92z" />
    <glyph glyph-name="lcaron" unicode="&#x13e;" horiz-adv-x="585" 
d="M398 105l148 -46v-59h-504v59l148 46v1107q-14 13 -39.5 29t-60 33t-73.5 33v48l362 88h35l-16 -193v-1145zM525 1037l51 384h217v-29l-176 -355h-92z" />
    <glyph glyph-name="Ldot" unicode="&#x13f;" horiz-adv-x="1280" 
d="M1150 -70h-63l-102 70h-628l1 130h709l-115 -55l204 376l81 -7zM486 1249v-1249h-397v64l166 52v1133l-166 51v65h563v-65zM1008 606q-65 0 -101.5 35t-36.5 91t36.5 90t101.5 34t101.5 -34t36.5 -90t-36.5 -91t-101.5 -35z" />
    <glyph glyph-name="ldot" unicode="&#x140;" horiz-adv-x="649" 
d="M398 105l148 -46v-59h-504v59l148 46v1107q-14 13 -39.5 29t-60 33t-73.5 33v48l362 88h35l-16 -193v-1145zM618 410q-65 0 -101.5 35t-36.5 91t36.5 90t101.5 34t101.5 -34t36.5 -90t-36.5 -91t-101.5 -35z" />
    <glyph glyph-name="Lslash" unicode="&#x141;" horiz-adv-x="1311" 
d="M350 577l-256 -147v130l256 147l94 27l383 219v-130l-383 -219zM1184 -70h-63l-102 70h-628l1 130h709l-115 -55l205 376l81 -7zM520 1249v-1249h-397v64l166 52v1133l-166 51v65h564v-65z" />
    <glyph glyph-name="lslash" unicode="&#x142;" horiz-adv-x="685" 
d="M302 559l-225 -182v137l225 181l91 34l235 189v-136l-235 -189zM450 105l147 -46v-59h-504v59l148 46v1107q-14 13 -39.5 29t-60 33t-73.5 33v48l362 88h35l-15 -193v-1145z" />
    <glyph glyph-name="Nacute" unicode="&#x143;" horiz-adv-x="1597" 
d="M256 115v1122l-171 64v64h434l768 -1133l-60 -72v1089l-178 51v65h474v-65l-164 -51v-1259h-176l-839 1236l45 27v-1138l178 -51v-64h-475v64zM771 1499l130 268h257v-31l-293 -237h-94z" />
    <glyph glyph-name="nacute" unicode="&#x144;" horiz-adv-x="1224" 
d="M421 736v-634l139 -43v-59h-496v59l148 46v591q-18 18 -54 39.5t-100 51.5v37l282 113h33zM699 59l139 43v487q0 55 -21 92t-64 56t-110 19q-70 0 -134.5 -21t-102.5 -52l-32 41q70 65 123 106.5t96.5 64.5t86 31.5t92.5 8.5q140 0 207.5 -79.5t67.5 -245.5v-505l149 -46
v-59h-497v59zM567 1052l159 329h254v-33l-319 -296h-94z" />
    <glyph glyph-name="uni0145" unicode="&#x145;" horiz-adv-x="1597" 
d="M256 115v1122l-171 64v64h434l768 -1133l-60 -72v1089l-178 51v65h474v-65l-164 -51v-1259h-176l-839 1236l45 27v-1138l178 -51v-64h-475v64zM703 -433q78 21 104.5 42.5t26.5 56.5q0 27 -18.5 44t-43.5 28.5t-43.5 21.5t-18.5 23q0 54 33.5 86t94.5 32q59 0 96.5 -37.5
t37.5 -113.5q0 -56 -20.5 -105.5t-74.5 -87.5t-154 -61z" />
    <glyph glyph-name="uni0146" unicode="&#x146;" horiz-adv-x="1224" 
d="M421 736v-634l139 -43v-59h-496v59l148 46v591q-18 18 -54 39.5t-100 51.5v37l282 113h33zM699 59l139 43v487q0 55 -21 92t-64 56t-110 19q-70 0 -134.5 -21t-102.5 -52l-32 41q70 65 123 106.5t96.5 64.5t86 31.5t92.5 8.5q140 0 207.5 -79.5t67.5 -245.5v-505l149 -46
v-59h-497v59zM501 -433q78 21 104.5 42.5t26.5 56.5q0 27 -18.5 44t-43.5 28.5t-43.5 21.5t-18.5 23q0 54 33.5 86t94.5 32q59 0 96.5 -37.5t37.5 -113.5q0 -56 -20.5 -105.5t-74.5 -87.5t-154 -61z" />
    <glyph glyph-name="Ncaron" unicode="&#x147;" horiz-adv-x="1597" 
d="M256 115v1122l-171 64v64h434l768 -1133l-60 -72v1089l-178 51v65h474v-65l-164 -51v-1259h-176l-839 1236l45 27v-1138l178 -51v-64h-475v64zM845 1613h-42l219 154h123l-227 -268h-188l-227 268h123z" />
    <glyph glyph-name="ncaron" unicode="&#x148;" horiz-adv-x="1224" 
d="M421 736v-634l139 -43v-59h-496v59l148 46v591q-18 18 -54 39.5t-100 51.5v37l282 113h33zM699 59l139 43v487q0 55 -21 92t-64 56t-110 19q-70 0 -134.5 -21t-102.5 -52l-32 41q70 65 123 106.5t96.5 64.5t86 31.5t92.5 8.5q140 0 207.5 -79.5t67.5 -245.5v-505l149 -46
v-59h-497v59zM659 1175h-52l227 206h113l-220 -329h-188l-220 329h113z" />
    <glyph glyph-name="Eng" unicode="&#x14a;" horiz-adv-x="1597" 
d="M1278 301l-5 -386l-929 1311l45 27v-1138l178 -51v-64h-475v64l164 51v1122l-171 64v64h439zM1359 -77q0 -148 -44.5 -244t-130 -141.5t-206.5 -45.5q-118 0 -172.5 37t-54.5 96q0 40 23.5 70t63.5 30q17 0 38 -14t46 -32.5t53 -32.5t58 -14q58 0 101.5 25.5t68 87.5
t24.5 171v1333l-178 51v65h474v-65l-164 -51v-1326z" />
    <glyph glyph-name="eng" unicode="&#x14b;" horiz-adv-x="1180" 
d="M421 736v-634l139 -43v-59h-496v59l148 46v591q-18 18 -54 39.5t-100 51.5v37l282 113h33zM838 -92v681q0 55 -21 92t-64 56t-110 19q-70 0 -134.5 -21t-102.5 -52l-32 41q70 65 123 106.5t96.5 64.5t86 31.5t92.5 8.5q140 0 207.5 -79.5t67.5 -245.5v-643
q0 -61 -6.5 -106.5t-25.5 -84.5t-56.5 -78.5t-100 -89t-154.5 -116.5l-61 71q67 70 106.5 116t58.5 80.5t24.5 68.5t5.5 80z" />
    <glyph glyph-name="Omacron" unicode="&#x14c;" horiz-adv-x="1595" 
d="M801 1387q157 0 285 -51t220.5 -144t142.5 -222t50 -286q0 -156 -51 -285.5t-144.5 -224t-223 -145.5t-286.5 -51t-285 51t-220.5 144t-142 222t-49.5 285q0 157 50.5 286.5t144 224t223 145.5t286.5 51zM806 112q141 0 241.5 63t154.5 182t54 287q0 196 -57 331.5
t-162 206t-248 70.5q-140 0 -241 -62.5t-154.5 -181.5t-53.5 -287q0 -195 57 -331t161.5 -207t247.5 -71zM516 1571v124h562v-124h-562z" />
    <glyph glyph-name="omacron" unicode="&#x14d;" horiz-adv-x="1111" 
d="M555 92q78 0 135.5 35t89 109.5t31.5 192.5q0 130 -30 217t-86.5 131t-138.5 44q-78 0 -135.5 -35t-89 -109t-31.5 -193q0 -128 29.5 -215.5t87 -132t138.5 -44.5zM549 -22q-143 0 -249 59t-163.5 165t-57.5 247q0 144 61 253.5t169.5 171t252.5 61.5t249.5 -58.5
t163 -164.5t57.5 -248q0 -144 -60.5 -253.5t-169.5 -171t-253 -61.5zM279 1156v123h554v-123h-554z" />
    <glyph glyph-name="Obreve" unicode="&#x14e;" horiz-adv-x="1595" 
d="M801 1387q157 0 285 -51t220.5 -144t142.5 -222t50 -286q0 -156 -51 -285.5t-144.5 -224t-223 -145.5t-286.5 -51t-285 51t-220.5 144t-142 222t-49.5 285q0 157 50.5 286.5t144 224t223 145.5t286.5 51zM806 112q141 0 241.5 63t154.5 182t54 287q0 196 -57 331.5
t-162 206t-248 70.5q-140 0 -241 -62.5t-154.5 -181.5t-53.5 -287q0 -195 57 -331t161.5 -207t247.5 -71zM797 1634q83 0 132.5 30t68.5 103h94q-21 -105 -57 -165t-94 -84.5t-144 -24.5t-144 24.5t-93.5 84.5t-57.5 165h94q19 -73 68.5 -103t132.5 -30z" />
    <glyph glyph-name="obreve" unicode="&#x14f;" horiz-adv-x="1111" 
d="M555 92q78 0 135.5 35t89 109.5t31.5 192.5q0 130 -30 217t-86.5 131t-138.5 44q-78 0 -135.5 -35t-89 -109t-31.5 -193q0 -128 29.5 -215.5t87 -132t138.5 -44.5zM549 -22q-143 0 -249 59t-163.5 165t-57.5 247q0 144 61 253.5t169.5 171t252.5 61.5t249.5 -58.5
t163 -164.5t57.5 -248q0 -144 -60.5 -253.5t-169.5 -171t-253 -61.5zM556 1193q58 0 99.5 19t69 61t41.5 108h88q-22 -129 -58.5 -202.5t-94.5 -104t-145 -30.5t-145 30.5t-94.5 104t-58.5 202.5h88q14 -66 41.5 -108t69.5 -61t99 -19z" />
    <glyph glyph-name="Ohungarumlaut" unicode="&#x150;" horiz-adv-x="1595" 
d="M801 1387q157 0 285 -51t220.5 -144t142.5 -222t50 -286q0 -156 -51 -285.5t-144.5 -224t-223 -145.5t-286.5 -51t-285 51t-220.5 144t-142 222t-49.5 285q0 157 50.5 286.5t144 224t223 145.5t286.5 51zM806 112q141 0 241.5 63t154.5 182t54 287q0 196 -57 331.5
t-162 206t-248 70.5q-140 0 -241 -62.5t-154.5 -181.5t-53.5 -287q0 -195 57 -331t161.5 -207t247.5 -71zM880 1499l161 268h253v-30l-320 -238h-94zM606 1499l67 268h232v-26l-215 -242h-84z" />
    <glyph glyph-name="ohungarumlaut" unicode="&#x151;" horiz-adv-x="1111" 
d="M555 92q78 0 135.5 35t89 109.5t31.5 192.5q0 130 -30 217t-86.5 131t-138.5 44q-78 0 -135.5 -35t-89 -109t-31.5 -193q0 -128 29.5 -215.5t87 -132t138.5 -44.5zM549 -22q-143 0 -249 59t-163.5 165t-57.5 247q0 144 61 253.5t169.5 171t252.5 61.5t249.5 -58.5
t163 -164.5t57.5 -248q0 -144 -60.5 -253.5t-169.5 -171t-253 -61.5zM629 1052l157 329h242v-33l-305 -296h-94zM354 1052l70 329h225v-29l-210 -300h-85z" />
    <glyph glyph-name="OE" unicode="&#x152;" horiz-adv-x="2183" 
d="M1791 973v-259v-260h-101l-21 198h-483v125h483l21 196h101zM1084 1365h231v-1365h-231v1365zM874 0q-254 0 -427 75t-261 222t-88 362q0 172 58.5 304t164 221.5t247 135t308.5 45.5h990l107 61h52l47 -446l-85 -7l-152 317l73 -53h-1009q-167 0 -292.5 -58.5
t-195 -184.5t-69.5 -329q0 -183 70 -302.5t201.5 -177.5t316.5 -58h976l-61 -55l187 343l79 -8l-77 -475h-59l-99 68h-1002z" />
    <glyph glyph-name="oe" unicode="&#x153;" horiz-adv-x="1731" 
d="M555 92q78 0 135.5 35t89 109.5t31.5 192.5q0 130 -30 217t-86.5 131t-138.5 44q-78 0 -135.5 -35t-89 -109t-31.5 -193q0 -128 29.5 -215.5t87 -132t138.5 -44.5zM968 219q-63 -112 -170.5 -176.5t-248.5 -64.5q-143 0 -249 59t-163.5 165t-57.5 247q0 144 61 253.5
t169.5 171t252.5 61.5q140 0 243 -60.5t164 -168.5h-83q58 106 155 167.5t226 61.5q124 0 207 -51t127.5 -149.5t52.5 -241.5h-672v95l545 17l-86 -42q-4 89 -26.5 147t-62.5 87.5t-100 29.5q-69 0 -120.5 -34.5t-79 -106t-27.5 -183.5q0 -119 41 -200t119.5 -122t188.5 -41
q49 0 93 9.5t86 27t81 42.5l19 -60q-60 -59 -122 -99t-126.5 -61t-132.5 -21q-136 0 -237 64t-158 177h91z" />
    <glyph glyph-name="Racute" unicode="&#x154;" horiz-adv-x="1394" 
d="M718 747q120 0 194 60.5t74 183.5q0 79 -32.5 133.5t-108.5 82.5t-206 28h-315l13 130h412q171 0 274.5 -45t150.5 -122.5t47 -175.5q0 -91 -39 -162.5t-116 -117.5t-193 -63v7q82 -5 131 -28t79 -69t51 -119l76 -244q19 -65 39 -95t49 -38t76 -8v-86
q-114 -7 -183.5 -3.5t-110 23t-63 59t-40.5 105.5l-70 242q-22 78 -44.5 120.5t-59.5 59.5t-102 17h-366l-13 125h396zM486 1365v-1249l164 -52v-64h-561v64l166 52v1133l-166 51v65h397zM637 1499l130 268h257v-31l-293 -237h-94z" />
    <glyph glyph-name="racute" unicode="&#x155;" horiz-adv-x="860" 
d="M722 929q56 0 83 -29t27 -77q0 -57 -29 -90t-70 -33q-36 0 -68.5 6.5t-65 12.5t-69.5 6q-24 0 -49 -5t-49.5 -15.5t-47.5 -27.5l-26 41q68 60 121 100.5t96 65t79 35t68 10.5zM421 736v-630l159 -47v-59h-516v59l148 46v591q-14 14 -36.5 28.5t-52.5 30.5t-65 32v37
l297 113h32zM379 1052l159 329h254v-33l-319 -296h-94z" />
    <glyph glyph-name="uni0156" unicode="&#x156;" horiz-adv-x="1394" 
d="M718 747q120 0 194 60.5t74 183.5q0 79 -32.5 133.5t-108.5 82.5t-206 28h-315l13 130h412q171 0 274.5 -45t150.5 -122.5t47 -175.5q0 -91 -39 -162.5t-116 -117.5t-193 -63v7q82 -5 131 -28t79 -69t51 -119l76 -244q19 -65 39 -95t49 -38t76 -8v-86
q-114 -7 -183.5 -3.5t-110 23t-63 59t-40.5 105.5l-70 242q-22 78 -44.5 120.5t-59.5 59.5t-102 17h-366l-13 125h396zM486 1365v-1249l164 -52v-64h-561v64l166 52v1133l-166 51v65h397zM646 -433q78 21 104.5 42.5t26.5 56.5q0 27 -18.5 44t-43.5 28.5t-43.5 21.5
t-18.5 23q0 54 33.5 86t94.5 32q59 0 96.5 -37.5t37.5 -113.5q0 -56 -20.5 -105.5t-74.5 -87.5t-154 -61z" />
    <glyph glyph-name="uni0157" unicode="&#x157;" horiz-adv-x="860" 
d="M722 929q56 0 83 -29t27 -77q0 -57 -29 -90t-70 -33q-36 0 -68.5 6.5t-65 12.5t-69.5 6q-24 0 -49 -5t-49.5 -15.5t-47.5 -27.5l-26 41q68 60 121 100.5t96 65t79 35t68 10.5zM421 736v-630l159 -47v-59h-516v59l148 46v591q-14 14 -36.5 28.5t-52.5 30.5t-65 32v37
l297 113h32zM188 -433q78 21 104.5 42.5t26.5 56.5q0 27 -18.5 44t-43.5 28.5t-43.5 21.5t-18.5 23q0 54 33.5 86t94.5 32q59 0 96.5 -37.5t37.5 -113.5q0 -56 -20.5 -105.5t-74.5 -87.5t-154 -61z" />
    <glyph glyph-name="Rcaron" unicode="&#x158;" horiz-adv-x="1394" 
d="M718 747q120 0 194 60.5t74 183.5q0 79 -32.5 133.5t-108.5 82.5t-206 28h-315l13 130h412q171 0 274.5 -45t150.5 -122.5t47 -175.5q0 -91 -39 -162.5t-116 -117.5t-193 -63v7q82 -5 131 -28t79 -69t51 -119l76 -244q19 -65 39 -95t49 -38t76 -8v-86
q-114 -7 -183.5 -3.5t-110 23t-63 59t-40.5 105.5l-70 242q-22 78 -44.5 120.5t-59.5 59.5t-102 17h-366l-13 125h396zM486 1365v-1249l164 -52v-64h-561v64l166 52v1133l-166 51v65h397zM711 1613h-42l219 154h123l-227 -268h-188l-227 268h123z" />
    <glyph glyph-name="rcaron" unicode="&#x159;" horiz-adv-x="860" 
d="M722 929q56 0 83 -29t27 -77q0 -57 -29 -90t-70 -33q-36 0 -68.5 6.5t-65 12.5t-69.5 6q-24 0 -49 -5t-49.5 -15.5t-47.5 -27.5l-26 41q68 60 121 100.5t96 65t79 35t68 10.5zM421 736v-630l159 -47v-59h-516v59l148 46v591q-14 14 -36.5 28.5t-52.5 30.5t-65 32v37
l297 113h32zM471 1175h-52l227 206h113l-220 -329h-188l-220 329h113z" />
    <glyph glyph-name="Sacute" unicode="&#x15a;" horiz-adv-x="1183" 
d="M968 1304l-149 28l114 99h57l45 -467l-88 -6l-154 302l55 -64q-56 39 -115.5 55.5t-130.5 16.5q-133 0 -204.5 -51.5t-71.5 -149.5q0 -64 28.5 -105.5t78 -69.5t113 -48t133.5 -41q71 -20 141.5 -47t130 -70t95.5 -112.5t36 -173.5q0 -141 -68 -234.5t-189.5 -140.5
t-284.5 -47q-108 0 -193.5 12t-175.5 45l-77 377h93l233 -373l-203 140q82 -41 150 -59.5t152 -18.5q117 0 195.5 25.5t117.5 78.5t39 135q0 73 -34.5 119.5t-92 75.5t-127 49.5t-138.5 42.5q-70 21 -133 49t-112.5 70t-78 105t-28.5 155q0 121 59 205.5t169.5 130
t262.5 45.5q98 0 181 -19.5t169 -63.5zM525 1499l130 268h257v-31l-293 -237h-94z" />
    <glyph glyph-name="sacute" unicode="&#x15b;" horiz-adv-x="856" 
d="M463 935q69 0 127 -11t127 -38l19 -248h-80l-111 244l100 -95q-48 26 -94 39t-90 13q-89 0 -136.5 -31t-47.5 -89q0 -50 28.5 -79.5t80.5 -49t122 -39.5q52 -15 99.5 -35.5t84.5 -52t58.5 -78.5t21.5 -115q0 -94 -47.5 -159t-134.5 -98.5t-208 -33.5q-71 0 -138.5 10.5
t-120.5 31.5l-41 262h81l136 -262l-129 90q36 -15 68 -23t62.5 -10.5t58.5 -2.5q112 0 170.5 36.5t58.5 109.5q0 44 -21.5 71.5t-58.5 45t-84 31.5t-98 30q-68 22 -118.5 54.5t-78 84t-27.5 130.5q0 86 45.5 145.5t127 90.5t188.5 31zM361 1052l159 329h254v-33l-319 -296
h-94z" />
    <glyph glyph-name="Scircumflex" unicode="&#x15c;" horiz-adv-x="1183" 
d="M968 1304l-149 28l114 99h57l45 -467l-88 -6l-154 302l55 -64q-56 39 -115.5 55.5t-130.5 16.5q-133 0 -204.5 -51.5t-71.5 -149.5q0 -64 28.5 -105.5t78 -69.5t113 -48t133.5 -41q71 -20 141.5 -47t130 -70t95.5 -112.5t36 -173.5q0 -141 -68 -234.5t-189.5 -140.5
t-284.5 -47q-108 0 -193.5 12t-175.5 45l-77 377h93l233 -373l-203 140q82 -41 150 -59.5t152 -18.5q117 0 195.5 25.5t117.5 78.5t39 135q0 73 -34.5 119.5t-92 75.5t-127 49.5t-138.5 42.5q-70 21 -133 49t-112.5 70t-78 105t-28.5 155q0 121 59 205.5t169.5 130
t262.5 45.5q98 0 181 -19.5t169 -63.5zM557 1653h42l-219 -154h-123l227 268h188l227 -268h-123z" />
    <glyph glyph-name="scircumflex" unicode="&#x15d;" horiz-adv-x="856" 
d="M463 935q69 0 127 -11t127 -38l19 -248h-80l-111 244l100 -95q-48 26 -94 39t-90 13q-89 0 -136.5 -31t-47.5 -89q0 -50 28.5 -79.5t80.5 -49t122 -39.5q52 -15 99.5 -35.5t84.5 -52t58.5 -78.5t21.5 -115q0 -94 -47.5 -159t-134.5 -98.5t-208 -33.5q-71 0 -138.5 10.5
t-120.5 31.5l-41 262h81l136 -262l-129 90q36 -15 68 -23t62.5 -10.5t58.5 -2.5q112 0 170.5 36.5t58.5 109.5q0 44 -21.5 71.5t-58.5 45t-84 31.5t-98 30q-68 22 -118.5 54.5t-78 84t-27.5 130.5q0 86 45.5 145.5t127 90.5t188.5 31zM113 1052l220 329h188l220 -329h-113
l-227 206h52l-227 -206h-113z" />
    <glyph glyph-name="Scedilla" unicode="&#x15e;" horiz-adv-x="1183" 
d="M968 1304l-149 28l114 99h57l45 -467l-88 -6l-154 302l55 -64q-56 39 -115.5 55.5t-130.5 16.5q-133 0 -204.5 -51.5t-71.5 -149.5q0 -64 28.5 -105.5t78 -69.5t113 -48t133.5 -41q71 -20 141.5 -47t130 -70t95.5 -112.5t36 -173.5q0 -141 -68 -234.5t-189.5 -140.5
t-284.5 -47q-108 0 -193.5 12t-175.5 45l-77 377h93l233 -373l-203 140q82 -41 150 -59.5t152 -18.5q117 0 195.5 25.5t117.5 78.5t39 135q0 73 -34.5 119.5t-92 75.5t-127 49.5t-138.5 42.5q-70 21 -133 49t-112.5 70t-78 105t-28.5 155q0 121 59 205.5t169.5 130
t262.5 45.5q98 0 181 -19.5t169 -63.5zM499 -508q-82 0 -115.5 25t-33.5 61q0 26 17 41.5t39 15.5t41 -16t41.5 -32.5t55.5 -16.5q47 0 73.5 22t26.5 62q0 30 -19 52t-68.5 38t-140.5 29v20l191 250h93l-185 -249l-3 96q101 -17 156 -45t76 -63.5t21 -78.5
q0 -64 -35.5 -111.5t-95.5 -73.5t-135 -26z" />
    <glyph glyph-name="scedilla" unicode="&#x15f;" horiz-adv-x="856" 
d="M463 935q69 0 127 -11t127 -38l19 -248h-80l-111 244l100 -95q-48 26 -94 39t-90 13q-89 0 -136.5 -31t-47.5 -89q0 -50 28.5 -79.5t80.5 -49t122 -39.5q52 -15 99.5 -35.5t84.5 -52t58.5 -78.5t21.5 -115q0 -94 -47.5 -159t-134.5 -98.5t-208 -33.5q-71 0 -138.5 10.5
t-120.5 31.5l-41 262h81l136 -262l-129 90q36 -15 68 -23t62.5 -10.5t58.5 -2.5q112 0 170.5 36.5t58.5 109.5q0 44 -21.5 71.5t-58.5 45t-84 31.5t-98 30q-68 22 -118.5 54.5t-78 84t-27.5 130.5q0 86 45.5 145.5t127 90.5t188.5 31zM341 -508q-82 0 -115.5 25t-33.5 61
q0 26 16.5 41.5t39.5 15.5q22 0 40.5 -16t41 -32.5t56.5 -16.5q47 0 73 22t26 62q0 30 -19 52t-68 38t-141 29v20l191 250h94l-185 -249l-4 96q101 -17 156 -45t76.5 -63.5t21.5 -78.5q0 -64 -35.5 -111.5t-96 -73.5t-134.5 -26z" />
    <glyph glyph-name="Scaron" unicode="&#x160;" horiz-adv-x="1183" 
d="M968 1304l-149 28l114 99h57l45 -467l-88 -6l-154 302l55 -64q-56 39 -115.5 55.5t-130.5 16.5q-133 0 -204.5 -51.5t-71.5 -149.5q0 -64 28.5 -105.5t78 -69.5t113 -48t133.5 -41q71 -20 141.5 -47t130 -70t95.5 -112.5t36 -173.5q0 -141 -68 -234.5t-189.5 -140.5
t-284.5 -47q-108 0 -193.5 12t-175.5 45l-77 377h93l233 -373l-203 140q82 -41 150 -59.5t152 -18.5q117 0 195.5 25.5t117.5 78.5t39 135q0 73 -34.5 119.5t-92 75.5t-127 49.5t-138.5 42.5q-70 21 -133 49t-112.5 70t-78 105t-28.5 155q0 121 59 205.5t169.5 130
t262.5 45.5q98 0 181 -19.5t169 -63.5zM599 1613h-42l219 154h123l-227 -268h-188l-227 268h123z" />
    <glyph glyph-name="scaron" unicode="&#x161;" horiz-adv-x="856" 
d="M463 935q69 0 127 -11t127 -38l19 -248h-80l-111 244l100 -95q-48 26 -94 39t-90 13q-89 0 -136.5 -31t-47.5 -89q0 -50 28.5 -79.5t80.5 -49t122 -39.5q52 -15 99.5 -35.5t84.5 -52t58.5 -78.5t21.5 -115q0 -94 -47.5 -159t-134.5 -98.5t-208 -33.5q-71 0 -138.5 10.5
t-120.5 31.5l-41 262h81l136 -262l-129 90q36 -15 68 -23t62.5 -10.5t58.5 -2.5q112 0 170.5 36.5t58.5 109.5q0 44 -21.5 71.5t-58.5 45t-84 31.5t-98 30q-68 22 -118.5 54.5t-78 84t-27.5 130.5q0 86 45.5 145.5t127 90.5t188.5 31zM453 1175h-52l227 206h113l-220 -329
h-188l-220 329h113z" />
    <glyph glyph-name="uni0162" unicode="&#x162;" horiz-adv-x="1412" 
d="M589 1302h232v-1186l171 -52v-64h-574v64l171 52v1186zM1220 1235h-1035l92 36l-144 -316l-87 6l52 481h56l129 -99l-108 22h1055l-101 -22l129 99h56l52 -481l-87 -6l-144 316zM610 -508q-82 0 -115.5 25t-33.5 61q0 26 16.5 41.5t39.5 15.5q22 0 41 -16t41.5 -32.5
t55.5 -16.5q47 0 73.5 22t26.5 62q0 30 -19 52t-68.5 38t-140.5 29v20l190 250h94l-185 -249l-4 96q102 -17 157 -45t76 -63.5t21 -78.5q0 -64 -35.5 -111.5t-96 -73.5t-134.5 -26z" />
    <glyph glyph-name="uni0163" unicode="&#x163;" horiz-adv-x="763" 
d="M388 275q0 -71 42 -104t127 -33q39 0 84.5 7.5t98.5 22.5v-67q-71 -46 -125 -72.5t-97 -37.5t-82 -11q-76 0 -134 26t-90.5 79.5t-32.5 132.5v536l-141 82v41q34 17 65.5 35.5t61.5 38t58 41t55 45t52 48.5h58v-201v-609zM305 786l2 127h405l-11 -127h-396zM357 -508
q-82 0 -115.5 25t-33.5 61q0 26 16.5 41.5t39.5 15.5q22 0 40.5 -16t41 -32.5t55.5 -16.5q47 0 73.5 22t26.5 62q0 30 -19 52t-68 38t-141 29v20l191 250h94l-185 -249l-4 96q101 -17 156 -45t76.5 -63.5t21.5 -78.5q0 -64 -35.5 -111.5t-96 -73.5t-134.5 -26z" />
    <glyph glyph-name="Tcaron" unicode="&#x164;" horiz-adv-x="1412" 
d="M589 1302h232v-1186l171 -52v-64h-574v64l171 52v1186zM1220 1235h-1035l92 36l-144 -316l-87 6l52 481h56l129 -99l-108 22h1055l-101 -22l129 99h56l52 -481l-87 -6l-144 316zM727 1613h-42l219 154h123l-227 -268h-188l-227 268h123z" />
    <glyph glyph-name="tcaron" unicode="&#x165;" horiz-adv-x="763" 
d="M388 275q0 -71 42 -104t127 -33q39 0 84.5 7.5t98.5 22.5v-67q-71 -46 -125 -72.5t-97 -37.5t-82 -11q-76 0 -134 26t-90.5 79.5t-32.5 132.5v536l-141 82v41q33 17 64.5 35t61.5 37.5t58 41t55 45t53 49.5h58v-201v-609zM305 786l2 127h405l-11 -127h-396zM492 1017
l51 384h217v-29l-176 -355h-92z" />
    <glyph glyph-name="Tbar" unicode="&#x166;" horiz-adv-x="1415" 
d="M308 635v117h796v-117h-796zM591 1302h231v-1186l171 -52v-64h-574v64l172 52v1186zM1221 1235h-1035l92 36l-143 -316l-88 6l52 481h56l130 -99l-109 22h1055l-101 -22l130 99h55l52 -481l-87 -6l-143 316z" />
    <glyph glyph-name="tbar" unicode="&#x167;" horiz-adv-x="776" 
d="M44 438v107h622v-107h-622zM399 275q0 -71 42 -104t127 -33q39 0 84.5 7.5t98.5 22.5v-67q-71 -46 -125 -72.5t-97 -37.5t-82 -11q-76 0 -134 26t-90.5 79.5t-32.5 132.5v536l-141 82v41q34 17 65.5 35.5t61.5 38t58 41t54.5 45t52.5 48.5h58v-201v-609zM316 786l2 127
h405l-11 -127h-396z" />
    <glyph glyph-name="Utilde" unicode="&#x168;" horiz-adv-x="1588" 
d="M1234 510v739l-169 51v65h468v-65l-166 -51v-728q0 -177 -65 -298t-189.5 -183t-302.5 -62q-193 0 -324 61.5t-198 186t-67 311.5v712l-166 51v65h563v-65l-166 -51v-714q0 -132 43.5 -218.5t131 -129t218.5 -42.5q127 0 213.5 41t131 122t44.5 202zM1137 1764
q-18 -110 -40.5 -168t-55.5 -79.5t-83 -21.5q-39 0 -74 18.5t-67 43.5t-60 43.5t-53 18.5q-18 0 -31.5 -8.5t-25 -33.5t-23.5 -75h-96q19 110 41.5 168t55.5 79.5t82 21.5q39 0 74 -18.5t67 -43.5t60 -43.5t52 -18.5q19 0 32.5 8.5t25.5 34t23 74.5h96z" />
    <glyph glyph-name="utilde" unicode="&#x169;" horiz-adv-x="1159" 
d="M387 312q0 -56 17 -90t56 -49t106 -15q62 0 122.5 19t95.5 48l31 -47q-66 -62 -115.5 -101.5t-90 -61t-79.5 -29.5t-86 -8q-136 0 -201 77.5t-65 231.5v495l-150 66v61l373 18l-14 -131v-484zM804 -19l-39 189v617l-134 63v61l357 16l-14 -134v-609q10 -9 27.5 -20
t38.5 -22.5t42 -20.5t38 -14v-39l-286 -87h-30zM852 1369q-17 -120 -38.5 -188t-54 -96t-85.5 -28q-43 0 -77.5 24t-63 55.5t-55.5 56t-54 24.5q-17 0 -30.5 -12t-25 -44.5t-24.5 -95.5h-93q17 120 38.5 187.5t54.5 96t84 28.5q44 0 78 -24.5t63 -56t56 -55.5t54 -24
q18 0 31 11.5t24.5 44.5t23.5 96h94z" />
    <glyph glyph-name="Umacron" unicode="&#x16a;" horiz-adv-x="1588" 
d="M1234 510v739l-169 51v65h468v-65l-166 -51v-728q0 -177 -65 -298t-189.5 -183t-302.5 -62q-193 0 -324 61.5t-198 186t-67 311.5v712l-166 51v65h563v-65l-166 -51v-714q0 -132 43.5 -218.5t131 -129t218.5 -42.5q127 0 213.5 41t131 122t44.5 202zM553 1571v124h562
v-124h-562z" />
    <glyph glyph-name="umacron" unicode="&#x16b;" horiz-adv-x="1159" 
d="M387 312q0 -56 17 -90t56 -49t106 -15q62 0 122.5 19t95.5 48l31 -47q-66 -62 -115.5 -101.5t-90 -61t-79.5 -29.5t-86 -8q-136 0 -201 77.5t-65 231.5v495l-150 66v61l373 18l-14 -131v-484zM804 -19l-39 189v617l-134 63v61l357 16l-14 -134v-609q10 -9 27.5 -20
t38.5 -22.5t42 -20.5t38 -14v-39l-286 -87h-30zM276 1156v123h554v-123h-554z" />
    <glyph glyph-name="Ubreve" unicode="&#x16c;" horiz-adv-x="1588" 
d="M1234 510v739l-169 51v65h468v-65l-166 -51v-728q0 -177 -65 -298t-189.5 -183t-302.5 -62q-193 0 -324 61.5t-198 186t-67 311.5v712l-166 51v65h563v-65l-166 -51v-714q0 -132 43.5 -218.5t131 -129t218.5 -42.5q127 0 213.5 41t131 122t44.5 202zM834 1634
q83 0 132.5 30t68.5 103h94q-21 -105 -57 -165t-94 -84.5t-144 -24.5t-144 24.5t-93.5 84.5t-57.5 165h94q19 -73 68.5 -103t132.5 -30z" />
    <glyph glyph-name="ubreve" unicode="&#x16d;" horiz-adv-x="1159" 
d="M387 312q0 -56 17 -90t56 -49t106 -15q62 0 122.5 19t95.5 48l31 -47q-66 -62 -115.5 -101.5t-90 -61t-79.5 -29.5t-86 -8q-136 0 -201 77.5t-65 231.5v495l-150 66v61l373 18l-14 -131v-484zM804 -19l-39 189v617l-134 63v61l357 16l-14 -134v-609q10 -9 27.5 -20
t38.5 -22.5t42 -20.5t38 -14v-39l-286 -87h-30zM553 1193q58 0 99.5 19t69 61t41.5 108h88q-22 -129 -58.5 -202.5t-94.5 -104t-145 -30.5t-145 30.5t-94.5 104t-58.5 202.5h88q14 -66 41.5 -108t69.5 -61t99 -19z" />
    <glyph glyph-name="Uring" unicode="&#x16e;" horiz-adv-x="1588" 
d="M1234 510v739l-169 51v65h468v-65l-166 -51v-728q0 -177 -65 -298t-189.5 -183t-302.5 -62q-193 0 -324 61.5t-198 186t-67 311.5v712l-166 51v65h563v-65l-166 -51v-714q0 -132 43.5 -218.5t131 -129t218.5 -42.5q127 0 213.5 41t131 122t44.5 202zM833 1815
q81 0 132 -50.5t51 -130.5q0 -79 -51 -129.5t-132 -50.5q-80 0 -131.5 50.5t-51.5 129.5q0 80 51.5 130.5t131.5 50.5zM833 1519q51 0 82.5 32t31.5 83q0 53 -31.5 85t-82.5 32t-82 -32t-31 -85q0 -51 31 -83t82 -32z" />
    <glyph glyph-name="uring" unicode="&#x16f;" horiz-adv-x="1159" 
d="M387 312q0 -56 17 -90t56 -49t106 -15q62 0 122.5 19t95.5 48l31 -47q-66 -62 -115.5 -101.5t-90 -61t-79.5 -29.5t-86 -8q-136 0 -201 77.5t-65 231.5v495l-150 66v61l373 18l-14 -131v-484zM804 -19l-39 189v617l-134 63v61l357 16l-14 -134v-609q10 -9 27.5 -20
t38.5 -22.5t42 -20.5t38 -14v-39l-286 -87h-30zM552 1398q81 0 132 -50t51 -130q0 -79 -51 -129.5t-132 -50.5q-80 0 -131.5 50.5t-51.5 129.5q0 80 51.5 130t131.5 50zM552 1103q51 0 82.5 32t31.5 83q0 53 -31.5 85t-82.5 32t-82 -32t-31 -85q0 -51 31 -83t82 -32z" />
    <glyph glyph-name="Uhungarumlaut" unicode="&#x170;" horiz-adv-x="1588" 
d="M1234 510v739l-169 51v65h468v-65l-166 -51v-728q0 -177 -65 -298t-189.5 -183t-302.5 -62q-193 0 -324 61.5t-198 186t-67 311.5v712l-166 51v65h563v-65l-166 -51v-714q0 -132 43.5 -218.5t131 -129t218.5 -42.5q127 0 213.5 41t131 122t44.5 202zM917 1499l161 268
h253v-30l-320 -238h-94zM643 1499l67 268h232v-26l-215 -242h-84z" />
    <glyph glyph-name="uhungarumlaut" unicode="&#x171;" horiz-adv-x="1159" 
d="M387 312q0 -56 17 -90t56 -49t106 -15q62 0 122.5 19t95.5 48l31 -47q-66 -62 -115.5 -101.5t-90 -61t-79.5 -29.5t-86 -8q-136 0 -201 77.5t-65 231.5v495l-150 66v61l373 18l-14 -131v-484zM804 -19l-39 189v617l-134 63v61l357 16l-14 -134v-609q10 -9 27.5 -20
t38.5 -22.5t42 -20.5t38 -14v-39l-286 -87h-30zM626 1052l157 329h242v-33l-305 -296h-94zM351 1052l70 329h225v-29l-210 -300h-85z" />
    <glyph glyph-name="Uogonek" unicode="&#x172;" horiz-adv-x="1588" 
d="M1234 510v739l-169 51v65h468v-65l-166 -51v-728q0 -177 -65 -298t-189.5 -183t-302.5 -62q-193 0 -324 61.5t-198 186t-67 311.5v712l-166 51v65h563v-65l-166 -51v-714q0 -132 43.5 -218.5t131 -129t218.5 -42.5q127 0 213.5 41t131 122t44.5 202zM858 -101
q-24 -46 -37.5 -80.5t-19 -61.5t-5.5 -52q0 -48 28 -74t74 -26q31 0 62 13t76 52l21 -49q-39 -47 -75 -75.5t-72.5 -41t-79.5 -12.5q-83 0 -128.5 44.5t-45.5 119.5q0 33 8.5 67t32 77t67.5 104l104 145h68z" />
    <glyph glyph-name="uogonek" unicode="&#x173;" horiz-adv-x="1159" 
d="M387 312q0 -56 17 -90t56 -49t106 -15q62 0 122.5 19t95.5 48l31 -47q-66 -62 -115.5 -101.5t-90 -61t-79.5 -29.5t-86 -8q-136 0 -201 77.5t-65 231.5v495l-150 66v61l373 18l-14 -131v-484zM804 -19l-39 189v617l-134 63v61l357 16l-14 -134v-609q10 -9 27.5 -20
t38.5 -22.5t42 -20.5t38 -14v-39l-286 -87h-30zM825 -101q-25 -46 -39 -80t-19 -61.5t-5 -51.5q0 -49 28 -75t74 -26q31 0 62 13t76 52l21 -49q-40 -47 -75.5 -75.5t-72 -41t-79.5 -12.5q-83 0 -129 44.5t-46 119.5q0 33 8.5 67t32.5 77t69 103l107 146h69z" />
    <glyph glyph-name="Wcircumflex" unicode="&#x174;" horiz-adv-x="2057" 
d="M1065 1158l-417 -1169h-184l-305 1259l-160 52v65h577v-65l-172 -50l245 -1055l-50 -2l403 1182h168l436 -1211l-80 -22l236 1108l-170 50v65h460v-65l-152 -50l-296 -1261h-178l-418 1151zM1053 1653h42l-219 -154h-123l227 268h188l227 -268h-123z" />
    <glyph glyph-name="wcircumflex" unicode="&#x175;" horiz-adv-x="1584" 
d="M1328 814l-128 38v61h354v-61l-107 -36l-245 -832h-142l-290 755l57 9l-295 -764h-142l-251 819l-130 49v61h475v-61l-130 -41l193 -652l-54 1l290 769h130l291 -764h-50zM514 1052l220 329h188l220 -329h-113l-227 206h52l-227 -206h-113z" />
    <glyph glyph-name="Ycircumflex" unicode="&#x176;" horiz-adv-x="1447" 
d="M145 1248l-152 52v65h605v-65l-169 -50l416 -587l-66 1l352 586l-168 50v65h468v-65l-148 -50l-421 -659v-475l166 -52v-64h-564v64l166 52v468zM738 1653h42l-219 -154h-123l227 268h188l227 -268h-123z" />
    <glyph glyph-name="ycircumflex" unicode="&#x177;" horiz-adv-x="1126" 
d="M679 156l-122 -212l-416 859l-131 49v61h493v-61l-133 -41zM260 -508q-71 0 -112 34t-41 95q0 29 11.5 52t29 36t33.5 13q19 0 42 -8t50 -16t56 -8q33 0 59.5 14t50.5 46.5t49 88.5l91 216l42 99l247 661l-129 37v61h364v-61l-108 -36l-411 -1013q-48 -118 -95 -186
t-102.5 -96.5t-126.5 -28.5zM284 1052l220 329h188l220 -329h-113l-227 206h52l-227 -206h-113z" />
    <glyph glyph-name="Ydieresis" unicode="&#x178;" horiz-adv-x="1447" 
d="M145 1248l-152 52v65h605v-65l-169 -50l416 -587l-66 1l352 586l-168 50v65h468v-65l-148 -50l-421 -659v-475l166 -52v-64h-564v64l166 52v468zM553 1515q-58 0 -91 33.5t-33 85.5t33 84.5t91 32.5t91 -32.5t33 -84.5t-33 -85.5t-91 -33.5zM965 1515q-58 0 -91 33.5
t-33 85.5t33 84.5t91 32.5t91 -32.5t33 -84.5t-33 -85.5t-91 -33.5z" />
    <glyph glyph-name="Zacute" unicode="&#x179;" horiz-adv-x="1317" 
d="M1199 1365v-74l-830 -1201l-67 40h728l148 269l77 -6l-70 -455h-57l-98 62h-924v74l825 1200l77 -39h-696l-147 -279l-78 8l52 467h55l113 -66h892zM635 1499l130 268h257v-31l-293 -237h-94z" />
    <glyph glyph-name="zacute" unicode="&#x17a;" horiz-adv-x="936" 
d="M75 0v51l556 815l77 -60l-553 -4l137 83l-146 -269h-71l41 319h54l66 -22h621v-50l-562 -818l-65 62l499 5l-86 -74l176 276h71l-74 -314h-741zM429 1052l159 329h254v-33l-319 -296h-94z" />
    <glyph glyph-name="Zdotaccent" unicode="&#x17b;" horiz-adv-x="1317" 
d="M1199 1365v-74l-830 -1201l-67 40h728l148 269l77 -6l-70 -455h-57l-98 62h-924v74l825 1200l77 -39h-696l-147 -279l-78 8l52 467h55l113 -66h892zM688 1508q-65 0 -101.5 35t-36.5 91t36.5 90t101.5 34t101.5 -34t36.5 -90t-36.5 -91t-101.5 -35z" />
    <glyph glyph-name="zdotaccent" unicode="&#x17c;" horiz-adv-x="936" 
d="M75 0v51l556 815l77 -60l-553 -4l137 83l-146 -269h-71l41 319h54l66 -22h621v-50l-562 -818l-65 62l499 5l-86 -74l176 276h71l-74 -314h-741zM495 1092q-65 0 -101.5 35t-36.5 91t36.5 90t101.5 34t101.5 -34t36.5 -90t-36.5 -91t-101.5 -35z" />
    <glyph glyph-name="Zcaron" unicode="&#x17d;" horiz-adv-x="1317" 
d="M1199 1365v-74l-830 -1201l-67 40h728l148 269l77 -6l-70 -455h-57l-98 62h-924v74l825 1200l77 -39h-696l-147 -279l-78 8l52 467h55l113 -66h892zM709 1613h-42l219 154h123l-227 -268h-188l-227 268h123z" />
    <glyph glyph-name="zcaron" unicode="&#x17e;" horiz-adv-x="936" 
d="M75 0v51l556 815l77 -60l-553 -4l137 83l-146 -269h-71l41 319h54l66 -22h621v-50l-562 -818l-65 62l499 5l-86 -74l176 276h71l-74 -314h-741zM521 1175h-52l227 206h113l-220 -329h-188l-220 329h113z" />
    <glyph glyph-name="uni018F" unicode="&#x18f;" horiz-adv-x="1434" 
d="M277 493l63 45q6 -148 48.5 -242t118.5 -139.5t183 -45.5q92 0 168 31t131 94t85 160t30 228q0 194 -57 322t-167 191.5t-270 63.5q-94 0 -177 -16.5t-156.5 -46.5t-141.5 -72l-33 88q102 81 198 132t191.5 76t195.5 25q202 0 347 -86t223.5 -240t78.5 -361
q0 -154 -45.5 -285.5t-131.5 -229.5t-208.5 -152.5t-276.5 -54.5q-186 0 -311.5 74.5t-192.5 218.5t-80 352h1113l-1 -130h-925z" />
    <glyph glyph-name="florin" unicode="&#x192;" horiz-adv-x="1210" 
d="M220 635v101h817v-101h-817zM123 -264q-118 0 -173 38t-55 96q0 42 26.5 68t68.5 26q18 0 37 -17t43 -39.5t55.5 -40t73.5 -17.5q39 0 74 17.5t65 61.5t55.5 123t45.5 203l96 572q24 146 75 251t122.5 172t158.5 98.5t185 31.5q82 0 135 -17.5t79.5 -48.5t26.5 -71
q0 -44 -29 -71.5t-71 -27.5q-20 0 -41 18t-47 42.5t-59.5 42.5t-79.5 18q-60 0 -102.5 -26.5t-72 -96.5t-51.5 -202l-96 -562q-28 -173 -80 -295.5t-123 -199t-157.5 -112t-184.5 -35.5z" />
    <glyph glyph-name="Ohorn" unicode="&#x1a0;" horiz-adv-x="1600" 
d="M806 112q141 0 241.5 63t154.5 182t54 287q0 196 -57 331.5t-162 206t-248 70.5q-140 0 -241 -62.5t-154.5 -181.5t-53.5 -287q0 -195 57 -331t161.5 -207t247.5 -71zM801 1387q65 0 121 -7t110 -14.5t111 -7.5q85 0 118.5 23.5t33.5 61.5q0 29 -7.5 49.5t-15.5 36
t-8 28.5q0 30 27.5 51t65.5 21q52 0 84 -32.5t32 -95.5q0 -108 -70 -170t-223 -59v16q101 -59 172.5 -150t109 -206.5t37.5 -247.5q0 -156 -51 -285.5t-144.5 -224t-223 -145.5t-286.5 -51t-285 51t-220.5 144t-142 222t-49.5 285q0 157 50.5 286.5t144 224t223 145.5
t286.5 51z" />
    <glyph glyph-name="ohorn" unicode="&#x1a1;" horiz-adv-x="1136" 
d="M555 92q78 0 135.5 35t89 109.5t31.5 192.5q0 130 -30 217t-86.5 131t-138.5 44q-78 0 -135.5 -35t-89 -109t-31.5 -193q0 -128 29.5 -215.5t87 -132t138.5 -44.5zM1096 1050q0 -101 -59.5 -158t-185.5 -58v16q92 -65 136.5 -166t44.5 -220q0 -144 -60.5 -253.5
t-169.5 -171t-253 -61.5q-143 0 -249 59t-163.5 165t-57.5 247q0 144 61 253.5t169.5 171t252.5 61.5q51 0 92.5 -6t78 -12t70.5 -6q66 0 90.5 21.5t24.5 59.5q0 28 -7.5 47.5t-15.5 35t-8 30.5q0 31 28 51.5t66 20.5q51 0 83 -32t32 -95z" />
    <glyph glyph-name="Uhorn" unicode="&#x1af;" horiz-adv-x="1610" 
d="M1548 1443q0 29 -8 48t-15.5 34.5t-7.5 31.5q0 30 27.5 51t65.5 21q51 0 83 -32.5t32 -95.5q0 -68 -34 -121t-113 -84.5t-211 -40.5v-734q0 -177 -65 -298t-189.5 -183t-302.5 -62q-193 0 -324 61.5t-198 186t-67 311.5v712l-166 51v65h563v-65l-166 -51v-714
q0 -132 43.5 -218.5t131 -129t218.5 -42.5q127 0 213.5 41t131 122t44.5 202v739l-169 51v65h345q55 0 84.5 9.5t41.5 27t12 41.5z" />
    <glyph glyph-name="uhorn" unicode="&#x1b0;" horiz-adv-x="1187" 
d="M387 312q0 -56 17 -90t56 -49t106 -15q62 0 122.5 19t95.5 48l31 -47q-66 -62 -115.5 -101.5t-90 -61t-79.5 -29.5t-86 -8q-136 0 -201 77.5t-65 231.5v495l-150 66v61l373 18l-14 -131v-484zM1056 994q0 28 -8 47t-16 34t-8 30q1 31 28.5 51.5t65.5 20.5q51 0 83 -32
t32 -95q0 -93 -61.5 -145t-191.5 -64l-6 -47v-610q10 -9 27.5 -20t38.5 -22.5t42 -20.5t38 -14v-39l-286 -87h-30l-39 189v617l-134 63v61l271 9q96 2 125 22t29 52z" />
    <glyph glyph-name="uni01C4" unicode="&#x1c4;" horiz-adv-x="2868" 
d="M1238 700q0 274 -150 404.5t-431 130.5h-296l-8 130h359q257 0 428 -72t256.5 -215.5t85.5 -358.5q0 -230 -99.5 -390.5t-273.5 -244.5t-399 -84h-357l8 130h326q171 0 294 58.5t190 184t67 327.5zM89 0v64l166 52v1133l-166 51v65h397v-1365h-397zM2751 1365v-74
l-830 -1201l-67 40h728l148 269l77 -6l-70 -455h-57l-98 62h-924v74l825 1200l77 -39h-696l-147 -279l-78 8l52 467h55l113 -66h892zM2260 1613h-42l219 154h123l-227 -268h-188l-227 268h123z" />
    <glyph glyph-name="uni01C5" unicode="&#x1c5;" horiz-adv-x="2487" 
d="M1238 700q0 274 -150 404.5t-431 130.5h-296l-8 130h359q257 0 428 -72t256.5 -215.5t85.5 -358.5q0 -230 -99.5 -390.5t-273.5 -244.5t-399 -84h-357l8 130h326q171 0 294 58.5t190 184t67 327.5zM89 0v64l166 52v1133l-166 51v65h397v-1365h-397zM1626 0v51l556 815
l77 -60l-553 -4l137 83l-146 -269h-71l41 319h54l66 -22h621v-50l-562 -818l-65 62l499 5l-86 -74l176 276h71l-74 -314h-741zM2072 1175h-52l227 206h113l-220 -329h-188l-220 329h113z" />
    <glyph glyph-name="uni01C6" unicode="&#x1c6;" horiz-adv-x="2113" 
d="M797 621q0 91 -52.5 146.5t-164.5 55.5q-88 0 -149.5 -42t-93.5 -122t-32 -195q0 -113 33.5 -188.5t96 -112.5t148.5 -37q72 0 141.5 20.5t136.5 64.5v-66q-82 -53 -138.5 -86.5t-97 -51t-73 -23.5t-65.5 -6q-133 0 -224 54.5t-137 152.5t-46 229q0 123 40.5 219.5
t112 163.5t164.5 102.5t197 35.5q58 0 109.5 -8.5t104.5 -27.5t114 -51l-125 -43v425q-12 12 -38 26.5t-58 29t-62 26.5v47l347 84h35l-15 -194v-1065q10 -9 27.5 -20t38.5 -22.5t42 -20.5t38 -14v-39l-285 -88h-30l-40 177v464zM1252 0v51l556 815l77 -60l-553 -4l137 83
l-146 -269h-71l41 319h54l66 -22h621v-50l-562 -818l-65 62l499 5l-86 -74l176 276h71l-74 -314h-741zM1698 1175h-52l227 206h113l-220 -329h-188l-220 329h113z" />
    <glyph glyph-name="uni01C7" unicode="&#x1c7;" horiz-adv-x="2249" 
d="M1150 -70h-63l-102 70h-628l1 130h709l-115 -55l204 376l81 -7zM486 1249v-1249h-397v64l166 52v1133l-166 51v65h563v-65zM2025 430q0 -105 -35 -188t-100 -141.5t-156 -90t-204 -31.5q-81 0 -133.5 18t-78 50t-25.5 74q0 43 25.5 72.5t72.5 29.5q18 0 40 -17t49 -38.5
t59.5 -38t72.5 -16.5q83 0 131.5 54.5t48.5 187.5v894l-168 51v65h565v-65l-165 -51z" />
    <glyph glyph-name="uni01C8" unicode="&#x1c8;" horiz-adv-x="1804" 
d="M1150 -70h-63l-102 70h-628l1 130h709l-115 -55l204 376l81 -7zM486 1249v-1249h-397v64l166 52v1133l-166 51v65h563v-65zM1539 1171q-68 0 -109 37.5t-41 98.5q0 62 41 99t109 37t109 -37t41 -99q0 -61 -41 -98.5t-109 -37.5zM1445 710q-11 12 -36.5 28t-56 32.5
t-60.5 29.5v45l330 90h43l-11 -202v-766q0 -61 -6.5 -106.5t-25 -84.5t-56 -78.5t-100 -89t-155.5 -116.5l-60 71q67 70 106 116t58 80.5t24.5 68.5t5.5 80v802z" />
    <glyph glyph-name="uni01C9" unicode="&#x1c9;" horiz-adv-x="1119" 
d="M398 105l148 -46v-59h-504v59l148 46v1107q-14 13 -39.5 29t-60 33t-73.5 33v48l362 88h35l-16 -193v-1145zM855 1171q-68 0 -109 37.5t-41 98.5q0 62 41 99t109 37t109 -37t41 -99q0 -61 -41 -98.5t-109 -37.5zM761 710q-11 12 -36.5 28t-56 32.5t-60.5 29.5v45l330 90
h43l-11 -202v-766q0 -61 -6.5 -106.5t-25 -84.5t-56 -78.5t-100 -89t-155.5 -116.5l-60 71q67 70 106 116t58 80.5t24.5 68.5t5.5 80v802z" />
    <glyph glyph-name="uni01CA" unicode="&#x1ca;" horiz-adv-x="2552" 
d="M256 115v1122l-171 64v64h434l768 -1133l-60 -72v1089l-178 51v65h474v-65l-164 -51v-1259h-176l-839 1236l45 27v-1138l178 -51v-64h-475v64zM2328 430q0 -105 -35 -188t-100 -141.5t-156 -90t-204 -31.5q-81 0 -133.5 18t-78 50t-25.5 74q0 43 25.5 72.5t72.5 29.5
q18 0 40 -17t49 -38.5t59.5 -38t72.5 -16.5q83 0 131.5 54.5t48.5 187.5v894l-168 51v65h565v-65l-165 -51z" />
    <glyph glyph-name="uni01CB" unicode="&#x1cb;" horiz-adv-x="2107" 
d="M256 115v1122l-171 64v64h434l768 -1133l-60 -72v1089l-178 51v65h474v-65l-164 -51v-1259h-176l-839 1236l45 27v-1138l178 -51v-64h-475v64zM1843 1171q-68 0 -109 37.5t-41 98.5q0 62 41 99t109 37t109 -37t41 -99q0 -61 -41 -98.5t-109 -37.5zM1749 710
q-11 12 -36.5 28t-56 32.5t-60.5 29.5v45l330 90h43l-11 -202v-766q0 -61 -6.5 -106.5t-25 -84.5t-56 -78.5t-100 -89t-155.5 -116.5l-60 71q67 70 106 116t58 80.5t24.5 68.5t5.5 80v802z" />
    <glyph glyph-name="uni01CC" unicode="&#x1cc;" horiz-adv-x="1765" 
d="M421 736v-634l139 -43v-59h-496v59l148 46v591q-18 18 -54 39.5t-100 51.5v37l282 113h33zM699 59l139 43v487q0 55 -21 92t-64 56t-110 19q-70 0 -134.5 -21t-102.5 -52l-32 41q70 65 123 106.5t96.5 64.5t86 31.5t92.5 8.5q140 0 207.5 -79.5t67.5 -245.5v-505l149 -46
v-59h-497v59zM1500 1171q-68 0 -109 37.5t-41 98.5q0 62 41 99t109 37t109 -37t41 -99q0 -61 -41 -98.5t-109 -37.5zM1406 710q-11 12 -36.5 28t-56 32.5t-60.5 29.5v45l330 90h43l-11 -202v-766q0 -61 -6.5 -106.5t-25 -84.5t-56 -78.5t-100 -89t-155.5 -116.5l-60 71
q67 70 106 116t58 80.5t24.5 68.5t5.5 80v802z" />
    <glyph glyph-name="Gcaron" unicode="&#x1e6;" horiz-adv-x="1558" 
d="M1365 193l59 -64v-37q-74 -35 -164.5 -61t-189 -39.5t-198.5 -13.5q-181 0 -325 46t-244.5 134.5t-153.5 217.5t-52 295q1 219 95 380t272 248.5t431 87.5q82 0 154.5 -11t155.5 -34l-73 -10l118 99h58l41 -490l-89 -7l-155 324l96 -103q-82 53 -160 76.5t-176 23.5
q-133 0 -231 -33.5t-163.5 -100.5t-98 -164t-34.5 -224q-2 -204 67.5 -344t193.5 -210.5t287 -70.5q64 0 127 10.5t117.5 31.5t92.5 52l-89 -154v459l-191 55v63h558v-63l-136 -53v-316zM837 1613h-42l219 154h123l-227 -268h-188l-227 268h123z" />
    <glyph glyph-name="gcaron" unicode="&#x1e7;" horiz-adv-x="1056" 
d="M478 -508q-115 0 -200.5 15.5t-141 45.5t-82.5 73t-27 98q0 40 20.5 76t66 65.5t119 51.5t180.5 36h72v-21q-103 -12 -160.5 -37t-80.5 -61t-23 -81q0 -52 29 -88.5t91.5 -55t160.5 -18.5q106 0 179 23t110.5 63t37.5 91q0 35 -15.5 60t-54.5 42t-109.5 27t-179.5 14
q-110 5 -181 22.5t-110.5 45.5t-55.5 64t-16 77q1 74 67.5 124t198.5 68l21 -25q-57 -6 -83.5 -27.5t-26.5 -61.5q0 -23 9.5 -41t39.5 -30.5t91 -20.5t164 -12q106 -5 185 -20.5t131.5 -46.5t79 -79t26.5 -117q0 -95 -62 -172t-181 -122t-289 -45zM480 270q-119 0 -208 41
t-138 116t-49 175q0 102 50 177t139.5 115.5t205.5 40.5q90 0 162 -24.5t124 -70t79.5 -106t27.5 -131.5q0 -101 -50 -176.5t-138.5 -116t-204.5 -40.5zM488 368q80 0 128.5 56t48.5 169q0 122 -49.5 183.5t-141.5 61.5q-81 0 -130.5 -55t-49.5 -170q0 -121 50.5 -183
t143.5 -62zM624 845l-36 74q69 -7 130 -5.5t112 6.5t92.5 10t72.5 5q29 0 44 -18t15 -58q0 -47 -20.5 -74t-47.5 -27q-26 0 -52 12.5t-64 29t-97 30t-149 15.5zM513 1175h-52l227 206h113l-220 -329h-188l-220 329h113z" />
    <glyph glyph-name="uni01EA" unicode="&#x1ea;" horiz-adv-x="1595" 
d="M801 1387q157 0 285 -51t220.5 -144t142.5 -222t50 -286q0 -156 -51 -285.5t-144.5 -224t-223 -145.5t-286.5 -51t-285 51t-220.5 144t-142 222t-49.5 285q0 157 50.5 286.5t144 224t223 145.5t286.5 51zM806 112q141 0 241.5 63t154.5 182t54 287q0 196 -57 331.5
t-162 206t-248 70.5q-140 0 -241 -62.5t-154.5 -181.5t-53.5 -287q0 -195 57 -331t161.5 -207t247.5 -71zM835 -101q-25 -46 -38.5 -80t-19 -61t-5.5 -52q0 -49 28 -75t74 -26q32 0 63 13t75 52l22 -49q-40 -47 -76 -75.5t-72.5 -41t-78.5 -12.5q-84 0 -129.5 44.5
t-45.5 119.5q0 33 8 67t31.5 77.5t69.5 103.5l106 145h69z" />
    <glyph glyph-name="uni01EB" unicode="&#x1eb;" horiz-adv-x="1111" 
d="M555 92q78 0 135.5 35t89 109.5t31.5 192.5q0 130 -30 217t-86.5 131t-138.5 44q-78 0 -135.5 -35t-89 -109t-31.5 -193q0 -128 29.5 -215.5t87 -132t138.5 -44.5zM549 -22q-143 0 -249 59t-163.5 165t-57.5 247q0 144 61 253.5t169.5 171t252.5 61.5t249.5 -58.5
t163 -164.5t57.5 -248q0 -144 -60.5 -253.5t-169.5 -171t-253 -61.5zM584 -101q-23 -46 -36 -80.5t-18 -61t-5 -51.5q0 -49 28 -75t74 -26q31 0 62 13t76 52l21 -49q-59 -70 -111 -99.5t-116 -29.5q-83 0 -129 44.5t-46 119.5q0 33 8.5 67t31.5 77.5t66 103.5l102 145h68z
" />
    <glyph glyph-name="Aringacute" unicode="&#x1fa;" horiz-adv-x="1513" 
d="M380 472v126h686v-126h-686zM1362 117l161 -53v-64h-584v64l174 51l-449 1100h55l-418 -1100l167 -51v-64h-472v64l158 51l506 1266h174zM744 1815q81 0 132 -50.5t51 -130.5q0 -79 -51 -129.5t-132 -50.5q-80 0 -131.5 50.5t-51.5 129.5q0 80 51.5 130.5t131.5 50.5z
M744 1519q51 0 82.5 32t31.5 83q0 53 -31.5 85t-82.5 32t-82 -32t-31 -85q0 -51 31 -83t82 -32zM692 1902l130 268h257v-31l-293 -237h-94z" />
    <glyph glyph-name="aringacute" unicode="&#x1fb;" horiz-adv-x="1004" 
d="M689 581l-4 -96q-123 -23 -199 -46.5t-116.5 -50t-55.5 -57.5t-15 -70q0 -68 37.5 -102t102.5 -34q49 0 89 21.5t63.5 57.5t23.5 80v366q0 82 -39 125.5t-133 43.5q-41 0 -81 -7t-75 -21l54 60q-6 -38 -13 -69t-15.5 -54.5t-19.5 -41.5q-16 -25 -43.5 -34.5t-61.5 -9.5
q-45 0 -69 18t-24 46q0 35 34.5 74t94 73.5t136.5 56t162 21.5q111 0 177.5 -32.5t95.5 -93.5t29 -145v-455q0 -32 9.5 -52.5t28 -30t46.5 -9.5q22 0 46.5 6.5t50.5 18.5v-68q-47 -44 -100.5 -67t-101.5 -23q-59 0 -99.5 25.5t-61.5 75.5t-23 122l8 6q-15 -72 -53.5 -124
t-95.5 -79.5t-128 -27.5q-120 0 -192 61.5t-72 179.5q0 62 25 113t90 93.5t183 80.5t305 75zM473 1398q81 0 132 -50t51 -130q0 -79 -51 -129.5t-132 -50.5q-80 0 -131.5 50.5t-51.5 129.5q0 80 51.5 130t131.5 50zM473 1103q51 0 82.5 32t31.5 83q0 53 -31.5 85t-82.5 32
t-82 -32t-31 -85q0 -51 31 -83t82 -32zM408 1520l159 329h254v-33l-319 -296h-94z" />
    <glyph glyph-name="AEacute" unicode="&#x1fc;" horiz-adv-x="2103" 
d="M481 479v125h608v-125h-608zM935 1365h108v-70l-746 -1180l167 -51v-64h-481v64l160 51zM688 1300v65h279l-56 -133zM1712 973v-259v-260h-102l-20 198h-483v125h483l20 196h102zM1992 980l-84 -7l-153 317l74 -53h-722v128h680l106 61h53zM1766 72l186 343l80 -8
l-78 -475h-59l-99 68h-689v127h720zM838 0v64l166 52v1249h232v-1365h-398zM1070 1499l130 268h257v-31l-293 -237h-94z" />
    <glyph glyph-name="aeacute" unicode="&#x1fd;" horiz-adv-x="1525" 
d="M458 819q-44 0 -89 -6.5t-84 -21.5l55 60q-6 -38 -13 -69t-15.5 -54.5t-19.5 -41.5q-16 -25 -43.5 -34.5t-61.5 -9.5q-45 0 -69 18t-24 46q0 35 35.5 74t97.5 73.5t142 56t168 21.5q90 0 148 -23t90.5 -65t44.5 -100h-101q48 88 137.5 140t204.5 52q126 0 209 -52.5
t127 -154.5t51 -250h-656l-1 95l530 17l-86 -27q-5 89 -27 147t-62 87.5t-100 29.5q-65 0 -112.5 -34.5t-73.5 -106t-26 -183.5q0 -119 39.5 -200t114 -122t180.5 -41q49 0 93 9.5t85.5 27t81.5 42.5l18 -60q-60 -60 -123.5 -100.5t-129 -60.5t-135.5 -20
q-107 0 -192.5 36.5t-144 105.5t-87.5 165l32 2q-10 -106 -53 -175t-109 -101.5t-150 -32.5q-122 0 -195.5 62t-73.5 179q0 59 23.5 108.5t88.5 92t187 81t320 77.5l-4 -93q-134 -25 -214.5 -50.5t-121 -52t-53.5 -56.5t-13 -65q0 -68 37.5 -102t102.5 -34q55 0 98.5 21.5
t68.5 63t25 102.5v338q0 82 -39 125.5t-133 43.5zM701 1052l159 329h254v-33l-319 -296h-94z" />
    <glyph glyph-name="Oslashacute" unicode="&#x1fe;" horiz-adv-x="1626" 
d="M394 298l770 860l48 51l142 156h164l-221 -242l-61 -57l-770 -860l-48 -50l-142 -156h-164l221 242zM817 1387q156 0 284.5 -51t220.5 -144t142 -222t50 -286q0 -156 -51 -285.5t-144.5 -224t-222.5 -145.5t-287 -51q-157 0 -285 51t-220.5 144t-142 222t-49.5 285
q0 157 50.5 286.5t144.5 224t223 145.5t287 51zM821 112q141 0 241.5 63t154.5 182t54 287q0 196 -57 331.5t-161.5 206t-247.5 70.5q-141 0 -242 -62.5t-154.5 -181.5t-53.5 -287q0 -195 57 -331t162 -207t247 -71zM760 1499l130 268h257v-31l-293 -237h-94z" />
    <glyph glyph-name="oslashacute" unicode="&#x1ff;" horiz-adv-x="1149" 
d="M70 0l176 185l39 26l510 559l38 35l102 108h145l-173 -182l-39 -26l-512 -561l-37 -34l-104 -110h-145zM575 92q78 0 135.5 35t88.5 109.5t31 192.5q0 130 -29.5 217t-86 131t-138.5 44q-79 0 -136 -35t-88.5 -109t-31.5 -193q0 -128 29.5 -215.5t86.5 -132t139 -44.5z
M569 -22q-144 0 -249.5 59t-163.5 165t-58 247q0 144 61 253.5t170 171t253 61.5t249.5 -58.5t163 -164.5t57.5 -248q0 -144 -61 -253.5t-169.5 -171t-252.5 -61.5zM509 1052l159 329h254v-33l-319 -296h-94z" />
    <glyph glyph-name="uni0200" unicode="&#x200;" horiz-adv-x="1513" 
d="M380 472v126h686v-126h-686zM1362 117l161 -53v-64h-584v64l174 51l-449 1100h55l-418 -1100l167 -51v-64h-472v64l158 51l506 1266h174zM662 1499h-94l-320 238v30h253zM936 1499h-84l-215 242v26h232z" />
    <glyph glyph-name="uni0201" unicode="&#x201;" horiz-adv-x="1004" 
d="M689 581l-4 -96q-123 -23 -199 -46.5t-116.5 -50t-55.5 -57.5t-15 -70q0 -68 37.5 -102t102.5 -34q49 0 89 21.5t63.5 57.5t23.5 80v366q0 82 -39 125.5t-133 43.5q-41 0 -81 -7t-75 -21l54 60q-6 -38 -13 -69t-15.5 -54.5t-19.5 -41.5q-16 -25 -43.5 -34.5t-61.5 -9.5
q-45 0 -69 18t-24 46q0 35 34.5 74t94 73.5t136.5 56t162 21.5q111 0 177.5 -32.5t95.5 -93.5t29 -145v-455q0 -32 9.5 -52.5t28 -30t46.5 -9.5q22 0 46.5 6.5t50.5 18.5v-68q-47 -44 -100.5 -67t-101.5 -23q-59 0 -99.5 25.5t-61.5 75.5t-23 122l8 6q-15 -72 -53.5 -124
t-95.5 -79.5t-128 -27.5q-120 0 -192 61.5t-72 179.5q0 62 25 113t90 93.5t183 80.5t305 75zM401 1052h-94l-305 296v33h242zM676 1052h-85l-210 300v29h225z" />
    <glyph glyph-name="uni0202" unicode="&#x202;" horiz-adv-x="1513" 
d="M380 472v126h686v-126h-686zM1362 117l161 -53v-64h-584v64l174 51l-449 1100h55l-418 -1100l167 -51v-64h-472v64l158 51l506 1266h174zM745 1632q-83 0 -132.5 -30t-68.5 -103h-94q22 106 58 165.5t94 84t143 24.5q86 0 143.5 -24.5t94 -84t57.5 -165.5h-94
q-19 73 -68.5 103t-132.5 30z" />
    <glyph glyph-name="uni0203" unicode="&#x203;" horiz-adv-x="1004" 
d="M689 581l-4 -96q-123 -23 -199 -46.5t-116.5 -50t-55.5 -57.5t-15 -70q0 -68 37.5 -102t102.5 -34q49 0 89 21.5t63.5 57.5t23.5 80v366q0 82 -39 125.5t-133 43.5q-41 0 -81 -7t-75 -21l54 60q-6 -38 -13 -69t-15.5 -54.5t-19.5 -41.5q-16 -25 -43.5 -34.5t-61.5 -9.5
q-45 0 -69 18t-24 46q0 35 34.5 74t94 73.5t136.5 56t162 21.5q111 0 177.5 -32.5t95.5 -93.5t29 -145v-455q0 -32 9.5 -52.5t28 -30t46.5 -9.5q22 0 46.5 6.5t50.5 18.5v-68q-47 -44 -100.5 -67t-101.5 -23q-59 0 -99.5 25.5t-61.5 75.5t-23 122l8 6q-15 -72 -53.5 -124
t-95.5 -79.5t-128 -27.5q-120 0 -192 61.5t-72 179.5q0 62 25 113t90 93.5t183 80.5t305 75zM474 1241q-57 0 -99 -19.5t-69.5 -61t-41.5 -108.5h-88q22 130 58.5 203t94.5 103.5t145 30.5t145 -30.5t94.5 -103.5t58.5 -203h-88q-14 67 -41.5 108.5t-69 61t-99.5 19.5z" />
    <glyph glyph-name="uni0204" unicode="&#x204;" horiz-adv-x="1354" 
d="M962 973v-259v-260h-101l-21 198h-483v125h483l21 196h101zM1243 980l-85 -7l-152 317l73 -53h-722v128h680l107 61h52zM1016 72l187 343l79 -8l-77 -475h-59l-99 68h-690v127h720zM89 0v64l166 52v1133l-166 51v65h397v-1365h-397zM606 1499h-94l-320 238v30h253z
M880 1499h-84l-215 242v26h232z" />
    <glyph glyph-name="uni0205" unicode="&#x205;" horiz-adv-x="989" 
d="M525 935q124 0 207 -51t127.5 -149.5t52.5 -241.5h-672v95l538 17l-79 -42q-4 89 -26 147t-62.5 87.5t-100.5 29.5q-69 0 -120 -34.5t-79 -106t-28 -183.5q0 -119 41 -200t119.5 -122t189.5 -41q48 0 92 9.5t86 27t81 42.5l19 -60q-60 -59 -122 -99t-126.5 -61
t-132.5 -21q-135 0 -236 58t-157.5 162.5t-56.5 244.5q0 141 53.5 252.5t153 175.5t238.5 64zM440 1052h-94l-305 296v33h242zM715 1052h-85l-210 300v29h225z" />
    <glyph glyph-name="uni0206" unicode="&#x206;" horiz-adv-x="1354" 
d="M962 973v-259v-260h-101l-21 198h-483v125h483l21 196h101zM1243 980l-85 -7l-152 317l73 -53h-722v128h680l107 61h52zM1016 72l187 343l79 -8l-77 -475h-59l-99 68h-690v127h720zM89 0v64l166 52v1133l-166 51v65h397v-1365h-397zM689 1632q-83 0 -132.5 -30
t-68.5 -103h-94q22 106 58 165.5t94 84t143 24.5q86 0 143.5 -24.5t94 -84t57.5 -165.5h-94q-19 73 -68.5 103t-132.5 30z" />
    <glyph glyph-name="uni0207" unicode="&#x207;" horiz-adv-x="988" 
d="M524 935q124 0 207 -51t127.5 -149.5t52.5 -241.5h-672v95l538 17l-79 -42q-4 89 -26 147t-62.5 87.5t-100.5 29.5q-69 0 -120 -34.5t-79 -106t-28 -183.5q0 -119 41 -200t119.5 -122t189.5 -41q48 0 92 9.5t86 27t81 42.5l19 -60q-60 -59 -122 -99t-126.5 -61
t-132.5 -21q-135 0 -236 58t-157.5 162.5t-56.5 244.5q0 141 53.5 252.5t153 175.5t238.5 64zM513 1241q-57 0 -99 -19.5t-69.5 -61t-41.5 -108.5h-88q22 130 58.5 203t94.5 103.5t145 30.5t145 -30.5t94.5 -103.5t58.5 -203h-88q-14 67 -41.5 108.5t-69 61t-99.5 19.5z" />
    <glyph glyph-name="uni0208" unicode="&#x208;" horiz-adv-x="741" 
d="M652 64v-64h-563v64l166 52v1133l-166 51v65h563v-65l-166 -51v-1133zM288 1499h-94l-320 238v30h253zM562 1499h-84l-215 242v26h232z" />
    <glyph glyph-name="uni0209" unicode="&#x209;" horiz-adv-x="611" 
d="M433 935l-11 -202v-628l147 -46v-59h-503v59l147 46v605q-11 12 -36 28t-56 32.5t-61 29.5v45l331 90h42zM230 1052h-94l-305 296v33h242zM505 1052h-85l-210 300v29h225z" />
    <glyph glyph-name="uni020A" unicode="&#x20a;" horiz-adv-x="741" 
d="M652 64v-64h-563v64l166 52v1133l-166 51v65h563v-65l-166 -51v-1133zM371 1632q-83 0 -132.5 -30t-68.5 -103h-94q22 106 58 165.5t94 84t143 24.5q86 0 143.5 -24.5t94 -84t57.5 -165.5h-94q-19 73 -68.5 103t-132.5 30z" />
    <glyph glyph-name="uni020B" unicode="&#x20b;" horiz-adv-x="611" 
d="M433 935l-11 -202v-628l147 -46v-59h-503v59l147 46v605q-11 12 -36 28t-56 32.5t-61 29.5v45l331 90h42zM303 1241q-57 0 -99 -19.5t-69.5 -61t-41.5 -108.5h-88q22 130 58.5 203t94.5 103.5t145 30.5t145 -30.5t94.5 -103.5t58.5 -203h-88q-14 67 -41.5 108.5t-69 61
t-99.5 19.5z" />
    <glyph glyph-name="uni020C" unicode="&#x20c;" horiz-adv-x="1595" 
d="M801 1387q157 0 285 -51t220.5 -144t142.5 -222t50 -286q0 -156 -51 -285.5t-144.5 -224t-223 -145.5t-286.5 -51t-285 51t-220.5 144t-142 222t-49.5 285q0 157 50.5 286.5t144 224t223 145.5t286.5 51zM806 112q141 0 241.5 63t154.5 182t54 287q0 196 -57 331.5
t-162 206t-248 70.5q-140 0 -241 -62.5t-154.5 -181.5t-53.5 -287q0 -195 57 -331t161.5 -207t247.5 -71zM714 1499h-94l-320 238v30h253zM988 1499h-84l-215 242v26h232z" />
    <glyph glyph-name="uni020D" unicode="&#x20d;" horiz-adv-x="1111" 
d="M555 92q78 0 135.5 35t89 109.5t31.5 192.5q0 130 -30 217t-86.5 131t-138.5 44q-78 0 -135.5 -35t-89 -109t-31.5 -193q0 -128 29.5 -215.5t87 -132t138.5 -44.5zM549 -22q-143 0 -249 59t-163.5 165t-57.5 247q0 144 61 253.5t169.5 171t252.5 61.5t249.5 -58.5
t163 -164.5t57.5 -248q0 -144 -60.5 -253.5t-169.5 -171t-253 -61.5zM483 1052h-94l-305 296v33h242zM758 1052h-85l-210 300v29h225z" />
    <glyph glyph-name="uni020E" unicode="&#x20e;" horiz-adv-x="1595" 
d="M801 1387q157 0 285 -51t220.5 -144t142.5 -222t50 -286q0 -156 -51 -285.5t-144.5 -224t-223 -145.5t-286.5 -51t-285 51t-220.5 144t-142 222t-49.5 285q0 157 50.5 286.5t144 224t223 145.5t286.5 51zM806 112q141 0 241.5 63t154.5 182t54 287q0 196 -57 331.5
t-162 206t-248 70.5q-140 0 -241 -62.5t-154.5 -181.5t-53.5 -287q0 -195 57 -331t161.5 -207t247.5 -71zM797 1632q-83 0 -132.5 -30t-68.5 -103h-94q22 106 58 165.5t94 84t143 24.5q86 0 143.5 -24.5t94 -84t57.5 -165.5h-94q-19 73 -68.5 103t-132.5 30z" />
    <glyph glyph-name="uni020F" unicode="&#x20f;" horiz-adv-x="1111" 
d="M555 92q78 0 135.5 35t89 109.5t31.5 192.5q0 130 -30 217t-86.5 131t-138.5 44q-78 0 -135.5 -35t-89 -109t-31.5 -193q0 -128 29.5 -215.5t87 -132t138.5 -44.5zM549 -22q-143 0 -249 59t-163.5 165t-57.5 247q0 144 61 253.5t169.5 171t252.5 61.5t249.5 -58.5
t163 -164.5t57.5 -248q0 -144 -60.5 -253.5t-169.5 -171t-253 -61.5zM556 1241q-57 0 -99 -19.5t-69.5 -61t-41.5 -108.5h-88q22 130 58.5 203t94.5 103.5t145 30.5t145 -30.5t94.5 -103.5t58.5 -203h-88q-14 67 -41.5 108.5t-69 61t-99.5 19.5z" />
    <glyph glyph-name="uni0210" unicode="&#x210;" horiz-adv-x="1394" 
d="M718 747q120 0 194 60.5t74 183.5q0 79 -32.5 133.5t-108.5 82.5t-206 28h-315l13 130h412q171 0 274.5 -45t150.5 -122.5t47 -175.5q0 -91 -39 -162.5t-116 -117.5t-193 -63v7q82 -5 131 -28t79 -69t51 -119l76 -244q19 -65 39 -95t49 -38t76 -8v-86
q-114 -7 -183.5 -3.5t-110 23t-63 59t-40.5 105.5l-70 242q-22 78 -44.5 120.5t-59.5 59.5t-102 17h-366l-13 125h396zM486 1365v-1249l164 -52v-64h-561v64l166 52v1133l-166 51v65h397zM607 1499h-94l-320 238v30h253zM881 1499h-84l-215 242v26h232z" />
    <glyph glyph-name="uni0211" unicode="&#x211;" horiz-adv-x="860" 
d="M722 929q56 0 83 -29t27 -77q0 -57 -29 -90t-70 -33q-36 0 -68.5 6.5t-65 12.5t-69.5 6q-24 0 -49 -5t-49.5 -15.5t-47.5 -27.5l-26 41q68 60 121 100.5t96 65t79 35t68 10.5zM421 736v-630l159 -47v-59h-516v59l148 46v591q-14 14 -36.5 28.5t-52.5 30.5t-65 32v37
l297 113h32zM372 1052h-94l-305 296v33h242zM647 1052h-85l-210 300v29h225z" />
    <glyph glyph-name="uni0212" unicode="&#x212;" horiz-adv-x="1394" 
d="M718 747q120 0 194 60.5t74 183.5q0 79 -32.5 133.5t-108.5 82.5t-206 28h-315l13 130h412q171 0 274.5 -45t150.5 -122.5t47 -175.5q0 -91 -39 -162.5t-116 -117.5t-193 -63v7q82 -5 131 -28t79 -69t51 -119l76 -244q19 -65 39 -95t49 -38t76 -8v-86
q-114 -7 -183.5 -3.5t-110 23t-63 59t-40.5 105.5l-70 242q-22 78 -44.5 120.5t-59.5 59.5t-102 17h-366l-13 125h396zM486 1365v-1249l164 -52v-64h-561v64l166 52v1133l-166 51v65h397zM690 1632q-83 0 -132.5 -30t-68.5 -103h-94q22 106 58 165.5t94 84t143 24.5
q86 0 143.5 -24.5t94 -84t57.5 -165.5h-94q-19 73 -68.5 103t-132.5 30z" />
    <glyph glyph-name="uni0213" unicode="&#x213;" horiz-adv-x="860" 
d="M722 929q56 0 83 -29t27 -77q0 -57 -29 -90t-70 -33q-36 0 -68.5 6.5t-65 12.5t-69.5 6q-24 0 -49 -5t-49.5 -15.5t-47.5 -27.5l-26 41q68 60 121 100.5t96 65t79 35t68 10.5zM421 736v-630l159 -47v-59h-516v59l148 46v591q-14 14 -36.5 28.5t-52.5 30.5t-65 32v37
l297 113h32zM445 1241q-57 0 -99 -19.5t-69.5 -61t-41.5 -108.5h-88q22 130 58.5 203t94.5 103.5t145 30.5t145 -30.5t94.5 -103.5t58.5 -203h-88q-14 67 -41.5 108.5t-69 61t-99.5 19.5z" />
    <glyph glyph-name="uni0214" unicode="&#x214;" horiz-adv-x="1588" 
d="M1234 510v739l-169 51v65h468v-65l-166 -51v-728q0 -177 -65 -298t-189.5 -183t-302.5 -62q-193 0 -324 61.5t-198 186t-67 311.5v712l-166 51v65h563v-65l-166 -51v-714q0 -132 43.5 -218.5t131 -129t218.5 -42.5q127 0 213.5 41t131 122t44.5 202zM751 1499h-94
l-320 238v30h253zM1025 1499h-84l-215 242v26h232z" />
    <glyph glyph-name="uni0215" unicode="&#x215;" horiz-adv-x="1159" 
d="M387 312q0 -56 17 -90t56 -49t106 -15q62 0 122.5 19t95.5 48l31 -47q-66 -62 -115.5 -101.5t-90 -61t-79.5 -29.5t-86 -8q-136 0 -201 77.5t-65 231.5v495l-150 66v61l373 18l-14 -131v-484zM804 -19l-39 189v617l-134 63v61l357 16l-14 -134v-609q10 -9 27.5 -20
t38.5 -22.5t42 -20.5t38 -14v-39l-286 -87h-30zM480 1052h-94l-305 296v33h242zM755 1052h-85l-210 300v29h225z" />
    <glyph glyph-name="uni0216" unicode="&#x216;" horiz-adv-x="1588" 
d="M1234 510v739l-169 51v65h468v-65l-166 -51v-728q0 -177 -65 -298t-189.5 -183t-302.5 -62q-193 0 -324 61.5t-198 186t-67 311.5v712l-166 51v65h563v-65l-166 -51v-714q0 -132 43.5 -218.5t131 -129t218.5 -42.5q127 0 213.5 41t131 122t44.5 202zM834 1632
q-83 0 -132.5 -30t-68.5 -103h-94q22 106 58 165.5t94 84t143 24.5q86 0 143.5 -24.5t94 -84t57.5 -165.5h-94q-19 73 -68.5 103t-132.5 30z" />
    <glyph glyph-name="uni0217" unicode="&#x217;" horiz-adv-x="1159" 
d="M387 312q0 -56 17 -90t56 -49t106 -15q62 0 122.5 19t95.5 48l31 -47q-66 -62 -115.5 -101.5t-90 -61t-79.5 -29.5t-86 -8q-136 0 -201 77.5t-65 231.5v495l-150 66v61l373 18l-14 -131v-484zM804 -19l-39 189v617l-134 63v61l357 16l-14 -134v-609q10 -9 27.5 -20
t38.5 -22.5t42 -20.5t38 -14v-39l-286 -87h-30zM553 1241q-57 0 -99 -19.5t-69.5 -61t-41.5 -108.5h-88q22 130 58.5 203t94.5 103.5t145 30.5t145 -30.5t94.5 -103.5t58.5 -203h-88q-14 67 -41.5 108.5t-69 61t-99.5 19.5z" />
    <glyph glyph-name="uni0218" unicode="&#x218;" horiz-adv-x="1183" 
d="M968 1304l-149 28l114 99h57l45 -467l-88 -6l-154 302l55 -64q-56 39 -115.5 55.5t-130.5 16.5q-133 0 -204.5 -51.5t-71.5 -149.5q0 -64 28.5 -105.5t78 -69.5t113 -48t133.5 -41q71 -20 141.5 -47t130 -70t95.5 -112.5t36 -173.5q0 -141 -68 -234.5t-189.5 -140.5
t-284.5 -47q-108 0 -193.5 12t-175.5 45l-77 377h93l233 -373l-203 140q82 -41 150 -59.5t152 -18.5q117 0 195.5 25.5t117.5 78.5t39 135q0 73 -34.5 119.5t-92 75.5t-127 49.5t-138.5 42.5q-70 21 -133 49t-112.5 70t-78 105t-28.5 155q0 121 59 205.5t169.5 130
t262.5 45.5q98 0 181 -19.5t169 -63.5zM467 -433q78 21 104.5 42.5t26.5 56.5q0 27 -18.5 44t-43.5 28.5t-43.5 21.5t-18.5 23q0 54 33.5 86t94.5 32q59 0 96.5 -37.5t37.5 -113.5q0 -56 -20.5 -105.5t-74.5 -87.5t-154 -61z" />
    <glyph glyph-name="uni0219" unicode="&#x219;" horiz-adv-x="856" 
d="M463 935q69 0 127 -11t127 -38l19 -248h-80l-111 244l100 -95q-48 26 -94 39t-90 13q-89 0 -136.5 -31t-47.5 -89q0 -50 28.5 -79.5t80.5 -49t122 -39.5q52 -15 99.5 -35.5t84.5 -52t58.5 -78.5t21.5 -115q0 -94 -47.5 -159t-134.5 -98.5t-208 -33.5q-71 0 -138.5 10.5
t-120.5 31.5l-41 262h81l136 -262l-129 90q36 -15 68 -23t62.5 -10.5t58.5 -2.5q112 0 170.5 36.5t58.5 109.5q0 44 -21.5 71.5t-58.5 45t-84 31.5t-98 30q-68 22 -118.5 54.5t-78 84t-27.5 130.5q0 86 45.5 145.5t127 90.5t188.5 31zM309 -433q78 21 104.5 42.5t26.5 56.5
q0 27 -18.5 44t-43.5 28.5t-43.5 21.5t-18.5 23q0 54 33.5 86t94.5 32q59 0 96.5 -37.5t37.5 -113.5q0 -56 -20.5 -105.5t-74.5 -87.5t-154 -61z" />
    <glyph glyph-name="uni021A" unicode="&#x21a;" horiz-adv-x="1412" 
d="M589 1302h232v-1186l171 -52v-64h-574v64l171 52v1186zM1220 1235h-1035l92 36l-144 -316l-87 6l52 481h56l129 -99l-108 22h1055l-101 -22l129 99h56l52 -481l-87 -6l-144 316zM578 -433q78 21 104.5 42.5t26.5 56.5q0 27 -18.5 44t-43.5 28.5t-43.5 21.5t-18.5 23
q0 54 33.5 86t94.5 32q59 0 96.5 -37.5t37.5 -113.5q0 -56 -20.5 -105.5t-74.5 -87.5t-154 -61z" />
    <glyph glyph-name="uni021B" unicode="&#x21b;" horiz-adv-x="763" 
d="M388 275q0 -71 42 -104t127 -33q39 0 84.5 7.5t98.5 22.5v-67q-71 -46 -125 -72.5t-97 -37.5t-82 -11q-76 0 -134 26t-90.5 79.5t-32.5 132.5v536l-141 82v41q33 17 64.5 35t61.5 37.5t58 41t55 45t53 49.5h58v-201v-609zM305 786l2 127h405l-11 -127h-396zM319 -433
q78 21 104.5 42.5t26.5 56.5q0 27 -18.5 44t-43.5 28.5t-43.5 21.5t-18.5 23q0 54 33.5 86t94.5 32q59 0 96.5 -37.5t37.5 -113.5q0 -56 -20.5 -105.5t-74.5 -87.5t-154 -61z" />
    <glyph glyph-name="uni022A" unicode="&#x22a;" horiz-adv-x="1595" 
d="M801 1387q157 0 285 -51t220.5 -144t142.5 -222t50 -286q0 -156 -51 -285.5t-144.5 -224t-223 -145.5t-286.5 -51t-285 51t-220.5 144t-142 222t-49.5 285q0 157 50.5 286.5t144 224t223 145.5t286.5 51zM806 112q141 0 241.5 63t154.5 182t54 287q0 196 -57 331.5
t-162 206t-248 70.5q-140 0 -241 -62.5t-154.5 -181.5t-53.5 -287q0 -195 57 -331t161.5 -207t247.5 -71zM591 1515q-58 0 -91 33.5t-33 85.5t33 84.5t91 32.5t91 -32.5t33 -84.5t-33 -85.5t-91 -33.5zM1003 1515q-58 0 -91 33.5t-33 85.5t33 84.5t91 32.5t91 -32.5
t33 -84.5t-33 -85.5t-91 -33.5zM516 1922v124h562v-124h-562z" />
    <glyph glyph-name="uni022B" unicode="&#x22b;" horiz-adv-x="1111" 
d="M555 92q78 0 135.5 35t89 109.5t31.5 192.5q0 130 -30 217t-86.5 131t-138.5 44q-78 0 -135.5 -35t-89 -109t-31.5 -193q0 -128 29.5 -215.5t87 -132t138.5 -44.5zM549 -22q-143 0 -249 59t-163.5 165t-57.5 247q0 144 61 253.5t169.5 171t252.5 61.5t249.5 -58.5
t163 -164.5t57.5 -248q0 -144 -60.5 -253.5t-169.5 -171t-253 -61.5zM355 1099q-59 0 -92 33.5t-33 85.5t33 84.5t92 32.5q57 0 90 -32.5t33 -84.5t-33 -85.5t-90 -33.5zM758 1099q-58 0 -91 33.5t-33 85.5t33 84.5t91 32.5t91 -32.5t33 -84.5t-33 -85.5t-91 -33.5z
M279 1542v123h554v-123h-554z" />
    <glyph glyph-name="uni022C" unicode="&#x22c;" horiz-adv-x="1595" 
d="M801 1387q157 0 285 -51t220.5 -144t142.5 -222t50 -286q0 -156 -51 -285.5t-144.5 -224t-223 -145.5t-286.5 -51t-285 51t-220.5 144t-142 222t-49.5 285q0 157 50.5 286.5t144 224t223 145.5t286.5 51zM806 112q141 0 241.5 63t154.5 182t54 287q0 196 -57 331.5
t-162 206t-248 70.5q-140 0 -241 -62.5t-154.5 -181.5t-53.5 -287q0 -195 57 -331t161.5 -207t247.5 -71zM1100 1764q-18 -110 -40.5 -168t-55.5 -79.5t-83 -21.5q-39 0 -74 18.5t-67 43.5t-60 43.5t-53 18.5q-18 0 -31.5 -8.5t-25 -33.5t-23.5 -75h-96q19 110 41.5 168
t55.5 79.5t82 21.5q39 0 74 -18.5t67 -43.5t60 -43.5t52 -18.5q19 0 32.5 8.5t25.5 34t23 74.5h96zM516 1922v124h562v-124h-562z" />
    <glyph glyph-name="uni022D" unicode="&#x22d;" horiz-adv-x="1111" 
d="M555 92q78 0 135.5 35t89 109.5t31.5 192.5q0 130 -30 217t-86.5 131t-138.5 44q-78 0 -135.5 -35t-89 -109t-31.5 -193q0 -128 29.5 -215.5t87 -132t138.5 -44.5zM549 -22q-143 0 -249 59t-163.5 165t-57.5 247q0 144 61 253.5t169.5 171t252.5 61.5t249.5 -58.5
t163 -164.5t57.5 -248q0 -144 -60.5 -253.5t-169.5 -171t-253 -61.5zM855 1369q-17 -120 -38.5 -188t-54 -96t-85.5 -28q-43 0 -77.5 24t-63 55.5t-55.5 56t-54 24.5q-17 0 -30.5 -12t-25 -44.5t-24.5 -95.5h-93q17 120 38.5 187.5t54.5 96t84 28.5q44 0 78 -24.5t63 -56
t56 -55.5t54 -24q18 0 31 11.5t24.5 44.5t23.5 96h94zM279 1542v123h554v-123h-554z" />
    <glyph glyph-name="uni0230" unicode="&#x230;" horiz-adv-x="1595" 
d="M801 1387q157 0 285 -51t220.5 -144t142.5 -222t50 -286q0 -156 -51 -285.5t-144.5 -224t-223 -145.5t-286.5 -51t-285 51t-220.5 144t-142 222t-49.5 285q0 157 50.5 286.5t144 224t223 145.5t286.5 51zM806 112q141 0 241.5 63t154.5 182t54 287q0 196 -57 331.5
t-162 206t-248 70.5q-140 0 -241 -62.5t-154.5 -181.5t-53.5 -287q0 -195 57 -331t161.5 -207t247.5 -71zM797 1508q-65 0 -101.5 35t-36.5 91t36.5 90t101.5 34t101.5 -34t36.5 -90t-36.5 -91t-101.5 -35zM516 1922v124h562v-124h-562z" />
    <glyph glyph-name="uni0231" unicode="&#x231;" horiz-adv-x="1111" 
d="M555 92q78 0 135.5 35t89 109.5t31.5 192.5q0 130 -30 217t-86.5 131t-138.5 44q-78 0 -135.5 -35t-89 -109t-31.5 -193q0 -128 29.5 -215.5t87 -132t138.5 -44.5zM549 -22q-143 0 -249 59t-163.5 165t-57.5 247q0 144 61 253.5t169.5 171t252.5 61.5t249.5 -58.5
t163 -164.5t57.5 -248q0 -144 -60.5 -253.5t-169.5 -171t-253 -61.5zM556 1092q-65 0 -101.5 35t-36.5 91t36.5 90t101.5 34t101.5 -34t36.5 -90t-36.5 -91t-101.5 -35zM279 1542v123h554v-123h-554z" />
    <glyph glyph-name="uni0232" unicode="&#x232;" horiz-adv-x="1447" 
d="M145 1248l-152 52v65h605v-65l-169 -50l416 -587l-66 1l352 586l-168 50v65h468v-65l-148 -50l-421 -659v-475l166 -52v-64h-564v64l166 52v468zM478 1571v124h562v-124h-562z" />
    <glyph glyph-name="uni0233" unicode="&#x233;" horiz-adv-x="1126" 
d="M679 156l-122 -212l-416 859l-131 49v61h493v-61l-133 -41zM260 -508q-71 0 -112 34t-41 95q0 29 11.5 52t29 36t33.5 13q19 0 42 -8t50 -16t56 -8q33 0 59.5 14t50.5 46.5t49 88.5l91 216l42 99l247 661l-129 37v61h364v-61l-108 -36l-411 -1013q-48 -118 -95 -186
t-102.5 -96.5t-126.5 -28.5zM321 1156v123h554v-123h-554z" />
    <glyph glyph-name="uni0237" unicode="&#x237;" horiz-adv-x="549" 
d="M191 710q-11 12 -36.5 28t-56 32.5t-60.5 29.5v45l330 90h43l-11 -202v-766q0 -61 -6.5 -106.5t-25 -84.5t-56 -78.5t-100 -89t-155.5 -116.5l-60 71q67 70 106 116t58 80.5t24.5 68.5t5.5 80v802z" />
    <glyph glyph-name="uni0259" unicode="&#x259;" horiz-adv-x="988" 
d="M464 -22q-124 0 -207 51t-127 150t-53 242h672v-96l-545 -16l86 41q5 -87 27 -146t62 -88.5t100 -29.5q70 0 120.5 34.5t78.5 106.5t28 183q0 120 -41 200.5t-119 121.5t-189 41q-48 0 -92.5 -9t-86 -27t-81.5 -42l-19 60q60 58 122 98.5t127 61t132 20.5q135 0 236 -58
t157.5 -162.5t56.5 -244.5t-53.5 -251.5t-153 -176t-238.5 -64.5z" />
    <glyph glyph-name="uni02B9" unicode="&#x2b9;" horiz-adv-x="441" 
d="M107 858l56 507h231v-45l-179 -462h-108z" />
    <glyph glyph-name="uni02BA" unicode="&#x2ba;" horiz-adv-x="791" 
d="M107 858l56 507h231v-45l-179 -462h-108zM456 858l56 507h231v-45l-179 -462h-108z" />
    <glyph glyph-name="uni02BC" unicode="&#x2bc;" horiz-adv-x="506" 
d="M93 918q100 44 134.5 84t34.5 85q0 30 -20.5 51.5t-48 38t-48.5 31t-21 30.5q0 60 39.5 100.5t108.5 40.5q71 0 114.5 -45t43.5 -126t-28 -145.5t-93 -118.5t-177 -104z" />
    <glyph glyph-name="circumflex" unicode="&#x2c6;" horiz-adv-x="1000" 
d="M186 1052l220 329h188l220 -329h-113l-227 206h52l-227 -206h-113z" />
    <glyph glyph-name="caron" unicode="&#x2c7;" horiz-adv-x="1000" 
d="M526 1175h-52l227 206h113l-220 -329h-188l-220 329h113z" />
    <glyph glyph-name="breve" unicode="&#x2d8;" horiz-adv-x="1000" 
d="M500 1193q58 0 99.5 19t69 61t41.5 108h88q-22 -129 -58.5 -202.5t-94.5 -104t-145 -30.5t-145 30.5t-94.5 104t-58.5 202.5h88q14 -66 41.5 -108t69.5 -61t99 -19z" />
    <glyph glyph-name="dotaccent" unicode="&#x2d9;" horiz-adv-x="1000" 
d="M500 1092q-65 0 -101.5 35t-36.5 91t36.5 90t101.5 34t101.5 -34t36.5 -90t-36.5 -91t-101.5 -35z" />
    <glyph glyph-name="ring" unicode="&#x2da;" horiz-adv-x="1000" 
d="M499 1398q81 0 132 -50t51 -130q0 -79 -51 -129.5t-132 -50.5q-80 0 -131.5 50.5t-51.5 129.5q0 80 51.5 130t131.5 50zM499 1103q51 0 82.5 32t31.5 83q0 53 -31.5 85t-82.5 32t-82 -32t-31 -85q0 -51 31 -83t82 -32z" />
    <glyph glyph-name="ogonek" unicode="&#x2db;" horiz-adv-x="1000" 
d="M332 -102q-27 -45 -42.5 -79.5t-21.5 -61.5t-6 -52q0 -48 28 -74t74 -26q31 0 62 13t76 52l21 -49q-39 -47 -75 -75.5t-72.5 -41t-78.5 -12.5q-84 0 -129.5 44.5t-45.5 119.5q0 33 9 67t33.5 77.5t72.5 103.5l112 145h69z" />
    <glyph glyph-name="tilde" unicode="&#x2dc;" horiz-adv-x="1000" 
d="M799 1369q-17 -120 -38.5 -188t-54 -96t-85.5 -28q-43 0 -77.5 24t-63 55.5t-55.5 56t-54 24.5q-17 0 -30.5 -12t-25 -44.5t-24.5 -95.5h-93q17 120 38.5 187.5t54.5 96t84 28.5q44 0 78 -24.5t63 -56t56 -55.5t54 -24q18 0 31 11.5t24.5 44.5t23.5 96h94z" />
    <glyph glyph-name="hungarumlaut" unicode="&#x2dd;" horiz-adv-x="1000" 
d="M573 1052l157 329h242v-33l-305 -296h-94zM298 1052l70 329h225v-29l-210 -300h-85z" />
    <glyph glyph-name="gravecomb" unicode="&#x300;" 
d="M66 1052h-94l-319 296v33h254z" />
    <glyph glyph-name="acutecomb" unicode="&#x301;" 
d="M-66 1052l159 329h254v-33l-319 -296h-94z" />
    <glyph glyph-name="uni0302" unicode="&#x302;" 
d="M-314 1052l220 329h188l220 -329h-113l-227 206h52l-227 -206h-113z" />
    <glyph glyph-name="tildecomb" unicode="&#x303;" 
d="M299 1369q-17 -120 -38.5 -188t-54 -96t-85.5 -28q-43 0 -77.5 24t-63 55.5t-55.5 56t-54 24.5q-17 0 -30.5 -12t-25 -44.5t-24.5 -95.5h-93q17 120 38.5 187.5t54.5 96t84 28.5q44 0 78 -24.5t63 -56t56 -55.5t54 -24q18 0 31 11.5t24.5 44.5t23.5 96h94z" />
    <glyph glyph-name="uni0304" unicode="&#x304;" 
d="M-277 1156v123h554v-123h-554z" />
    <glyph glyph-name="uni0306" unicode="&#x306;" 
d="M0 1193q58 0 99.5 19t69 61t41.5 108h88q-22 -129 -58.5 -202.5t-94.5 -104t-145 -30.5t-145 30.5t-94.5 104t-58.5 202.5h88q14 -66 41.5 -108t69.5 -61t99 -19z" />
    <glyph glyph-name="uni0307" unicode="&#x307;" 
d="M0 1092q-65 0 -101.5 35t-36.5 91t36.5 90t101.5 34t101.5 -34t36.5 -90t-36.5 -91t-101.5 -35z" />
    <glyph glyph-name="uni0308" unicode="&#x308;" 
d="M-201 1099q-59 0 -92 33.5t-33 85.5t33 84.5t92 32.5q57 0 90 -32.5t33 -84.5t-33 -85.5t-90 -33.5zM202 1099q-58 0 -91 33.5t-33 85.5t33 84.5t91 32.5t91 -32.5t33 -84.5t-33 -85.5t-91 -33.5z" />
    <glyph glyph-name="hookabovecomb" unicode="&#x309;" 
d="M-177 1279l22 145q111 -6 181 -20t107.5 -36.5t51.5 -53.5t14 -69q0 -46 -22.5 -85.5t-82 -71t-172.5 -54.5l-17 68q64 14 96 29t43 32t11 37q0 22 -15 38.5t-64 27t-153 13.5z" />
    <glyph glyph-name="uni030A" unicode="&#x30a;" 
d="M-1 1398q81 0 132 -50t51 -130q0 -79 -51 -129.5t-132 -50.5q-80 0 -131.5 50.5t-51.5 129.5q0 80 51.5 130t131.5 50zM-1 1103q51 0 82.5 32t31.5 83q0 53 -31.5 85t-82.5 32t-82 -32t-31 -85q0 -51 31 -83t82 -32z" />
    <glyph glyph-name="uni030B" unicode="&#x30b;" 
d="M73 1052l157 329h242v-33l-305 -296h-94zM-202 1052l70 329h225v-29l-210 -300h-85z" />
    <glyph glyph-name="uni030C" unicode="&#x30c;" 
d="M26 1175h-52l227 206h113l-220 -329h-188l-220 329h113z" />
    <glyph glyph-name="uni030F" unicode="&#x30f;" 
d="M-73 1052h-94l-305 296v33h242zM202 1052h-85l-210 300v29h225z" />
    <glyph glyph-name="uni0311" unicode="&#x311;" 
d="M0 1241q-57 0 -99 -19.5t-69.5 -61t-41.5 -108.5h-88q22 130 58.5 203t94.5 103.5t145 30.5t145 -30.5t94.5 -103.5t58.5 -203h-88q-14 67 -41.5 108.5t-69 61t-99.5 19.5z" />
    <glyph glyph-name="uni0312" unicode="&#x312;" 
d="M130 1164q0 -54 -35.5 -88t-95.5 -34t-97.5 35.5t-37.5 106.5q0 50 24 95.5t81.5 80.5t157.5 52l15 -67q-82 -17 -108 -39.5t-26 -48.5q0 -20 18.5 -34t42.5 -23.5t42.5 -18t18.5 -17.5z" />
    <glyph glyph-name="uni031B" unicode="&#x31b;" 
d="M365 1052q0 -100 -72.5 -160t-229.5 -60h-124v84h66q74 -1 113 8.5t54 27.5t15 42q0 29 -7.5 48t-15.5 34.5t-8 31.5q1 30 28.5 51t64.5 21q52 0 84 -32.5t32 -95.5z" />
    <glyph glyph-name="dotbelowcomb" unicode="&#x323;" 
d="M0 -367q-65 0 -101.5 35t-36.5 91t36.5 90t101.5 34t101.5 -34t36.5 -90t-36.5 -91t-101.5 -35z" />
    <glyph glyph-name="uni0324" unicode="&#x324;" 
d="M-202 -360q-58 0 -91 33.5t-33 85.5t33 84.5t91 32.5t91 -32.5t33 -84.5t-33 -85.5t-91 -33.5zM202 -360q-58 0 -91 33.5t-33 85.5t33 84.5t91 32.5t91 -32.5t33 -84.5t-33 -85.5t-91 -33.5z" />
    <glyph glyph-name="uni0326" unicode="&#x326;" 
d="M-128 -433q78 21 104.5 42.5t26.5 56.5q0 27 -18.5 44t-43.5 28.5t-43.5 21.5t-18.5 23q0 54 33.5 86t94.5 32q59 0 96.5 -37.5t37.5 -113.5q0 -56 -20.5 -105.5t-74.5 -87.5t-154 -61z" />
    <glyph glyph-name="uni0327" unicode="&#x327;" 
d="M-96 -508q-82 0 -115.5 25t-33.5 61q0 26 16.5 41.5t39.5 15.5q22 0 41 -16t41.5 -32.5t55.5 -16.5q47 0 73.5 22t26.5 62q0 30 -19 52t-68.5 38t-140.5 29v20l190 250h94l-185 -249l-4 96q102 -17 157 -45t76 -63.5t21 -78.5q0 -64 -35.5 -111.5t-96 -73.5t-134.5 -26z
" />
    <glyph glyph-name="uni0328" unicode="&#x328;" 
d="M-168 -102q-27 -45 -42.5 -79.5t-21.5 -61.5t-6 -52q0 -48 28 -74t74 -26q31 0 62 13t76 52l21 -49q-39 -47 -75 -75.5t-72.5 -41t-78.5 -12.5q-84 0 -129.5 44.5t-45.5 119.5q0 33 9 67t33.5 77.5t72.5 103.5l112 145h69z" />
    <glyph glyph-name="uni032E" unicode="&#x32e;" 
d="M0 -265q58 0 99.5 19.5t69 61t41.5 108.5h88q-22 -129 -58.5 -202.5t-94.5 -104t-145 -30.5t-145 30.5t-94.5 104t-58.5 202.5h88q14 -67 41.5 -108.5t69.5 -61t99 -19.5z" />
    <glyph glyph-name="uni0331" unicode="&#x331;" 
d="M-277 -306v125h554v-125h-554z" />
    <glyph glyph-name="uni0335" unicode="&#x335;" 
d="M-333 1068v107h667v-107h-667z" />
    <glyph glyph-name="Wgrave" unicode="&#x1e80;" horiz-adv-x="2057" 
d="M1065 1158l-417 -1169h-184l-305 1259l-160 52v65h577v-65l-172 -50l245 -1055l-50 -2l403 1182h168l436 -1211l-80 -22l236 1108l-170 50v65h460v-65l-152 -50l-296 -1261h-178l-418 1151zM1127 1499h-94l-293 237v31h257z" />
    <glyph glyph-name="wgrave" unicode="&#x1e81;" horiz-adv-x="1584" 
d="M1328 814l-128 38v61h354v-61l-107 -36l-245 -832h-142l-290 755l57 9l-295 -764h-142l-251 819l-130 49v61h475v-61l-130 -41l193 -652l-54 1l290 769h130l291 -764h-50zM894 1052h-94l-319 296v33h254z" />
    <glyph glyph-name="Wacute" unicode="&#x1e82;" horiz-adv-x="2057" 
d="M1065 1158l-417 -1169h-184l-305 1259l-160 52v65h577v-65l-172 -50l245 -1055l-50 -2l403 1182h168l436 -1211l-80 -22l236 1108l-170 50v65h460v-65l-152 -50l-296 -1261h-178l-418 1151zM1021 1499l130 268h257v-31l-293 -237h-94z" />
    <glyph glyph-name="wacute" unicode="&#x1e83;" horiz-adv-x="1584" 
d="M1328 814l-128 38v61h354v-61l-107 -36l-245 -832h-142l-290 755l57 9l-295 -764h-142l-251 819l-130 49v61h475v-61l-130 -41l193 -652l-54 1l290 769h130l291 -764h-50zM762 1052l159 329h254v-33l-319 -296h-94z" />
    <glyph glyph-name="Wdieresis" unicode="&#x1e84;" horiz-adv-x="2057" 
d="M1065 1158l-417 -1169h-184l-305 1259l-160 52v65h577v-65l-172 -50l245 -1055l-50 -2l403 1182h168l436 -1211l-80 -22l236 1108l-170 50v65h460v-65l-152 -50l-296 -1261h-178l-418 1151zM868 1515q-58 0 -91 33.5t-33 85.5t33 84.5t91 32.5t91 -32.5t33 -84.5
t-33 -85.5t-91 -33.5zM1280 1515q-58 0 -91 33.5t-33 85.5t33 84.5t91 32.5t91 -32.5t33 -84.5t-33 -85.5t-91 -33.5z" />
    <glyph glyph-name="wdieresis" unicode="&#x1e85;" horiz-adv-x="1584" 
d="M1328 814l-128 38v61h354v-61l-107 -36l-245 -832h-142l-290 755l57 9l-295 -764h-142l-251 819l-130 49v61h475v-61l-130 -41l193 -652l-54 1l290 769h130l291 -764h-50zM627 1099q-59 0 -92 33.5t-33 85.5t33 84.5t92 32.5q57 0 90 -32.5t33 -84.5t-33 -85.5t-90 -33.5
zM1030 1099q-58 0 -91 33.5t-33 85.5t33 84.5t91 32.5t91 -32.5t33 -84.5t-33 -85.5t-91 -33.5z" />
    <glyph glyph-name="uni1E9E" unicode="&#x1e9e;" horiz-adv-x="2350" 
d="M968 1304l-149 28l114 99h57l45 -467l-88 -6l-154 302l55 -64q-56 39 -115.5 55.5t-130.5 16.5q-133 0 -204.5 -51.5t-71.5 -149.5q0 -64 28.5 -105.5t78 -69.5t113 -48t133.5 -41q71 -20 141.5 -47t130 -70t95.5 -112.5t36 -173.5q0 -141 -68 -234.5t-189.5 -140.5
t-284.5 -47q-108 0 -193.5 12t-175.5 45l-77 377h93l233 -373l-203 140q82 -41 150 -59.5t152 -18.5q117 0 195.5 25.5t117.5 78.5t39 135q0 73 -34.5 119.5t-92 75.5t-127 49.5t-138.5 42.5q-70 21 -133 49t-112.5 70t-78 105t-28.5 155q0 121 59 205.5t169.5 130
t262.5 45.5q98 0 181 -19.5t169 -63.5zM2135 1304l-149 28l114 99h57l45 -467l-88 -6l-154 302l55 -64q-56 39 -115.5 55.5t-130.5 16.5q-133 0 -204.5 -51.5t-71.5 -149.5q0 -64 28.5 -105.5t78 -69.5t113 -48t133.5 -41q71 -20 141.5 -47t130 -70t95.5 -112.5t36 -173.5
q0 -141 -68 -234.5t-189.5 -140.5t-284.5 -47q-108 0 -193.5 12t-175.5 45l-77 377h93l233 -373l-203 140q82 -41 150 -59.5t152 -18.5q117 0 195.5 25.5t117.5 78.5t39 135q0 73 -34.5 119.5t-92 75.5t-127 49.5t-138.5 42.5q-70 21 -133 49t-112.5 70t-78 105t-28.5 155
q0 121 59 205.5t169.5 130t262.5 45.5q98 0 181 -19.5t169 -63.5z" />
    <glyph glyph-name="uni1EA0" unicode="&#x1ea0;" horiz-adv-x="1513" 
d="M380 472v126h686v-126h-686zM1362 117l161 -53v-64h-584v64l174 51l-449 1100h55l-418 -1100l167 -51v-64h-472v64l158 51l506 1266h174zM735 -367q-65 0 -101.5 35t-36.5 91t36.5 90t101.5 34t101.5 -34t36.5 -90t-36.5 -91t-101.5 -35z" />
    <glyph glyph-name="uni1EA1" unicode="&#x1ea1;" horiz-adv-x="1004" 
d="M689 581l-4 -96q-123 -23 -199 -46.5t-116.5 -50t-55.5 -57.5t-15 -70q0 -68 37.5 -102t102.5 -34q49 0 89 21.5t63.5 57.5t23.5 80v366q0 82 -39 125.5t-133 43.5q-41 0 -81 -7t-75 -21l54 60q-6 -38 -13 -69t-15.5 -54.5t-19.5 -41.5q-16 -25 -43.5 -34.5t-61.5 -9.5
q-45 0 -69 18t-24 46q0 35 34.5 74t94 73.5t136.5 56t162 21.5q111 0 177.5 -32.5t95.5 -93.5t29 -145v-455q0 -32 9.5 -52.5t28 -30t46.5 -9.5q22 0 46.5 6.5t50.5 18.5v-68q-47 -44 -100.5 -67t-101.5 -23q-59 0 -99.5 25.5t-61.5 75.5t-23 122l8 6q-15 -72 -53.5 -124
t-95.5 -79.5t-128 -27.5q-120 0 -192 61.5t-72 179.5q0 62 25 113t90 93.5t183 80.5t305 75zM514 -367q-65 0 -101.5 35t-36.5 91t36.5 90t101.5 34t101.5 -34t36.5 -90t-36.5 -91t-101.5 -35z" />
    <glyph glyph-name="uni1EA2" unicode="&#x1ea2;" horiz-adv-x="1513" 
d="M380 472v126h686v-126h-686zM1362 117l161 -53v-64h-584v64l174 51l-449 1100h55l-418 -1100l167 -51v-64h-472v64l158 51l506 1266h174zM574 1693l19 142q107 -4 175 -17.5t106 -35.5t53 -52t15 -66q0 -45 -21.5 -82t-80 -65t-168.5 -45l-15 67q59 11 89.5 23t41 26.5
t10.5 34.5t-16 34.5t-64 23.5t-144 12z" />
    <glyph glyph-name="uni1EA3" unicode="&#x1ea3;" horiz-adv-x="1004" 
d="M689 581l-4 -96q-123 -23 -199 -46.5t-116.5 -50t-55.5 -57.5t-15 -70q0 -68 37.5 -102t102.5 -34q49 0 89 21.5t63.5 57.5t23.5 80v366q0 82 -39 125.5t-133 43.5q-41 0 -81 -7t-75 -21l54 60q-6 -38 -13 -69t-15.5 -54.5t-19.5 -41.5q-16 -25 -43.5 -34.5t-61.5 -9.5
q-45 0 -69 18t-24 46q0 35 34.5 74t94 73.5t136.5 56t162 21.5q111 0 177.5 -32.5t95.5 -93.5t29 -145v-455q0 -32 9.5 -52.5t28 -30t46.5 -9.5q22 0 46.5 6.5t50.5 18.5v-68q-47 -44 -100.5 -67t-101.5 -23q-59 0 -99.5 25.5t-61.5 75.5t-23 122l8 6q-15 -72 -53.5 -124
t-95.5 -79.5t-128 -27.5q-120 0 -192 61.5t-72 179.5q0 62 25 113t90 93.5t183 80.5t305 75zM297 1279l22 145q111 -6 181 -20t107.5 -36.5t51.5 -53.5t14 -69q0 -46 -22.5 -85.5t-82 -71t-172.5 -54.5l-17 68q64 14 96 29t43 32t11 37q0 22 -15 38.5t-64 27t-153 13.5z" />
    <glyph glyph-name="uni1EA4" unicode="&#x1ea4;" horiz-adv-x="1513" 
d="M380 472v126h686v-126h-686zM1362 117l161 -53v-64h-584v64l174 51l-449 1100h55l-418 -1100l167 -51v-64h-472v64l158 51l506 1266h174zM1008 1664l107 233h245v-27l-261 -206h-91zM724 1653h42l-219 -154h-123l227 268h188l227 -268h-123z" />
    <glyph glyph-name="uni1EA5" unicode="&#x1ea5;" horiz-adv-x="1004" 
d="M689 581l-4 -96q-123 -23 -199 -46.5t-116.5 -50t-55.5 -57.5t-15 -70q0 -68 37.5 -102t102.5 -34q49 0 89 21.5t63.5 57.5t23.5 80v366q0 82 -39 125.5t-133 43.5q-41 0 -81 -7t-75 -21l54 60q-6 -38 -13 -69t-15.5 -54.5t-19.5 -41.5q-16 -25 -43.5 -34.5t-61.5 -9.5
q-45 0 -69 18t-24 46q0 35 34.5 74t94 73.5t136.5 56t162 21.5q111 0 177.5 -32.5t95.5 -93.5t29 -145v-455q0 -32 9.5 -52.5t28 -30t46.5 -9.5q22 0 46.5 6.5t50.5 18.5v-68q-47 -44 -100.5 -67t-101.5 -23q-59 0 -99.5 25.5t-61.5 75.5t-23 122l8 6q-15 -72 -53.5 -124
t-95.5 -79.5t-128 -27.5q-120 0 -192 61.5t-72 179.5q0 62 25 113t90 93.5t183 80.5t305 75zM731 1251l108 270h242v-30l-259 -240h-91zM448 1258h52l-227 -206h-113l220 329h188l220 -329h-113z" />
    <glyph glyph-name="uni1EA6" unicode="&#x1ea6;" horiz-adv-x="1513" 
d="M380 472v126h686v-126h-686zM1362 117l161 -53v-64h-584v64l174 51l-449 1100h55l-418 -1100l167 -51v-64h-472v64l158 51l506 1266h174zM482 1664h-91l-261 206v27h245zM766 1653l-219 -154h-123l227 268h188l227 -268h-123l-219 154h42z" />
    <glyph glyph-name="uni1EA7" unicode="&#x1ea7;" horiz-adv-x="1004" 
d="M689 581l-4 -96q-123 -23 -199 -46.5t-116.5 -50t-55.5 -57.5t-15 -70q0 -68 37.5 -102t102.5 -34q49 0 89 21.5t63.5 57.5t23.5 80v366q0 82 -39 125.5t-133 43.5q-41 0 -81 -7t-75 -21l54 60q-6 -38 -13 -69t-15.5 -54.5t-19.5 -41.5q-16 -25 -43.5 -34.5t-61.5 -9.5
q-45 0 -69 18t-24 46q0 35 34.5 74t94 73.5t136.5 56t162 21.5q111 0 177.5 -32.5t95.5 -93.5t29 -145v-455q0 -32 9.5 -52.5t28 -30t46.5 -9.5q22 0 46.5 6.5t50.5 18.5v-68q-47 -44 -100.5 -67t-101.5 -23q-59 0 -99.5 25.5t-61.5 75.5t-23 122l8 6q-15 -72 -53.5 -124
t-95.5 -79.5t-128 -27.5q-120 0 -192 61.5t-72 179.5q0 62 25 113t90 93.5t183 80.5t305 75zM217 1251h-91l-259 240v30h242zM500 1258l-227 -206h-113l220 329h188l220 -329h-113l-227 206h52z" />
    <glyph glyph-name="uni1EA8" unicode="&#x1ea8;" horiz-adv-x="1513" 
d="M380 472v126h686v-126h-686zM1362 117l161 -53v-64h-584v64l174 51l-449 1100h55l-418 -1100l167 -51v-64h-472v64l158 51l506 1266h174zM766 1653l-219 -154h-123l227 268h188l227 -268h-123l-219 154h42zM1012 1719q75 14 97.5 32t22.5 44q0 19 -14 33.5t-58 24
t-133 12.5l19 131q101 -4 164.5 -17.5t98.5 -34.5t49 -48t14 -60q0 -44 -20.5 -79t-74 -60.5t-154.5 -40.5z" />
    <glyph glyph-name="uni1EA9" unicode="&#x1ea9;" horiz-adv-x="1004" 
d="M689 581l-4 -96q-123 -23 -199 -46.5t-116.5 -50t-55.5 -57.5t-15 -70q0 -68 37.5 -102t102.5 -34q49 0 89 21.5t63.5 57.5t23.5 80v366q0 82 -39 125.5t-133 43.5q-41 0 -81 -7t-75 -21l54 60q-6 -38 -13 -69t-15.5 -54.5t-19.5 -41.5q-16 -25 -43.5 -34.5t-61.5 -9.5
q-45 0 -69 18t-24 46q0 35 34.5 74t94 73.5t136.5 56t162 21.5q111 0 177.5 -32.5t95.5 -93.5t29 -145v-455q0 -32 9.5 -52.5t28 -30t46.5 -9.5q22 0 46.5 6.5t50.5 18.5v-68q-47 -44 -100.5 -67t-101.5 -23q-59 0 -99.5 25.5t-61.5 75.5t-23 122l8 6q-15 -72 -53.5 -124
t-95.5 -79.5t-128 -27.5q-120 0 -192 61.5t-72 179.5q0 62 25 113t90 93.5t183 80.5t305 75zM500 1258l-227 -206h-113l220 329h188l220 -329h-113l-227 206h52zM731 1314q84 19 110.5 43.5t26.5 55.5q0 23 -14.5 41t-61.5 30t-145 15l24 144q108 -7 175 -22.5t103 -38.5
t49.5 -53.5t13.5 -67.5q0 -47 -20.5 -87t-76.5 -72.5t-164 -56.5z" />
    <glyph glyph-name="uni1EAA" unicode="&#x1eaa;" horiz-adv-x="1513" 
d="M380 472v126h686v-126h-686zM1362 117l161 -53v-64h-584v64l174 51l-449 1100h55l-418 -1100l167 -51v-64h-472v64l158 51l506 1266h174zM772 1580l-215 -123h-111l202 210h194l202 -210h-111l-216 123h55zM552 1712h-84q21 71 43 112.5t53.5 59t78.5 17.5q28 0 56.5 -11
t56 -25.5t53 -25.5t47.5 -11q33 0 50.5 14.5t31.5 56.5h84q-20 -72 -42.5 -113t-53.5 -59t-79 -18q-28 0 -57 11.5t-56.5 25.5t-52.5 25.5t-47 11.5q-33 0 -50.5 -14.5t-31.5 -56.5z" />
    <glyph glyph-name="uni1EAB" unicode="&#x1eab;" horiz-adv-x="1004" 
d="M689 581l-4 -96q-123 -23 -199 -46.5t-116.5 -50t-55.5 -57.5t-15 -70q0 -68 37.5 -102t102.5 -34q49 0 89 21.5t63.5 57.5t23.5 80v366q0 82 -39 125.5t-133 43.5q-41 0 -81 -7t-75 -21l54 60q-6 -38 -13 -69t-15.5 -54.5t-19.5 -41.5q-16 -25 -43.5 -34.5t-61.5 -9.5
q-45 0 -69 18t-24 46q0 35 34.5 74t94 73.5t136.5 56t162 21.5q111 0 177.5 -32.5t95.5 -93.5t29 -145v-455q0 -32 9.5 -52.5t28 -30t46.5 -9.5q22 0 46.5 6.5t50.5 18.5v-68q-47 -44 -100.5 -67t-101.5 -23q-59 0 -99.5 25.5t-61.5 75.5t-23 122l8 6q-15 -72 -53.5 -124
t-95.5 -79.5t-128 -27.5q-120 0 -192 61.5t-72 179.5q0 62 25 113t90 93.5t183 80.5t305 75zM501 1147l-217 -134h-109l207 237h184l207 -237h-109l-217 134h54zM281 1313h-86q15 79 33 124.5t47 65t76 19.5q32 0 65.5 -12.5t65.5 -29t60.5 -29t50.5 -12.5q30 0 47 16t27 62
h86q-15 -78 -33 -124t-46.5 -65t-76.5 -19q-32 0 -65.5 12t-65.5 28.5t-60.5 29t-50.5 12.5q-30 0 -46.5 -16t-27.5 -62z" />
    <glyph glyph-name="uni1EAC" unicode="&#x1eac;" horiz-adv-x="1513" 
d="M380 472v126h686v-126h-686zM1362 117l161 -53v-64h-584v64l174 51l-449 1100h55l-418 -1100l167 -51v-64h-472v64l158 51l506 1266h174zM724 1653h42l-219 -154h-123l227 268h188l227 -268h-123zM735 -367q-65 0 -101.5 35t-36.5 91t36.5 90t101.5 34t101.5 -34
t36.5 -90t-36.5 -91t-101.5 -35z" />
    <glyph glyph-name="uni1EAD" unicode="&#x1ead;" horiz-adv-x="1004" 
d="M689 581l-4 -96q-123 -23 -199 -46.5t-116.5 -50t-55.5 -57.5t-15 -70q0 -68 37.5 -102t102.5 -34q49 0 89 21.5t63.5 57.5t23.5 80v366q0 82 -39 125.5t-133 43.5q-41 0 -81 -7t-75 -21l54 60q-6 -38 -13 -69t-15.5 -54.5t-19.5 -41.5q-16 -25 -43.5 -34.5t-61.5 -9.5
q-45 0 -69 18t-24 46q0 35 34.5 74t94 73.5t136.5 56t162 21.5q111 0 177.5 -32.5t95.5 -93.5t29 -145v-455q0 -32 9.5 -52.5t28 -30t46.5 -9.5q22 0 46.5 6.5t50.5 18.5v-68q-47 -44 -100.5 -67t-101.5 -23q-59 0 -99.5 25.5t-61.5 75.5t-23 122l8 6q-15 -72 -53.5 -124
t-95.5 -79.5t-128 -27.5q-120 0 -192 61.5t-72 179.5q0 62 25 113t90 93.5t183 80.5t305 75zM160 1052l220 329h188l220 -329h-113l-227 206h52l-227 -206h-113zM514 -367q-65 0 -101.5 35t-36.5 91t36.5 90t101.5 34t101.5 -34t36.5 -90t-36.5 -91t-101.5 -35z" />
    <glyph glyph-name="uni1EAE" unicode="&#x1eae;" horiz-adv-x="1513" 
d="M380 472v126h686v-126h-686zM1362 117l161 -53v-64h-584v64l174 51l-449 1100h55l-418 -1100l167 -51v-64h-472v64l158 51l506 1266h174zM705 1648l104 251h212v-23l-242 -228h-74zM745 1573q88 0 132.5 24.5t62.5 79.5h81q-18 -83 -53 -132t-89.5 -70t-133.5 -21
q-78 0 -133 21t-89.5 70t-53.5 132h81q18 -54 62.5 -79t132.5 -25z" />
    <glyph glyph-name="uni1EAF" unicode="&#x1eaf;" horiz-adv-x="1004" 
d="M689 581l-4 -96q-123 -23 -199 -46.5t-116.5 -50t-55.5 -57.5t-15 -70q0 -68 37.5 -102t102.5 -34q49 0 89 21.5t63.5 57.5t23.5 80v366q0 82 -39 125.5t-133 43.5q-41 0 -81 -7t-75 -21l54 60q-6 -38 -13 -69t-15.5 -54.5t-19.5 -41.5q-16 -25 -43.5 -34.5t-61.5 -9.5
q-45 0 -69 18t-24 46q0 35 34.5 74t94 73.5t136.5 56t162 21.5q111 0 177.5 -32.5t95.5 -93.5t29 -145v-455q0 -32 9.5 -52.5t28 -30t46.5 -9.5q22 0 46.5 6.5t50.5 18.5v-68q-47 -44 -100.5 -67t-101.5 -23q-59 0 -99.5 25.5t-61.5 75.5t-23 122l8 6q-15 -72 -53.5 -124
t-95.5 -79.5t-128 -27.5q-120 0 -192 61.5t-72 179.5q0 62 25 113t90 93.5t183 80.5t305 75zM432 1231l106 286h218v-26l-247 -260h-77zM474 1134q84 0 130 25.5t65 90.5h84q-22 -101 -57 -154t-89 -72.5t-133 -19.5t-133 19.5t-89 72.5t-57 154h84q19 -65 65 -90.5
t130 -25.5z" />
    <glyph glyph-name="uni1EB0" unicode="&#x1eb0;" horiz-adv-x="1513" 
d="M380 472v126h686v-126h-686zM1362 117l161 -53v-64h-584v64l174 51l-449 1100h55l-418 -1100l167 -51v-64h-472v64l158 51l506 1266h174zM785 1648h-74l-242 228v23h212zM745 1573q88 0 132.5 25t62.5 79h81q-18 -84 -53 -132.5t-89.5 -69.5t-133.5 -21q-78 0 -133 21
t-90 69.5t-53 132.5h81q18 -55 62.5 -79.5t132.5 -24.5z" />
    <glyph glyph-name="uni1EB1" unicode="&#x1eb1;" horiz-adv-x="1004" 
d="M689 581l-4 -96q-123 -23 -199 -46.5t-116.5 -50t-55.5 -57.5t-15 -70q0 -68 37.5 -102t102.5 -34q49 0 89 21.5t63.5 57.5t23.5 80v366q0 82 -39 125.5t-133 43.5q-41 0 -81 -7t-75 -21l54 60q-6 -38 -13 -69t-15.5 -54.5t-19.5 -41.5q-16 -25 -43.5 -34.5t-61.5 -9.5
q-45 0 -69 18t-24 46q0 35 34.5 74t94 73.5t136.5 56t162 21.5q111 0 177.5 -32.5t95.5 -93.5t29 -145v-455q0 -32 9.5 -52.5t28 -30t46.5 -9.5q22 0 46.5 6.5t50.5 18.5v-68q-47 -44 -100.5 -67t-101.5 -23q-59 0 -99.5 25.5t-61.5 75.5t-23 122l8 6q-15 -72 -53.5 -124
t-95.5 -79.5t-128 -27.5q-120 0 -192 61.5t-72 179.5q0 62 25 113t90 93.5t183 80.5t305 75zM516 1231h-77l-247 260v26h218zM474 1134q84 0 130 25.5t65 90.5h84q-22 -101 -57 -154t-89 -72.5t-133 -19.5t-133 19.5t-89 72.5t-57 154h84q19 -65 65 -90.5t130 -25.5z" />
    <glyph glyph-name="uni1EB2" unicode="&#x1eb2;" horiz-adv-x="1513" 
d="M380 472v126h686v-126h-686zM1362 117l161 -53v-64h-584v64l174 51l-449 1100h55l-418 -1100l167 -51v-64h-472v64l158 51l506 1266h174zM745 1573q88 0 133 23t62 75h81q-18 -81 -53 -129t-89.5 -68t-133.5 -20q-78 0 -133 20t-90 68t-53 129h81q17 -52 62 -75t133 -23z
M693 1698q79 9 103.5 22t24.5 36q0 17 -12 28.5t-50 19.5t-116 12l14 120q109 -5 168.5 -25t83 -51t23.5 -70q0 -46 -21 -78t-71 -50.5t-138 -25.5z" />
    <glyph glyph-name="uni1EB3" unicode="&#x1eb3;" horiz-adv-x="1004" 
d="M689 581l-4 -96q-123 -23 -199 -46.5t-116.5 -50t-55.5 -57.5t-15 -70q0 -68 37.5 -102t102.5 -34q49 0 89 21.5t63.5 57.5t23.5 80v366q0 82 -39 125.5t-133 43.5q-41 0 -81 -7t-75 -21l54 60q-6 -38 -13 -69t-15.5 -54.5t-19.5 -41.5q-16 -25 -43.5 -34.5t-61.5 -9.5
q-45 0 -69 18t-24 46q0 35 34.5 74t94 73.5t136.5 56t162 21.5q111 0 177.5 -32.5t95.5 -93.5t29 -145v-455q0 -32 9.5 -52.5t28 -30t46.5 -9.5q22 0 46.5 6.5t50.5 18.5v-68q-47 -44 -100.5 -67t-101.5 -23q-59 0 -99.5 25.5t-61.5 75.5t-23 122l8 6q-15 -72 -53.5 -124
t-95.5 -79.5t-128 -27.5q-120 0 -192 61.5t-72 179.5q0 62 25 113t90 93.5t183 80.5t305 75zM425 1229l-14 69q80 15 105 34t25 43q0 19 -12.5 32.5t-53.5 22.5t-127 12l19 128q121 -6 185.5 -27.5t89.5 -55t25 -76.5t-20 -78t-72 -61t-150 -43zM474 1134q84 0 130 26t65 90
h84q-22 -101 -57 -154t-89 -72.5t-133 -19.5t-133 19.5t-89 72.5t-57 154h84q19 -66 65 -91t130 -25z" />
    <glyph glyph-name="uni1EB4" unicode="&#x1eb4;" horiz-adv-x="1513" 
d="M380 472v126h686v-126h-686zM1362 117l161 -53v-64h-584v64l174 51l-449 1100h55l-418 -1100l167 -51v-64h-472v64l158 51l506 1266h174zM745 1573q88 0 133 23t62 75h81q-18 -81 -53 -129t-89.5 -68t-133.5 -20q-78 0 -133 20t-90 68t-53 129h81q17 -52 62 -75t133 -23z
M552 1712h-84q21 71 43 112.5t53.5 59t78.5 17.5q28 0 56.5 -11t56 -25.5t53 -25.5t47.5 -11q33 0 50.5 14.5t31.5 56.5h84q-20 -72 -42.5 -113t-53.5 -59t-79 -18q-28 0 -57 11.5t-56.5 25.5t-52.5 25.5t-47 11.5q-33 0 -50.5 -14.5t-31.5 -56.5z" />
    <glyph glyph-name="uni1EB5" unicode="&#x1eb5;" horiz-adv-x="1004" 
d="M689 581l-4 -96q-123 -23 -199 -46.5t-116.5 -50t-55.5 -57.5t-15 -70q0 -68 37.5 -102t102.5 -34q49 0 89 21.5t63.5 57.5t23.5 80v366q0 82 -39 125.5t-133 43.5q-41 0 -81 -7t-75 -21l54 60q-6 -38 -13 -69t-15.5 -54.5t-19.5 -41.5q-16 -25 -43.5 -34.5t-61.5 -9.5
q-45 0 -69 18t-24 46q0 35 34.5 74t94 73.5t136.5 56t162 21.5q111 0 177.5 -32.5t95.5 -93.5t29 -145v-455q0 -32 9.5 -52.5t28 -30t46.5 -9.5q22 0 46.5 6.5t50.5 18.5v-68q-47 -44 -100.5 -67t-101.5 -23q-59 0 -99.5 25.5t-61.5 75.5t-23 122l8 6q-15 -72 -53.5 -124
t-95.5 -79.5t-128 -27.5q-120 0 -192 61.5t-72 179.5q0 62 25 113t90 93.5t183 80.5t305 75zM281 1313h-86q15 79 33 124.5t47 65t76 19.5q32 0 66.5 -12t68 -27.5t62.5 -27.5t49 -12q27 0 43.5 15.5t26.5 58.5h86q-15 -78 -33 -124t-46.5 -65t-76.5 -19q-32 0 -66.5 12
t-68 27t-62.5 27t-49 12q-27 0 -43 -15.5t-27 -58.5zM474 1134q84 0 130 26t65 90h84q-22 -101 -57 -154t-89 -72.5t-133 -19.5t-133 19.5t-89 72.5t-57 154h84q19 -66 65 -91t130 -25z" />
    <glyph glyph-name="uni1EB6" unicode="&#x1eb6;" horiz-adv-x="1513" 
d="M380 472v126h686v-126h-686zM1362 117l161 -53v-64h-584v64l174 51l-449 1100h55l-418 -1100l167 -51v-64h-472v64l158 51l506 1266h174zM745 1634q83 0 132.5 30t68.5 103h94q-21 -105 -57 -165t-94 -84.5t-144 -24.5t-144 24.5t-93.5 84.5t-57.5 165h94
q19 -73 68.5 -103t132.5 -30zM735 -367q-65 0 -101.5 35t-36.5 91t36.5 90t101.5 34t101.5 -34t36.5 -90t-36.5 -91t-101.5 -35z" />
    <glyph glyph-name="uni1EB7" unicode="&#x1eb7;" horiz-adv-x="1004" 
d="M689 581l-4 -96q-123 -23 -199 -46.5t-116.5 -50t-55.5 -57.5t-15 -70q0 -68 37.5 -102t102.5 -34q49 0 89 21.5t63.5 57.5t23.5 80v366q0 82 -39 125.5t-133 43.5q-41 0 -81 -7t-75 -21l54 60q-6 -38 -13 -69t-15.5 -54.5t-19.5 -41.5q-16 -25 -43.5 -34.5t-61.5 -9.5
q-45 0 -69 18t-24 46q0 35 34.5 74t94 73.5t136.5 56t162 21.5q111 0 177.5 -32.5t95.5 -93.5t29 -145v-455q0 -32 9.5 -52.5t28 -30t46.5 -9.5q22 0 46.5 6.5t50.5 18.5v-68q-47 -44 -100.5 -67t-101.5 -23q-59 0 -99.5 25.5t-61.5 75.5t-23 122l8 6q-15 -72 -53.5 -124
t-95.5 -79.5t-128 -27.5q-120 0 -192 61.5t-72 179.5q0 62 25 113t90 93.5t183 80.5t305 75zM474 1193q58 0 99.5 19t69 61t41.5 108h88q-22 -129 -58.5 -202.5t-94.5 -104t-145 -30.5t-145 30.5t-94.5 104t-58.5 202.5h88q14 -66 41.5 -108t69.5 -61t99 -19zM514 -367
q-65 0 -101.5 35t-36.5 91t36.5 90t101.5 34t101.5 -34t36.5 -90t-36.5 -91t-101.5 -35z" />
    <glyph glyph-name="uni1EB8" unicode="&#x1eb8;" horiz-adv-x="1354" 
d="M962 973v-259v-260h-101l-21 198h-483v125h483l21 196h101zM1243 980l-85 -7l-152 317l73 -53h-722v128h680l107 61h52zM1016 72l187 343l79 -8l-77 -475h-59l-99 68h-690v127h720zM89 0v64l166 52v1133l-166 51v65h397v-1365h-397zM705 -367q-65 0 -101.5 35t-36.5 91
t36.5 90t101.5 34t101.5 -34t36.5 -90t-36.5 -91t-101.5 -35z" />
    <glyph glyph-name="uni1EB9" unicode="&#x1eb9;" horiz-adv-x="988" 
d="M524 935q124 0 207 -51t127.5 -149.5t52.5 -241.5h-672v95l538 17l-79 -42q-4 89 -26 147t-62.5 87.5t-100.5 29.5q-69 0 -120 -34.5t-79 -106t-28 -183.5q0 -119 41 -200t119.5 -122t189.5 -41q48 0 92 9.5t86 27t81 42.5l19 -60q-60 -59 -122 -99t-126.5 -61
t-132.5 -21q-135 0 -236 58t-157.5 162.5t-56.5 244.5q0 141 53.5 252.5t153 175.5t238.5 64zM531 -367q-65 0 -101.5 35t-36.5 91t36.5 90t101.5 34t101.5 -34t36.5 -90t-36.5 -91t-101.5 -35z" />
    <glyph glyph-name="uni1EBA" unicode="&#x1eba;" horiz-adv-x="1354" 
d="M962 973v-259v-260h-101l-21 198h-483v125h483l21 196h101zM1243 980l-85 -7l-152 317l73 -53h-722v128h680l107 61h52zM1016 72l187 343l79 -8l-77 -475h-59l-99 68h-690v127h720zM89 0v64l166 52v1133l-166 51v65h397v-1365h-397zM518 1693l19 142q107 -4 175 -17.5
t106 -35.5t53 -52t15 -66q0 -45 -21.5 -82t-80 -65t-168.5 -45l-15 67q59 11 89.5 23t41 26.5t10.5 34.5t-16 34.5t-64 23.5t-144 12z" />
    <glyph glyph-name="uni1EBB" unicode="&#x1ebb;" horiz-adv-x="988" 
d="M524 935q124 0 207 -51t127.5 -149.5t52.5 -241.5h-672v95l538 17l-79 -42q-4 89 -26 147t-62.5 87.5t-100.5 29.5q-69 0 -120 -34.5t-79 -106t-28 -183.5q0 -119 41 -200t119.5 -122t189.5 -41q48 0 92 9.5t86 27t81 42.5l19 -60q-60 -59 -122 -99t-126.5 -61
t-132.5 -21q-135 0 -236 58t-157.5 162.5t-56.5 244.5q0 141 53.5 252.5t153 175.5t238.5 64zM336 1279l22 145q111 -6 181 -20t107.5 -36.5t51.5 -53.5t14 -69q0 -46 -22.5 -85.5t-82 -71t-172.5 -54.5l-17 68q64 14 96 29t43 32t11 37q0 22 -15 38.5t-64 27t-153 13.5z
" />
    <glyph glyph-name="uni1EBC" unicode="&#x1ebc;" horiz-adv-x="1354" 
d="M962 973v-259v-260h-101l-21 198h-483v125h483l21 196h101zM1243 980l-85 -7l-152 317l73 -53h-722v128h680l107 61h52zM1016 72l187 343l79 -8l-77 -475h-59l-99 68h-690v127h720zM89 0v64l166 52v1133l-166 51v65h397v-1365h-397zM992 1764q-18 -110 -40.5 -168
t-55.5 -79.5t-83 -21.5q-39 0 -74 18.5t-67 43.5t-60 43.5t-53 18.5q-18 0 -31.5 -8.5t-25 -33.5t-23.5 -75h-96q19 110 41.5 168t55.5 79.5t82 21.5q39 0 74 -18.5t67 -43.5t60 -43.5t52 -18.5q19 0 32.5 8.5t25.5 34t23 74.5h96z" />
    <glyph glyph-name="uni1EBD" unicode="&#x1ebd;" horiz-adv-x="988" 
d="M524 935q124 0 207 -51t127.5 -149.5t52.5 -241.5h-672v95l538 17l-79 -42q-4 89 -26 147t-62.5 87.5t-100.5 29.5q-69 0 -120 -34.5t-79 -106t-28 -183.5q0 -119 41 -200t119.5 -122t189.5 -41q48 0 92 9.5t86 27t81 42.5l19 -60q-60 -59 -122 -99t-126.5 -61
t-132.5 -21q-135 0 -236 58t-157.5 162.5t-56.5 244.5q0 141 53.5 252.5t153 175.5t238.5 64zM812 1369q-17 -120 -38.5 -188t-54 -96t-85.5 -28q-43 0 -77.5 24t-63 55.5t-55.5 56t-54 24.5q-17 0 -30.5 -12t-25 -44.5t-24.5 -95.5h-93q17 120 38.5 187.5t54.5 96t84 28.5
q44 0 78 -24.5t63 -56t56 -55.5t54 -24q18 0 31 11.5t24.5 44.5t23.5 96h94z" />
    <glyph glyph-name="uni1EBE" unicode="&#x1ebe;" horiz-adv-x="1354" 
d="M962 973v-259v-260h-101l-21 198h-483v125h483l21 196h101zM1243 980l-85 -7l-152 317l73 -53h-722v128h680l107 61h52zM1016 72l187 343l79 -8l-77 -475h-59l-99 68h-690v127h720zM89 0v64l166 52v1133l-166 51v65h397v-1365h-397zM952 1664l107 233h245v-27l-261 -206
h-91zM668 1653h42l-219 -154h-123l227 268h188l227 -268h-123z" />
    <glyph glyph-name="uni1EBF" unicode="&#x1ebf;" horiz-adv-x="988" 
d="M524 935q124 0 207 -51t127.5 -149.5t52.5 -241.5h-672v95l538 17l-79 -42q-4 89 -26 147t-62.5 87.5t-100.5 29.5q-69 0 -120 -34.5t-79 -106t-28 -183.5q0 -119 41 -200t119.5 -122t189.5 -41q48 0 92 9.5t86 27t81 42.5l19 -60q-60 -59 -122 -99t-126.5 -61
t-132.5 -21q-135 0 -236 58t-157.5 162.5t-56.5 244.5q0 141 53.5 252.5t153 175.5t238.5 64zM770 1251l108 270h242v-30l-259 -240h-91zM487 1258h52l-227 -206h-113l220 329h188l220 -329h-113z" />
    <glyph glyph-name="uni1EC0" unicode="&#x1ec0;" horiz-adv-x="1354" 
d="M962 973v-259v-260h-101l-21 198h-483v125h483l21 196h101zM1243 980l-85 -7l-152 317l73 -53h-722v128h680l107 61h52zM1016 72l187 343l79 -8l-77 -475h-59l-99 68h-690v127h720zM89 0v64l166 52v1133l-166 51v65h397v-1365h-397zM426 1664h-91l-261 206v27h245z
M710 1653l-219 -154h-123l227 268h188l227 -268h-123l-219 154h42z" />
    <glyph glyph-name="uni1EC1" unicode="&#x1ec1;" horiz-adv-x="989" 
d="M525 935q124 0 207 -51t127.5 -149.5t52.5 -241.5h-672v95l538 17l-79 -42q-4 89 -26 147t-62.5 87.5t-100.5 29.5q-69 0 -120 -34.5t-79 -106t-28 -183.5q0 -119 41 -200t119.5 -122t189.5 -41q48 0 92 9.5t86 27t81 42.5l19 -60q-60 -59 -122 -99t-126.5 -61
t-132.5 -21q-135 0 -236 58t-157.5 162.5t-56.5 244.5q0 141 53.5 252.5t153 175.5t238.5 64zM256 1251h-91l-259 240v30h242zM539 1258l-227 -206h-113l220 329h188l220 -329h-113l-227 206h52z" />
    <glyph glyph-name="uni1EC2" unicode="&#x1ec2;" horiz-adv-x="1354" 
d="M962 973v-259v-260h-101l-21 198h-483v125h483l21 196h101zM1243 980l-85 -7l-152 317l73 -53h-722v128h680l107 61h52zM1016 72l187 343l79 -8l-77 -475h-59l-99 68h-690v127h720zM89 0v64l166 52v1133l-166 51v65h397v-1365h-397zM710 1653l-219 -154h-123l227 268h188
l227 -268h-123l-219 154h42zM956 1719q75 14 97.5 32t22.5 44q0 19 -14 33.5t-58 24t-133 12.5l19 131q101 -4 164.5 -17.5t98.5 -34.5t49 -48t14 -60q0 -44 -20.5 -79t-74 -60.5t-154.5 -40.5z" />
    <glyph glyph-name="uni1EC3" unicode="&#x1ec3;" horiz-adv-x="988" 
d="M524 935q124 0 207 -51t127.5 -149.5t52.5 -241.5h-672v95l538 17l-79 -42q-4 89 -26 147t-62.5 87.5t-100.5 29.5q-69 0 -120 -34.5t-79 -106t-28 -183.5q0 -119 41 -200t119.5 -122t189.5 -41q48 0 92 9.5t86 27t81 42.5l19 -60q-60 -59 -122 -99t-126.5 -61
t-132.5 -21q-135 0 -236 58t-157.5 162.5t-56.5 244.5q0 141 53.5 252.5t153 175.5t238.5 64zM539 1258l-227 -206h-113l220 329h188l220 -329h-113l-227 206h52zM770 1314q84 19 110.5 43.5t26.5 55.5q0 23 -14.5 41t-61.5 30t-145 15l24 144q108 -7 175 -22.5t103 -38.5
t49.5 -53.5t13.5 -67.5q0 -47 -20.5 -87t-76.5 -72.5t-164 -56.5z" />
    <glyph glyph-name="uni1EC4" unicode="&#x1ec4;" horiz-adv-x="1354" 
d="M962 973v-259v-260h-101l-21 198h-483v125h483l21 196h101zM1243 980l-85 -7l-152 317l73 -53h-722v128h680l107 61h52zM1016 72l187 343l79 -8l-77 -475h-59l-99 68h-690v127h720zM89 0v64l166 52v1133l-166 51v65h397v-1365h-397zM716 1580l-215 -123h-111l202 210h194
l202 -210h-111l-216 123h55zM496 1712h-84q21 71 43 112.5t53.5 59t78.5 17.5q28 0 56.5 -11t56 -25.5t53 -25.5t47.5 -11q33 0 50.5 14.5t31.5 56.5h84q-20 -72 -42.5 -113t-53.5 -59t-79 -18q-28 0 -57 11.5t-56.5 25.5t-52.5 25.5t-47 11.5q-33 0 -50.5 -14.5
t-31.5 -56.5z" />
    <glyph glyph-name="uni1EC5" unicode="&#x1ec5;" horiz-adv-x="988" 
d="M524 935q124 0 207 -51t127.5 -149.5t52.5 -241.5h-672v95l538 17l-79 -42q-4 89 -26 147t-62.5 87.5t-100.5 29.5q-69 0 -120 -34.5t-79 -106t-28 -183.5q0 -119 41 -200t119.5 -122t189.5 -41q48 0 92 9.5t86 27t81 42.5l19 -60q-60 -59 -122 -99t-126.5 -61
t-132.5 -21q-135 0 -236 58t-157.5 162.5t-56.5 244.5q0 141 53.5 252.5t153 175.5t238.5 64zM540 1147l-217 -134h-109l207 237h184l207 -237h-109l-217 134h54zM320 1313h-86q15 79 33 124.5t47 65t76 19.5q32 0 65.5 -12.5t65.5 -29t60.5 -29t50.5 -12.5q30 0 47 16
t27 62h86q-15 -78 -33 -124t-46.5 -65t-76.5 -19q-32 0 -65.5 12t-65.5 28.5t-60.5 29t-50.5 12.5q-30 0 -46.5 -16t-27.5 -62z" />
    <glyph glyph-name="uni1EC6" unicode="&#x1ec6;" horiz-adv-x="1354" 
d="M962 973v-259v-260h-101l-21 198h-483v125h483l21 196h101zM1243 980l-85 -7l-152 317l73 -53h-722v128h680l107 61h52zM1016 72l187 343l79 -8l-77 -475h-59l-99 68h-690v127h720zM89 0v64l166 52v1133l-166 51v65h397v-1365h-397zM668 1653h42l-219 -154h-123l227 268
h188l227 -268h-123zM705 -367q-65 0 -101.5 35t-36.5 91t36.5 90t101.5 34t101.5 -34t36.5 -90t-36.5 -91t-101.5 -35z" />
    <glyph glyph-name="uni1EC7" unicode="&#x1ec7;" horiz-adv-x="988" 
d="M524 935q124 0 207 -51t127.5 -149.5t52.5 -241.5h-672v95l538 17l-79 -42q-4 89 -26 147t-62.5 87.5t-100.5 29.5q-69 0 -120 -34.5t-79 -106t-28 -183.5q0 -119 41 -200t119.5 -122t189.5 -41q48 0 92 9.5t86 27t81 42.5l19 -60q-60 -59 -122 -99t-126.5 -61
t-132.5 -21q-135 0 -236 58t-157.5 162.5t-56.5 244.5q0 141 53.5 252.5t153 175.5t238.5 64zM199 1052l220 329h188l220 -329h-113l-227 206h52l-227 -206h-113zM531 -367q-65 0 -101.5 35t-36.5 91t36.5 90t101.5 34t101.5 -34t36.5 -90t-36.5 -91t-101.5 -35z" />
    <glyph glyph-name="uni1EC8" unicode="&#x1ec8;" horiz-adv-x="741" 
d="M652 64v-64h-563v64l166 52v1133l-166 51v65h563v-65l-166 -51v-1133zM200 1693l19 142q107 -4 175 -17.5t106 -35.5t53 -52t15 -66q0 -45 -21.5 -82t-80 -65t-168.5 -45l-15 67q59 11 89.5 23t41 26.5t10.5 34.5t-16 34.5t-64 23.5t-144 12z" />
    <glyph glyph-name="uni1EC9" unicode="&#x1ec9;" horiz-adv-x="611" 
d="M433 935l-11 -202v-628l147 -46v-59h-503v59l147 46v605q-11 12 -36 28t-56 32.5t-61 29.5v45l331 90h42zM127 1279l22 145q111 -6 181 -20t107.5 -36.5t51.5 -53.5t14 -69q0 -46 -22.5 -85.5t-82 -71t-172.5 -54.5l-17 68q64 14 96 29t43 32t11 37q0 22 -15 38.5t-64 27
t-153 13.5z" />
    <glyph glyph-name="uni1ECA" unicode="&#x1eca;" horiz-adv-x="741" 
d="M652 64v-64h-563v64l166 52v1133l-166 51v65h563v-65l-166 -51v-1133zM371 -367q-65 0 -101.5 35t-36.5 91t36.5 90t101.5 34t101.5 -34t36.5 -90t-36.5 -91t-101.5 -35z" />
    <glyph glyph-name="uni1ECB" unicode="&#x1ecb;" horiz-adv-x="611" 
d="M307 1171q-68 0 -109 37.5t-41 98.5q0 62 41 99t109 37t109 -37t41 -99q0 -61 -41 -98.5t-109 -37.5zM433 935l-11 -202v-628l147 -46v-59h-503v59l147 46v605q-11 12 -36 28t-56 32.5t-61 29.5v45l331 90h42zM318 -367q-65 0 -101.5 35t-36.5 91t36.5 90t101.5 34
t101.5 -34t36.5 -90t-36.5 -91t-101.5 -35z" />
    <glyph glyph-name="uni1ECC" unicode="&#x1ecc;" horiz-adv-x="1595" 
d="M801 1387q157 0 285 -51t220.5 -144t142.5 -222t50 -286q0 -156 -51 -285.5t-144.5 -224t-223 -145.5t-286.5 -51t-285 51t-220.5 144t-142 222t-49.5 285q0 157 50.5 286.5t144 224t223 145.5t286.5 51zM806 112q141 0 241.5 63t154.5 182t54 287q0 196 -57 331.5
t-162 206t-248 70.5q-140 0 -241 -62.5t-154.5 -181.5t-53.5 -287q0 -195 57 -331t161.5 -207t247.5 -71zM797 -367q-65 0 -101.5 35t-36.5 91t36.5 90t101.5 34t101.5 -34t36.5 -90t-36.5 -91t-101.5 -35z" />
    <glyph glyph-name="uni1ECD" unicode="&#x1ecd;" horiz-adv-x="1111" 
d="M555 92q78 0 135.5 35t89 109.5t31.5 192.5q0 130 -30 217t-86.5 131t-138.5 44q-78 0 -135.5 -35t-89 -109t-31.5 -193q0 -128 29.5 -215.5t87 -132t138.5 -44.5zM549 -22q-143 0 -249 59t-163.5 165t-57.5 247q0 144 61 253.5t169.5 171t252.5 61.5t249.5 -58.5
t163 -164.5t57.5 -248q0 -144 -60.5 -253.5t-169.5 -171t-253 -61.5zM556 -367q-65 0 -101.5 35t-36.5 91t36.5 90t101.5 34t101.5 -34t36.5 -90t-36.5 -91t-101.5 -35z" />
    <glyph glyph-name="uni1ECE" unicode="&#x1ece;" horiz-adv-x="1595" 
d="M801 1387q157 0 285 -51t220.5 -144t142.5 -222t50 -286q0 -156 -51 -285.5t-144.5 -224t-223 -145.5t-286.5 -51t-285 51t-220.5 144t-142 222t-49.5 285q0 157 50.5 286.5t144 224t223 145.5t286.5 51zM806 112q141 0 241.5 63t154.5 182t54 287q0 196 -57 331.5
t-162 206t-248 70.5q-140 0 -241 -62.5t-154.5 -181.5t-53.5 -287q0 -195 57 -331t161.5 -207t247.5 -71zM626 1693l19 142q107 -4 175 -17.5t106 -35.5t53 -52t15 -66q0 -45 -21.5 -82t-80 -65t-168.5 -45l-15 67q59 11 89.5 23t41 26.5t10.5 34.5t-16 34.5t-64 23.5
t-144 12z" />
    </font>
</defs>
</svg>
